<svg xmlns="http://www.w3.org/2000/svg" width="201" height="70" viewBox="0 0 201 70" fill="none">
  <path d="M18.1747 7.75218L25.8179 1.6249C26.9552 0.713524 28.9057 0 30.2159 0H139.609C140.918 0 142.87 0.713524 144.006 1.6249L166.868 19.9522C169.16 21.789 169.512 23.3563 167.535 23.3563H18.1763V7.75218H18.1747Z" fill="#2B7982"/>
  <path d="M1.57336 60.2744C1.57336 61.9538 2.97236 62.9602 4.6144 63.3154C8.2054 64.0913 17.4314 66.3565 19.1451 66.3565C25.4858 66.3565 197.168 66.3565 197.168 66.3565C198.847 66.3565 200.209 64.9949 200.209 63.3154V53.6283L199.195 50.9253V29.6349L194.125 9.69668C194.125 8.01725 191.721 5.97949 190.042 5.97949H6.13181C4.45238 5.97949 2.86957 8.02193 2.74494 9.69668C2.20434 16.927 1.57027 29.3139 1.57027 29.3139V60.2744H1.57336Z" fill="black"/>
  <path d="M0.993011 59.2348C0.993011 60.9235 2.40135 61.9362 4.05274 62.2945C7.66398 63.075 16.9445 65.3542 18.6691 65.3542C25.0472 65.3542 197.734 65.3542 197.734 65.3542C199.425 65.3542 200.794 63.9848 200.794 62.2945V52.5497L199.775 49.8296V28.4161L194.676 8.36107C194.676 6.67229 192.258 4.62207 190.569 4.62207H5.58417C3.89383 4.62207 2.30318 6.67696 2.17699 8.36107C1.63328 15.6334 0.994532 28.0936 0.994532 28.0936L0.993011 59.2348Z" fill="#55E0F9"/>
  <path d="M130.931 29.2144C154.67 29.2144 158.275 53.376 173.015 53.376C179.53 53.376 197.423 53.3542 200.794 53.3496L200.792 54.3077V55.0461C200.792 55.0461 180.268 55.0742 173.015 55.0742C158.274 55.0742 154.67 36.1268 130.931 36.1268C104.459 36.1268 1.89815 36.1268 1.89815 36.1268L1.90908 29.2159C7.36178 29.2144 105.601 29.2144 130.931 29.2144Z" fill="white"/>
  <path d="M130.931 40.4307C154.67 40.4307 158.275 55.9506 173.015 55.9506C179.53 55.9506 197.423 55.9288 200.794 55.9241L200.792 56.8822V57.6207C200.792 57.6207 180.268 57.6487 173.015 57.6487C158.274 57.6487 154.67 47.3431 130.931 47.3431C104.459 47.3431 1.89815 47.3431 1.89815 47.3431L1.90908 40.4322C7.36178 40.4307 105.601 40.4307 130.931 40.4307Z" fill="#2B7982"/>
  <path d="M130.931 51.4146C154.67 51.4146 158.275 58.6729 173.015 58.6729C179.53 58.6729 197.423 58.6511 200.794 58.6464L200.792 59.6045V60.3429C200.792 60.3429 180.268 60.371 173.015 60.371C158.274 60.371 154.67 58.327 130.931 58.327C104.459 58.327 1.89815 58.327 1.89815 58.327L1.90908 51.4161C7.36178 51.4145 105.601 51.4146 130.931 51.4146Z" fill="white"/>
  <path d="M195.134 50.0176V65.4207H172.918V50.0176H195.134ZM173.546 64.757H194.25V51.3776H173.546V64.757Z" fill="#172333"/>
  <path d="M1.03652 27.287C1.18608 24.4205 1.71581 14.5277 2.17696 8.3615C2.30315 6.6774 3.54635 5.30176 5.23668 5.30176H63.6336H118.475H191.616C193.307 5.30176 194.249 6.32063 194.663 7.71341L199.773 27.4802V49.8301L200.37 51.4207C200.37 51.4207 180.175 51.4487 172.887 51.4487C158.079 51.4487 154.458 27.287 130.608 27.287C104.015 27.287 1.03652 27.287 1.03652 27.287Z" fill="#172333"/>
  <path d="M69.5479 6.66211H102.127V25.287H69.5479V6.66211Z" fill="#80C2DC"/>
  <path d="M192.762 6.66211H193.246C194.184 6.66211 194.486 7.03912 194.692 7.83522C195.821 12.1787 199.367 25.9288 199.367 25.9288H197.3L192.762 6.66211Z" fill="#80C2DC"/>
  <path d="M190.981 6.66211C191.023 6.90047 195.567 25.287 195.567 25.287H169.036V6.66211H190.981Z" fill="#80C2DC"/>
  <path d="M35.1787 6.66211H67.7578V25.287H35.1787V6.66211Z" fill="#80C2DC"/>
  <path d="M33.4277 25.287H2.46728C2.6776 21.4903 3.13096 13.5606 3.52979 8.40386C3.59678 7.53922 4.20279 6.66211 5.23257 6.66211H33.4262V25.287H33.4277Z" fill="#80C2DC"/>
  <path d="M103.774 6.66211H137.032V25.287H103.774V6.66211Z" fill="#80C2DC"/>
  <path d="M138.784 6.66211H167.284V25.287H146.799H138.784V6.66211Z" fill="#80C2DC"/>
  <path d="M195.349 29.1221H199.837V47.7656H195.349V29.1221Z" fill="#80C2DC"/>
  <path d="M173.706 29.0645H193.203V47.197H173.706V29.0645Z" fill="#80C2DC"/>
  <path d="M169.913 47.1986L152.638 29.0645H171.45V47.1986H169.913Z" fill="#80C2DC"/>
  <path opacity="0.7" d="M197.958 20.4493C196.838 16.1089 195.355 10.3696 194.696 7.83327C194.488 7.03717 194.186 6.66016 193.25 6.66016H192.765L195.415 17.9036C196.263 18.7527 197.11 19.6017 197.958 20.4493ZM198.768 25.9284H197.305L196.855 24.0138C197.492 24.6509 198.129 25.2897 198.768 25.9284ZM184.17 6.66172H190.982C191.002 6.77856 192.088 11.189 193.198 15.6898C190.19 12.6799 187.18 9.67161 184.17 6.66172ZM194.73 21.8888C195.227 23.9016 195.57 25.2866 195.57 25.2866H192.444C186.236 19.0783 180.028 12.87 173.82 6.66172H179.503C184.577 11.7374 189.653 16.8131 194.73 21.8888ZM186.116 25.2866H183.832L169.038 10.4926V8.20873C174.731 13.9013 180.424 19.594 186.116 25.2866ZM180.224 25.2866H169.328C169.232 25.19 169.135 25.0918 169.037 24.9953V14.0992L180.224 25.2866ZM67.2707 6.66172L67.7614 7.15246V12.8202L61.603 6.66172H67.2707ZM48.9122 6.66172H55.5022L67.7599 18.9194V25.2866H67.5371L48.9122 6.66172ZM35.1808 11.2856V6.66172H42.3581L60.9829 25.2866H49.1818C44.5143 20.6191 39.8483 15.9531 35.1808 11.2856ZM35.1808 15.1383V13.7611L46.7062 25.2866H45.329C41.9468 21.9028 38.563 18.5206 35.1808 15.1383ZM39.7206 25.2866H35.1808V20.7468C36.6951 22.2596 38.2078 23.7723 39.7206 25.2866ZM30.5569 6.66172H33.4297V9.53451L30.5569 6.66172ZM21.0972 6.66172C25.2086 10.7731 29.3183 14.8828 33.4297 18.9942V25.2866H26.7478C20.5395 19.0783 14.3312 12.87 8.12292 6.66172H21.0972ZM11.259 25.2866H2.46768C2.57674 23.3127 2.75278 20.2187 2.95063 16.9798C5.72216 19.7482 8.49059 22.5166 11.259 25.2866ZM18.6077 25.2866H16.0963L3.24355 12.4338C3.29808 11.6237 3.35257 10.8385 3.4071 10.086C8.47344 15.1524 13.5414 20.2187 18.6077 25.2866ZM26.7042 6.66172H28.0814L33.4281 12.0085V13.3857C31.1879 11.1454 28.946 8.90356 26.7042 6.66172ZM134.161 6.66172H137.034V9.53451C136.076 8.57639 135.119 7.61828 134.161 6.66172ZM109.914 6.66172H116.957C123.166 12.87 129.374 19.0783 135.582 25.2866H128.539C122.33 19.0783 116.122 12.87 109.914 6.66172ZM105.835 6.66172H107.44C113.648 12.87 119.857 19.0783 126.065 25.2866H124.46C118.252 19.0783 112.044 12.87 105.835 6.66172ZM120.157 25.2866H114.49L103.774 14.5712V8.90356C109.235 14.364 114.697 19.8261 120.157 25.2866ZM108.389 25.2866H103.774V20.672C105.313 22.2097 106.851 23.7474 108.389 25.2866ZM130.301 6.66172L137.033 13.3935V19.5036L124.189 6.66016H130.301V6.66172ZM165.207 6.66172H167.287V8.73998L165.207 6.66172ZM161.599 6.66172L167.286 12.3481V23.2426L150.703 6.66016H161.599V6.66172ZM148.926 25.2866H146.801H142.816L138.785 21.2563V15.1461C142.166 18.5252 145.547 21.9059 148.926 25.2866ZM138.785 11.2856V6.66172H141.658L160.283 25.2866H152.786C148.119 20.6191 143.453 15.9531 138.785 11.2856ZM196.278 29.1222H199.84V32.6836L196.278 29.1222ZM199.838 39.0102V41.2941C198.343 39.7986 196.846 38.3014 195.35 36.8058V34.5219C196.847 36.0175 198.343 37.5131 199.838 39.0102ZM199.838 44.9007V47.7642H195.35V40.4124L199.838 44.9007ZM193.206 38.2687V47.1986H191.24L173.709 29.6674V29.0661H184.002L193.206 38.2687ZM173.709 46.2094V38.7127L182.195 47.1971H174.698L173.709 46.2094ZM193.206 32.3767V34.6605L187.61 29.0645H189.894C190.999 30.1691 192.103 31.2736 193.206 32.3767ZM156.566 29.0645H164.062L171.453 36.4553V43.952C166.49 38.99 161.528 34.028 156.566 29.0645ZM101.64 6.66172L102.131 7.15246V12.8202L95.9722 6.66172H101.64ZM83.2814 6.66172H89.8713L102.129 18.9194V25.2866H101.906L83.2814 6.66172ZM69.5499 11.2856V6.66172H76.7272L95.3521 25.2866H83.5509C78.8834 20.6191 74.2175 15.9531 69.5499 11.2856ZM69.5499 15.1383V13.7611L81.0754 25.2866H79.6982C76.3159 21.9028 72.9337 18.5206 69.5499 15.1383ZM74.0912 25.2866H69.5515V20.7468C71.0642 22.2596 72.5769 23.7723 74.0912 25.2866Z" fill="white"/>
  <path d="M195.898 52.5H201V54.8618H195.898V52.5Z" fill="#2B7982"/>
  <path d="M196.487 52.7959H198.836V54.5672H196.487V52.7959Z" fill="#F49625"/>
  <path d="M199.199 52.7959H201V54.5672H199.199V52.7959Z" fill="white"/>
  <path d="M0.742567 52.5H5.84473V54.8618H0.742567V52.5Z" fill="#2B7982"/>
  <path d="M2.90458 52.7959H5.25391V54.5672H2.90458V52.7959Z" fill="#F49625"/>
  <path d="M0.74494 52.7959H2.5459V54.5672H0.74494V52.7959Z" fill="#DB3535"/>
  <path d="M198.873 58.9111H201V60.9271H198.873V58.9111Z" fill="#2B7982"/>
  <path d="M199.199 59.1631H201V60.6743H199.199V59.1631Z" fill="white"/>
  <path d="M166.24 52.5H171.342V54.8618H166.24V52.5Z" fill="#2B7982"/>
  <path d="M166.829 52.7959H170.796V54.5672H166.829V52.7959Z" fill="#F49625"/>
  <path d="M175.016 51.4658H180.118V52.7075H175.016V51.4658Z" fill="#2B7982"/>
  <path d="M175.349 51.6216H179.825V52.5532H175.349V51.6216Z" fill="#DCDFE2"/>
  <path d="M124.432 52.5H129.534V54.8618H124.432V52.5Z" fill="#2B7982"/>
  <path d="M125.023 52.7959H128.989V54.5672H125.023V52.7959Z" fill="#F49625"/>
  <path d="M79.3139 52.5H84.416V54.8618H79.3139V52.5Z" fill="#2B7982"/>
  <path d="M79.9036 52.7959H83.8701V54.5672H79.9036V52.7959Z" fill="#F49625"/>
  <path d="M14.8226 52.5H19.9248V54.8618H14.8226V52.5Z" fill="#2B7982"/>
  <path d="M15.4154 52.7959H19.3818V54.5672H15.4154V52.7959Z" fill="#F49625"/>
  <path d="M146.037 65.3478V57.8792C146.037 53.3628 149.698 49.7017 154.216 49.7017H156.942C161.458 49.7017 165.121 53.3628 165.121 57.8792V65.3478H146.037Z" fill="black"/>
  <path d="M146.634 60.9917C146.634 65.9662 150.667 69.9996 155.642 69.9996C160.616 69.9996 164.649 65.9662 164.649 60.9917C164.649 56.0173 160.616 51.9839 155.642 51.9839C150.667 51.9839 146.634 56.0173 146.634 60.9917Z" fill="#2A2A2B"/>
  <path d="M149.099 60.992C149.099 64.6063 152.028 67.5352 155.642 67.5352C159.257 67.5352 162.186 64.6048 162.186 60.992C162.186 57.3776 159.257 54.4487 155.642 54.4487C152.028 54.4487 149.099 57.3776 149.099 60.992Z" fill="#091119"/>
  <path d="M149.906 60.9921C149.906 64.1609 152.474 66.7283 155.643 66.7283C158.811 66.7283 161.379 64.1593 161.379 60.9921C161.379 57.8233 158.811 55.2559 155.643 55.2559C152.475 55.2559 149.906 57.8249 149.906 60.9921Z" fill="white"/>
  <path d="M151.62 60.9923C151.62 63.2138 153.421 65.0148 155.643 65.0148C157.864 65.0148 159.665 63.2138 159.665 60.9923C159.665 58.7707 157.864 56.9697 155.643 56.9697C153.421 56.9697 151.62 58.7707 151.62 60.9923Z" fill="#DCDFE2"/>
  <path d="M152.125 60.9914C152.125 62.9341 153.7 64.5092 155.642 64.5092C157.585 64.5092 159.16 62.9341 159.16 60.9914C159.16 59.0487 157.585 57.4736 155.642 57.4736C153.7 57.4736 152.125 59.0487 152.125 60.9914Z" fill="white"/>
  <path d="M154.029 60.9919C154.029 61.8846 154.752 62.6075 155.643 62.6075C156.534 62.6075 157.259 61.8846 157.259 60.9919C157.259 60.1008 156.536 59.3779 155.643 59.3779C154.752 59.3779 154.029 60.1008 154.029 60.9919Z" fill="#091119"/>
  <path d="M23.7908 65.3478V57.8792C23.7908 53.3628 27.4518 49.7017 31.9682 49.7017H34.6946C39.211 49.7017 42.8721 53.3628 42.8721 57.8792V65.3478H23.7908Z" fill="black"/>
  <path d="M24.3896 60.9917C24.3896 65.9662 28.423 69.9996 33.3974 69.9996C38.3718 69.9996 42.4053 65.9662 42.4053 60.9917C42.4053 56.0173 38.3718 51.9839 33.3974 51.9839C28.423 51.9839 24.3896 56.0173 24.3896 60.9917Z" fill="#2A2A2B"/>
  <path d="M26.8549 60.992C26.8549 64.6063 29.7854 67.5352 33.3982 67.5352C37.0126 67.5352 39.9414 64.6048 39.9414 60.992C39.9414 57.3776 37.0126 54.4487 33.3982 54.4487C29.7854 54.4487 26.8549 57.3776 26.8549 60.992Z" fill="#091119"/>
  <path d="M27.6623 60.9921C27.6623 64.1609 30.2297 66.7283 33.3985 66.7283C36.5673 66.7283 39.1348 64.1593 39.1348 60.9921C39.1348 57.8233 36.5673 55.2559 33.3985 55.2559C30.2297 55.2559 27.6623 57.8249 27.6623 60.9921Z" fill="white"/>
  <path d="M29.3758 60.9923C29.3758 63.2138 31.1768 65.0148 33.3984 65.0148C35.6199 65.0148 37.4209 63.2138 37.4209 60.9923C37.4209 58.7707 35.6199 56.9697 33.3984 56.9697C31.1768 56.9697 29.3758 58.7707 29.3758 60.9923Z" fill="#DCDFE2"/>
  <path d="M29.8805 60.9919C29.8805 62.9346 31.4555 64.5097 33.3983 64.5097C35.341 64.5097 36.916 62.9346 36.916 60.9919C36.916 59.0492 35.341 57.4741 33.3983 57.4741C31.4555 57.4741 29.8805 59.0492 29.8805 60.9919Z" fill="white"/>
  <path d="M31.7812 60.9919C31.7812 61.8846 32.5041 62.6075 33.3952 62.6075C34.2863 62.6075 35.0107 61.8846 35.0107 60.9919C35.0107 60.1008 34.2879 59.3779 33.3952 59.3779C32.5041 59.3779 31.7812 60.1008 31.7812 60.9919Z" fill="#091119"/>
  <path d="M46.5495 65.3478V57.8792C46.5495 53.3628 50.2106 49.7017 54.727 49.7017H57.4534C61.9698 49.7017 65.6309 53.3628 65.6309 57.8792V65.3478H46.5495Z" fill="black"/>
  <path d="M47.1454 60.9913C47.1454 65.9657 51.1788 69.9991 56.1533 69.9991C61.1277 69.9991 65.1611 65.9657 65.1611 60.9913C65.1611 56.0168 61.1277 51.9834 56.1533 51.9834C51.1788 51.9834 47.1454 56.0168 47.1454 60.9913Z" fill="#2A2A2B"/>
  <path d="M49.6108 60.9915C49.6108 64.6058 52.5396 67.5347 56.154 67.5347C59.7684 67.5347 62.6973 64.6043 62.6973 60.9915C62.6973 57.3771 59.7684 54.4482 56.154 54.4482C52.5396 54.4482 49.6108 57.3771 49.6108 60.9915Z" fill="#091119"/>
  <path d="M50.4182 60.9911C50.4182 64.1599 52.9856 66.7274 56.1544 66.7274C59.3232 66.7274 61.8906 64.1584 61.8906 60.9911C61.8906 57.8223 59.3232 55.2549 56.1544 55.2549C52.9856 55.2549 50.4182 57.8239 50.4182 60.9911Z" fill="white"/>
  <path d="M52.1317 60.9913C52.1317 63.2129 53.9326 65.0138 56.1542 65.0138C58.3758 65.0138 60.1768 63.2129 60.1768 60.9913C60.1768 58.7697 58.3758 56.9688 56.1542 56.9688C53.9326 56.9688 52.1317 58.7697 52.1317 60.9913Z" fill="#DCDFE2"/>
  <path d="M52.6373 60.9914C52.6373 62.9341 54.2124 64.5092 56.1551 64.5092C58.0978 64.5092 59.6729 62.9341 59.6729 60.9914C59.6729 59.0487 58.0978 57.4736 56.1551 57.4736C54.2124 57.4736 52.6373 59.0487 52.6373 60.9914Z" fill="white"/>
  <path d="M54.537 60.9914C54.537 61.8841 55.2599 62.607 56.1526 62.607C57.0437 62.607 57.7666 61.8841 57.7666 60.9914C57.7666 60.1003 57.0437 59.3774 56.1526 59.3774C55.2599 59.3774 54.537 60.1003 54.537 60.9914Z" fill="#091119"/>
  <path d="M193.91 27.7079C193.394 27.7079 192.975 27.2894 192.975 26.7731C192.975 26.2569 193.394 25.8384 193.91 25.8384C194.426 25.8384 194.845 26.2569 194.845 26.7731C194.845 27.2894 194.426 27.7079 193.91 27.7079Z" fill="#070F16"/>
  <path d="M193.767 27.1266V26.5596C194.85 26.6172 195.715 27.513 195.715 28.6098V29.5835C196.241 29.786 196.603 30.1724 196.603 30.6211V38.2237C196.603 38.8796 195.842 39.4124 194.903 39.4124C194.693 39.4124 194.493 39.3828 194.306 39.3329V29.5118C194.493 29.462 194.693 29.4324 194.903 29.4324C194.989 29.4324 195.07 29.4417 195.152 29.4495V28.6082C195.152 27.823 194.541 27.1843 193.767 27.1266Z" fill="#0E1823"/>
</svg>