<svg xmlns="http://www.w3.org/2000/svg" width="184" height="56" viewBox="0 0 184 56" fill="none">
  <path d="M9.91602 47.0519H2.44688L0.524662 42.3926H8.51066L9.91602 47.0519Z" fill="#969696"/>
  <path d="M9.65723 46.4592H2.18809L1.15247 43.8711H8.25187L9.65723 46.4592Z" fill="#C4C4C4"/>
  <path d="M178.009 47.4946L164.401 50.4525L162.035 47.7908H9.98968L5.25674 41.8742L22.4134 25.6051L152.274 25.0137L167.952 33.8872L178.009 47.4946Z" fill="#131313"/>
  <path d="M132.502 42.7388C132.502 42.9717 132.502 43.282 132.501 43.6471L57.0491 40.6571C56.7058 36.8363 54.9732 33.404 52.3568 30.7989L136.714 31.5657C134.098 34.5547 132.502 38.4557 132.502 42.7388ZM0.0596311 36.6684L0.965115 30.332L28.2611 30.5801C25.872 32.9098 24.1619 35.9308 23.4696 39.3263L0.325623 38.4095C0.0671889 37.8681 -0.0252561 37.2626 0.0596311 36.6684Z" fill="#540000"/>
  <path d="M55.0471 47.6402H56.9919C57.0231 45.5529 57.0646 43.7788 57.1108 42.7385C57.1419 42.032 57.1108 41.3407 57.0495 40.6568L132.501 43.6468C132.5 44.6418 132.496 46.0717 132.493 47.6742L54.4359 47.7553C54.4368 47.7176 54.4368 47.6798 54.4378 47.6421L55.0471 47.6402ZM23.47 39.326C23.2455 40.4286 23.1267 41.5698 23.1267 42.7385C23.1267 43.5902 23.1229 45.4077 23.1182 47.5374L12.3535 46.6018L4.38641 44.4522C3.52905 44.2212 2.81505 43.6269 2.43306 42.8252L0.325962 38.4102L23.47 39.326Z" fill="#440101"/>
  <path d="M149.494 25.747C144.393 25.747 139.828 28.0059 136.713 31.5665L52.3559 30.7996C49.2245 27.6833 44.8453 25.7479 40.118 25.7479C35.503 25.7479 31.3228 27.5947 28.2612 30.5808L0.965237 30.3328L3.47978 26.4874L11.2922 26.8269C12.3552 26.8731 12.5042 23.2503 13.2154 22.9165L18.1417 20.6056C19.4857 19.9746 19.0264 17.9581 17.5418 17.9732C13.5832 18.0128 9.19364 18.0571 8.95218 18.0571C8.50888 18.0571 4.66254 19.6841 4.66254 19.6841L5.69816 15.2474C5.69816 15.2474 14.5727 13.4723 17.6786 13.4723C20.2403 13.4723 35.9821 7.53584 41.4206 5.4561C42.4741 5.05336 43.0617 3.92719 42.7873 2.83309L42.2119 0.531711C42.1176 0.155378 42.5213 -0.132297 42.8571 0.0629439C46.743 2.32283 53.6189 1.78899 53.6189 1.78899C86.8975 -1.90832 107.16 3.71215 107.16 3.71215C107.456 3.78571 114.762 7.40191 118.771 9.25906C127.344 13.2308 135.262 17.0243 135.262 17.0243C165.287 18.6514 172.534 23.0881 172.534 23.0881C182 27.0816 182.756 36.0919 182.756 36.0919C182.686 35.8589 178.11 33.2906 175.192 32.8228C175.095 32.8068 174.994 32.787 174.901 32.7766C171.056 32.3333 163.66 31.8155 163.66 31.8155L162.656 31.806C159.497 28.104 154.708 25.747 149.494 25.747Z" fill="#700505"/>
  <path d="M89.691 22.2068C89.6542 23.2273 91.0709 24.1073 92.8573 24.1724C94.6437 24.2375 96.1207 23.4631 96.1575 22.4426C96.1943 21.422 94.7767 20.542 92.9912 20.477C91.2057 20.4119 89.7278 21.1862 89.691 22.2068Z" fill="#540000"/>
  <path d="M87.276 21.4151C87.276 21.4151 87.7835 21.1982 88.6635 21.1821C88.6022 21.5179 88.5512 21.8395 88.5512 21.981C88.5512 22.3385 90.9083 22.231 90.9083 22.231C90.9083 22.231 94.4084 22.4092 94.6942 22.4451C94.98 22.4809 95.7298 22.8025 95.7298 22.8025L96.9437 22.7308L97.0277 22.2291C97.0975 22.2734 97.1682 22.3158 97.2305 22.3696L97.1692 23.0336C97.1692 23.0336 95.4243 23.1921 94.7659 22.9827C94.1076 22.7742 91.4921 22.4564 90.7715 22.9487C90.0509 23.4401 87.3449 22.9997 87.3204 22.6658C87.2958 22.3319 87.276 21.4151 87.276 21.4151Z" fill="#ACBEBF"/>
  <path d="M95.7305 22.8031C95.7305 22.8031 94.9807 22.4815 94.6949 22.4456C94.4091 22.4098 90.9089 22.2315 90.9089 22.2315C90.9089 22.2315 88.5519 22.3391 88.5519 21.9816C88.5519 21.8401 88.6028 21.5185 88.6641 21.1827C89.2527 21.1714 90.0044 21.2478 90.8986 21.5477C90.8986 21.5477 94.1818 21.8156 94.7006 21.7967C95.174 21.7797 96.2917 21.7628 97.0293 22.2296L96.9453 22.7314L95.7305 22.8031Z" fill="#DFF3F4"/>
  <path d="M49.2027 20.8743C49.1659 21.8948 50.5835 22.7748 52.369 22.8399C54.1545 22.905 55.6324 22.1306 55.6692 21.1101C55.706 20.0895 54.2884 19.2095 52.5029 19.1444C50.7175 19.0794 49.2395 19.8537 49.2027 20.8743Z" fill="#540000"/>
  <path d="M46.7888 20.0836C46.7888 20.0836 47.2962 19.8666 48.1762 19.8506C48.1149 20.1864 48.064 20.508 48.064 20.6495C48.064 21.0069 50.421 20.8994 50.421 20.8994C50.421 20.8994 53.9212 21.0777 54.207 21.1135C54.4927 21.1494 55.2426 21.471 55.2426 21.471L56.4574 21.3993L56.5414 20.8975C56.6112 20.9419 56.6828 20.9843 56.7441 21.0381L56.6828 21.7021C56.6828 21.7021 54.9379 21.8605 54.2796 21.6521C53.6212 21.4427 51.0058 21.1258 50.2852 21.6181C49.5646 22.1095 46.8586 21.6691 46.834 21.3352C46.8095 21.0003 46.7888 20.0836 46.7888 20.0836Z" fill="#ACBEBF"/>
  <path d="M55.2442 21.4711C55.2442 21.4711 54.4944 21.1494 54.2086 21.1136C53.9228 21.0778 50.4226 20.8995 50.4226 20.8995C50.4226 20.8995 48.0656 21.007 48.0656 20.6496C48.0656 20.5081 48.1165 20.1864 48.1778 19.8507C48.7664 19.8394 49.5181 19.9158 50.4122 20.2157C50.4122 20.2157 53.6955 20.4836 54.2142 20.4647C54.6877 20.4477 55.8054 20.4307 56.543 20.8976L56.459 21.3994L55.2442 21.4711Z" fill="#DFF3F4"/>
  <path d="M23.1187 47.5376C23.1234 45.4088 23.1272 43.5903 23.1272 42.7386C23.1272 41.57 23.246 40.4288 23.4705 39.3262C24.1628 35.9307 25.8738 32.9096 28.2619 30.5799C31.3245 27.5938 35.5038 25.747 40.1188 25.747C44.8461 25.747 49.2243 27.6825 52.3567 30.7988C54.974 33.4029 56.7067 36.8361 57.0491 40.657C57.1104 41.3408 57.1415 42.0322 57.1104 42.7386C57.0642 43.779 57.0227 45.5531 56.9915 47.6404H55.0467L54.4374 47.6413C54.4647 45.7172 54.5015 44.0666 54.5439 43.1253C54.5826 42.2453 54.5204 41.388 54.393 40.5514C53.7564 36.3881 51.156 32.853 47.5851 30.7554C45.3837 29.4623 42.8239 28.7049 40.1235 28.7049C37.5127 28.7049 35.0708 29.4095 32.9581 30.6224C29.6607 32.5163 27.1933 35.6722 26.1973 39.4346C25.8851 40.6146 25.7021 41.8473 25.7021 43.1253C25.7021 43.911 25.6983 45.6616 25.6946 47.6706C25.6946 47.7007 25.6946 47.7309 25.6946 47.7611L24.6693 47.6715L23.1187 47.6734C23.1187 47.6272 23.1187 47.5838 23.1187 47.5376ZM132.502 42.7386C132.502 38.4556 134.099 34.5546 136.714 31.5656C139.828 28.006 144.393 25.7461 149.495 25.7461C154.709 25.7461 159.498 28.1031 162.658 31.8014C162.791 31.957 162.915 32.1202 163.042 32.2805C165.33 35.1667 166.663 38.7923 166.488 42.7386C166.441 43.779 166.4 45.5531 166.369 47.6404H164.424L163.815 47.6413C163.829 46.6265 163.846 45.687 163.865 44.8891C163.882 44.1742 163.901 43.5705 163.921 43.1253C164.126 38.5084 161.91 34.4036 158.465 31.7637C155.973 29.8537 152.842 28.7049 149.5 28.7049C146.251 28.7049 143.265 29.7914 140.854 31.6033C137.353 34.2348 135.079 38.4084 135.079 43.1253C135.079 43.2913 135.079 43.5036 135.078 43.7488C135.077 44.6646 135.074 46.086 135.071 47.6715L132.494 47.6743C132.498 46.0719 132.501 44.642 132.502 43.6469C132.502 43.2819 132.502 42.9725 132.502 42.7386Z" fill="#5E0000"/>
  <path d="M118.848 16.7311C125.69 17.1499 129.364 15.9879 131.151 15.0682C133.672 16.2642 135.265 17.0273 135.265 17.0273C136.348 17.0857 137.393 17.1489 138.417 17.2149C133.281 18.3524 130.273 19.6154 130.273 19.6154L40.4213 15.9548L5.70057 15.2522C5.70057 15.2522 9.52899 14.4863 13.0367 13.9609C43.4216 14.6532 110.475 16.2189 118.848 16.7311Z" fill="#5E0000"/>
  <path d="M17.5432 17.9786C19.0278 17.9635 19.4871 19.981 18.1431 20.611L13.2168 22.9219C12.5047 23.2558 12.3566 26.8786 11.2936 26.8323L3.48116 26.4928L4.66487 19.6896C4.66487 19.6896 8.51026 18.0625 8.9545 18.0625C9.19502 18.0616 13.5846 18.0182 17.5432 17.9786Z" fill="#5E0000"/>
  <path d="M8.3087 23.4702C8.7803 22.4997 10.943 21.5018 10.943 21.5018C14.3102 20.8482 17.5755 20.4756 18.5791 19.5513C18.531 19.9568 18.265 20.3671 17.7378 20.6143L12.6625 22.9996C11.9504 23.3335 11.9504 26.596 10.8874 26.5488L3.48334 26.4932L3.81817 24.57C5.79038 24.819 7.93426 24.2408 8.3087 23.4702Z" fill="#930606"/>
  <path d="M8.70403 18.3961C8.94549 18.3961 13.3351 18.3527 17.2937 18.3121C18.1954 18.3027 18.6528 18.9224 18.5792 19.5505C18.533 20.4654 14.9649 21.8057 12.1637 21.7783C12.1637 21.7783 9.91698 21.9443 8.97473 24.025C8.62103 24.805 5.79145 24.8192 3.81829 24.5702L4.66717 19.6901C4.66529 19.6892 8.25979 18.3961 8.70403 18.3961Z" fill="#BA0000"/>
  <path d="M40.1251 34.5723C44.8524 34.5723 48.6855 38.4045 48.6855 43.1327C48.6855 47.8599 44.8534 51.6931 40.1251 51.6931C35.3979 51.6931 31.5648 47.8609 31.5648 43.1327C31.5657 38.4045 35.3979 34.5723 40.1251 34.5723ZM40.1251 51.2234C44.594 51.2234 48.2168 47.6006 48.2168 43.1317C48.2168 38.6629 44.594 35.0401 40.1251 35.0401C35.6563 35.0401 32.0335 38.6629 32.0335 43.1317C32.0335 47.6006 35.6563 51.2234 40.1251 51.2234Z" fill="#C4C4C4"/>
  <path d="M40.126 36.9204C43.5574 36.9204 46.3379 39.7019 46.3379 43.1323C46.3379 46.5627 43.5564 49.3441 40.126 49.3441C36.6957 49.3441 33.9142 46.5627 33.9142 43.1323C33.9142 39.7019 36.6957 36.9204 40.126 36.9204Z" fill="#660202"/>
  <path d="M40.1256 37.5117C43.2297 37.5117 45.7461 40.0282 45.7461 43.1322C45.7461 46.2362 43.2297 48.7527 40.1256 48.7527C37.0216 48.7527 34.5051 46.2362 34.5051 43.1322C34.5051 40.0282 37.0216 37.5117 40.1256 37.5117Z" fill="#590000"/>
  <path d="M40.125 33.4443C45.4757 33.4443 49.8125 37.7821 49.8125 43.1319C49.8125 48.4826 45.4748 52.8194 40.125 52.8194C34.7743 52.8194 30.4375 48.4826 30.4375 43.1319C30.4375 37.7821 34.7752 33.4443 40.125 33.4443ZM32.8728 38.6998L36.7097 41.6161L39.5204 34.6554C36.7031 34.8535 34.2696 36.4201 32.8728 38.6998ZM41.9651 34.8289L40.5815 39.6062L48.0318 40.0014C47.0027 37.4076 44.741 35.442 41.9651 34.8289ZM48.6335 43.1319C48.6335 42.8197 48.6146 42.5131 48.5816 42.2094L43.7063 42.4886L45.3521 49.8351C47.3461 48.2788 48.6335 45.8577 48.6335 43.1319ZM43.5403 50.9217L41.9548 46.3491L35.2817 50.1218C36.6569 51.0764 38.3244 51.6394 40.125 51.6394C41.3407 51.6404 42.4943 51.381 43.5403 50.9217ZM33.6688 48.6637L37.7425 45.8775L37.7312 45.8633L31.9334 40.8588C31.7325 41.5831 31.6165 42.3433 31.6165 43.1319C31.6174 45.2455 32.3927 47.1753 33.6688 48.6637Z" fill="#969696"/>
  <path d="M31.5429 43.465C31.5429 42.6765 31.6589 41.9163 31.8598 41.1919L31.8636 41.1947C31.7155 41.8191 31.6174 42.4624 31.6174 43.132C31.6174 45.2457 32.3927 47.1755 33.6688 48.6639L37.4888 46.0512L37.6567 46.1965L37.668 46.2106L33.5943 48.9978C32.3191 47.5085 31.5429 45.5787 31.5429 43.465Z" fill="url(#paint0_radial_903_33186)"/>
  <path d="M49.7389 43.4653C49.7389 38.1146 45.4012 33.7778 40.0514 33.7778C35.4496 33.7778 31.6051 36.9893 30.6176 41.2912C31.4778 36.8224 35.4052 33.4448 40.125 33.4448C45.4757 33.4448 49.8125 37.7826 49.8125 43.1323C49.8125 43.8812 49.7191 44.6065 49.5588 45.3064C49.6738 44.7103 49.7389 44.0953 49.7389 43.4653Z" fill="url(#paint1_radial_903_33186)"/>
  <path d="M35.2072 50.4556L35.5223 50.2773C36.8503 51.1356 38.4263 51.6403 40.125 51.6403C41.2776 51.6403 42.3708 51.4007 43.3724 50.9857L43.4658 51.2545C42.4198 51.7138 41.2663 51.9732 40.0505 51.9732C38.25 51.9732 36.5824 51.4101 35.2072 50.4556Z" fill="url(#paint2_radial_903_33186)"/>
  <path d="M36.7101 41.6156L39.3831 34.9953C39.4048 34.9934 39.4256 34.9887 39.4473 34.9868L36.6366 41.9476L32.7997 39.0312C32.8534 38.9426 32.9194 38.8633 32.977 38.7766L36.7101 41.6156Z" fill="url(#paint3_radial_903_33186)"/>
  <path d="M47.7948 39.9909C47.8467 40.1069 47.9099 40.2172 47.957 40.3361L40.5068 39.9409L40.603 39.6089L47.7948 39.9909Z" fill="url(#paint4_radial_903_33186)"/>
  <path d="M45.2772 50.169L43.6314 42.8225L43.7785 42.814L45.3517 49.836C46.8156 48.6929 47.8927 47.0829 48.3652 45.2304C47.9417 47.2224 46.8278 48.9589 45.2772 50.169Z" fill="url(#paint5_radial_903_33186)"/>
  <path d="M40.1246 40.2715C41.7045 40.2715 42.9854 41.5523 42.9854 43.1322C42.9854 44.712 41.7045 45.9929 40.1246 45.9929C38.5448 45.9929 37.264 44.712 37.264 43.1322C37.264 41.5523 38.5448 40.2715 40.1246 40.2715Z" fill="#303030"/>
  <path d="M40.1258 40.5161C41.5707 40.5161 42.7422 41.6876 42.7422 43.1325C42.7422 44.5775 41.5707 45.7489 40.1258 45.7489C38.6808 45.7489 37.5094 44.5775 37.5094 43.1325C37.5094 41.6876 38.6808 40.5161 40.1258 40.5161Z" fill="#C4C4C4"/>
  <path d="M40.1251 40.8389C41.3918 40.8389 42.418 41.8651 42.418 43.1318C42.418 44.3985 41.3918 45.4247 40.1251 45.4247C38.8584 45.4247 37.8322 44.3985 37.8322 43.1318C37.8322 41.8651 38.8593 40.8389 40.1251 40.8389Z" fill="#969696"/>
  <path d="M38.9324 39.0654C39.2332 39.0654 39.4775 39.3097 39.4775 39.6106C39.4775 39.9115 39.2332 40.1558 38.9324 40.1558C38.6315 40.1558 38.3872 39.9115 38.3872 39.6106C38.3872 39.3097 38.6315 39.0654 38.9324 39.0654Z" fill="#C4C4C4"/>
  <path d="M38.9333 39.2036C39.1578 39.2036 39.3398 39.3856 39.3398 39.6101C39.3398 39.8346 39.1578 40.0166 38.9333 40.0166C38.7088 40.0166 38.5268 39.8346 38.5268 39.6101C38.5268 39.3856 38.7088 39.2036 38.9333 39.2036Z" fill="#303030"/>
  <path d="M38.9323 39.3423C39.0804 39.3423 39.2002 39.4621 39.2002 39.6102C39.2002 39.7582 39.0804 39.878 38.9323 39.878C38.7843 39.878 38.6645 39.7582 38.6645 39.6102C38.6645 39.4621 38.7843 39.3423 38.9323 39.3423Z" fill="#969696"/>
  <path d="M40.1251 33.001C45.721 33.001 50.2568 37.5368 50.2568 43.1327C50.2568 48.7277 45.721 53.2645 40.1251 53.2645C34.5301 53.2645 29.9933 48.7287 29.9933 43.1327C29.9943 37.5368 34.5301 33.001 40.1251 33.001ZM40.1251 52.709C45.4145 52.709 49.7022 48.4212 49.7022 43.1318C49.7022 37.8424 45.4145 33.5546 40.1251 33.5546C34.8357 33.5546 30.5479 37.8424 30.5479 43.1318C30.5489 48.4212 34.8357 52.709 40.1251 52.709Z" fill="#C4C4C4"/>
  <path d="M40.1252 30.2642C47.2321 30.2642 52.9932 36.0252 52.9932 43.1321C52.9932 50.2391 47.2321 56.0001 40.1252 56.0001C33.0183 56.0001 27.2573 50.2391 27.2573 43.1321C27.2573 36.0261 33.0192 30.2642 40.1252 30.2642ZM40.1252 53.2639C45.7212 53.2639 50.257 48.7281 50.257 43.1321C50.257 37.5371 45.7212 33.0004 40.1252 33.0004C34.5302 33.0004 29.9935 37.5362 29.9935 43.1321C29.9944 48.7281 34.5302 53.2639 40.1252 53.2639Z" fill="#090000"/>
  <path d="M40.1258 30.9116C46.8752 30.9116 52.3467 36.3831 52.3467 43.1325C52.3467 49.882 46.8752 55.3535 40.1258 55.3535C33.3763 55.3535 27.9048 49.882 27.9048 43.1325C27.9058 36.3831 33.3763 30.9116 40.1258 30.9116ZM40.1258 53.9783C46.116 53.9783 50.9715 49.1228 50.9715 43.1325C50.9715 37.1433 46.116 32.2868 40.1258 32.2868C34.1365 32.2868 29.2809 37.1423 29.2809 43.1325C29.2809 49.1228 34.1365 53.9783 40.1258 53.9783Z" fill="#191919"/>
  <path d="M40.1257 31.3828C46.6148 31.3828 51.875 36.643 51.875 43.1321C51.875 49.6213 46.6148 54.8815 40.1257 54.8815C33.6365 54.8815 28.3763 49.6213 28.3763 43.1321C28.3763 36.643 33.6365 31.3828 40.1257 31.3828ZM40.1257 54.4306C46.3658 54.4306 51.4242 49.3723 51.4242 43.1321C51.4242 36.892 46.3658 31.8346 40.1257 31.8346C33.8865 31.8346 28.8272 36.8929 28.8272 43.1321C28.8281 49.3723 33.8865 54.4306 40.1257 54.4306Z" fill="#303030"/>
  <path d="M172.685 28.1202C172.685 28.1202 171.502 23.2392 157.599 21.1689C145.138 19.3136 138.992 19.1146 137.846 17.1782C165.705 18.9118 172.537 23.092 172.537 23.092C175.904 24.5125 178.165 26.5677 179.687 28.6267L172.685 28.1202Z" fill="#7F0303"/>
  <path d="M107.492 3.84619C116.363 7.35958 135.266 17.0273 135.266 17.0273C135.266 17.0273 132.826 16.9528 107.492 3.84619Z" fill="#ACBEBF"/>
  <path d="M175.195 32.8247C178.113 33.2935 182.689 35.8608 182.759 36.0938C183.273 37.8161 183.506 39.2959 183.585 40.5306C182.323 40.0892 179.551 39.1856 176.013 38.4348C176.013 38.4348 175.793 34.8658 175.195 32.8247Z" fill="#7F0303"/>
  <path d="M166.489 42.7451C166.664 38.7988 165.331 35.1732 163.043 32.287L162.659 31.8013L163.663 31.8173C163.663 31.8173 171.058 32.3351 174.904 32.7784C174.997 32.7897 175.098 32.8095 175.195 32.8246C175.792 34.8648 176.013 38.4357 176.013 38.4357L167.878 45.054C167.878 45.054 165.77 45.8671 167.323 46.2C168.877 46.533 182.928 47.4573 184 47.1243C182.448 49.2692 164.425 47.6459 164.425 47.6459H166.37C166.401 45.5596 166.442 43.7855 166.489 42.7451Z" fill="#540000"/>
  <path d="M183.585 40.5318C183.768 43.3888 183.112 44.9073 183.112 44.9073C183.112 44.9073 174.312 44.5008 167.878 45.0554L176.013 38.437C179.551 39.1868 182.323 40.0904 183.585 40.5318Z" fill="#5E0000"/>
  <path d="M167.323 46.2009C165.771 45.868 167.878 45.0549 167.878 45.0549C174.312 44.5003 183.112 44.9069 183.112 44.9069L184 47.1252C182.928 47.4582 168.877 46.5339 167.323 46.2009Z" fill="#7F0303"/>
  <path d="M149.502 34.5723C154.229 34.5723 158.062 38.4045 158.062 43.1327C158.062 47.8599 154.23 51.6931 149.502 51.6931C144.775 51.6931 140.942 47.8609 140.942 43.1327C140.943 38.4045 144.775 34.5723 149.502 34.5723ZM149.502 51.2234C153.971 51.2234 157.594 47.6006 157.594 43.1317C157.594 38.6629 153.971 35.0401 149.502 35.0401C145.033 35.0401 141.41 38.6629 141.41 43.1317C141.411 47.6006 145.034 51.2234 149.502 51.2234Z" fill="#C4C4C4"/>
  <path d="M149.502 36.9204C152.933 36.9204 155.714 39.7019 155.714 43.1323C155.714 46.5627 152.932 49.3441 149.502 49.3441C146.072 49.3441 143.29 46.5627 143.29 43.1323C143.29 39.7019 146.072 36.9204 149.502 36.9204Z" fill="#660202"/>
  <path d="M149.503 37.5117C152.607 37.5117 155.123 40.0282 155.123 43.1322C155.123 46.2362 152.607 48.7527 149.503 48.7527C146.399 48.7527 143.882 46.2362 143.882 43.1322C143.882 40.0282 146.399 37.5117 149.503 37.5117Z" fill="#590000"/>
  <path d="M149.502 33.4443C154.853 33.4443 159.189 37.7821 159.189 43.1319C159.189 48.4826 154.852 52.8194 149.502 52.8194C144.151 52.8194 139.814 48.4826 139.814 43.1319C139.814 37.7821 144.152 33.4443 149.502 33.4443ZM142.251 38.6998L146.088 41.6161L148.898 34.6554C146.08 34.8535 143.647 36.4201 142.251 38.6998ZM151.342 34.8289L149.958 39.6062L157.409 40.0014C156.381 37.4076 154.118 35.442 151.342 34.8289ZM158.01 43.1319C158.01 42.8197 157.992 42.5131 157.959 42.2094L153.083 42.4886L154.729 49.8351C156.723 48.2788 158.01 45.8577 158.01 43.1319ZM152.917 50.9217L151.332 46.3491L144.659 50.1218C146.034 51.0764 147.701 51.6394 149.502 51.6394C150.718 51.6404 151.871 51.381 152.917 50.9217ZM143.046 48.6637L147.119 45.8775L147.108 45.8633L141.311 40.8588C141.11 41.5831 140.994 42.3433 140.994 43.1319C140.994 45.2455 141.77 47.1753 143.046 48.6637Z" fill="#969696"/>
  <path d="M140.922 43.465C140.922 42.6765 141.038 41.9163 141.238 41.1919L141.242 41.1947C141.093 41.8191 140.995 42.4624 140.995 43.132C140.995 45.2457 141.771 47.1755 143.047 48.6639L146.867 46.0512L147.036 46.1965L147.047 46.2106L142.973 48.9978C141.697 47.5085 140.922 45.5787 140.922 43.465Z" fill="url(#paint6_radial_903_33186)"/>
  <path d="M159.117 43.4648C159.117 38.1141 154.779 33.7773 149.429 33.7773C144.828 33.7773 140.983 36.9888 139.996 41.2907C140.856 36.8219 144.783 33.4443 149.503 33.4443C154.854 33.4443 159.19 37.7821 159.19 43.1319C159.19 43.8807 159.097 44.6061 158.937 45.3059C159.052 44.7098 159.117 44.0948 159.117 43.4648Z" fill="url(#paint7_radial_903_33186)"/>
  <path d="M144.587 50.4551L144.902 50.2769C146.23 51.1352 147.806 51.6398 149.505 51.6398C150.658 51.6398 151.751 51.4002 152.752 50.9852L152.846 51.254C151.8 51.7133 150.646 51.9727 149.43 51.9727C147.63 51.9727 145.962 51.4096 144.587 50.4551Z" fill="url(#paint8_radial_903_33186)"/>
  <path d="M146.088 41.6151L148.761 34.9948C148.783 34.9929 148.804 34.9882 148.825 34.9863L146.014 41.9471L142.178 39.0307C142.231 38.9421 142.297 38.8628 142.355 38.7761L146.088 41.6151Z" fill="url(#paint9_radial_903_33186)"/>
  <path d="M157.173 39.9904C157.225 40.1064 157.288 40.2168 157.335 40.3356L149.885 39.9404L149.981 39.6084L157.173 39.9904Z" fill="url(#paint10_radial_903_33186)"/>
  <path d="M154.655 50.168L153.009 42.8215L153.155 42.813L154.729 49.8351C156.193 48.6919 157.27 47.0819 157.742 45.2294C157.32 47.2215 156.206 48.9579 154.655 50.168Z" fill="url(#paint11_radial_903_33186)"/>
  <path d="M149.502 40.2715C151.081 40.2715 152.362 41.5523 152.362 43.1322C152.362 44.712 151.081 45.9929 149.502 45.9929C147.922 45.9929 146.641 44.712 146.641 43.1322C146.641 41.5523 147.922 40.2715 149.502 40.2715Z" fill="#303030"/>
  <path d="M149.503 40.5161C150.948 40.5161 152.119 41.6876 152.119 43.1325C152.119 44.5775 150.948 45.7489 149.503 45.7489C148.058 45.7489 146.886 44.5775 146.886 43.1325C146.887 41.6876 148.059 40.5161 149.503 40.5161Z" fill="#C4C4C4"/>
  <path d="M149.502 40.8389C150.769 40.8389 151.795 41.8651 151.795 43.1318C151.795 44.3985 150.769 45.4247 149.502 45.4247C148.235 45.4247 147.209 44.3985 147.209 43.1318C147.209 41.8651 148.236 40.8389 149.502 40.8389Z" fill="#969696"/>
  <path d="M148.309 39.0654C148.61 39.0654 148.854 39.3097 148.854 39.6106C148.854 39.9115 148.61 40.1558 148.309 40.1558C148.008 40.1558 147.764 39.9115 147.764 39.6106C147.764 39.3097 148.008 39.0654 148.309 39.0654Z" fill="#C4C4C4"/>
  <path d="M148.309 39.2036C148.534 39.2036 148.716 39.3856 148.716 39.6101C148.716 39.8346 148.534 40.0166 148.309 40.0166C148.085 40.0166 147.903 39.8346 147.903 39.6101C147.903 39.3856 148.085 39.2036 148.309 39.2036Z" fill="#303030"/>
  <path d="M148.309 39.3423C148.457 39.3423 148.577 39.4621 148.577 39.6102C148.577 39.7582 148.457 39.878 148.309 39.878C148.161 39.878 148.041 39.7582 148.041 39.6102C148.041 39.4621 148.161 39.3423 148.309 39.3423Z" fill="#969696"/>
  <path d="M149.502 33.001C155.097 33.001 159.634 37.5368 159.634 43.1327C159.634 48.7277 155.098 53.2645 149.502 53.2645C143.907 53.2645 139.37 48.7287 139.37 43.1327C139.371 37.5368 143.907 33.001 149.502 33.001ZM149.502 52.709C154.791 52.709 159.079 48.4212 159.079 43.1318C159.079 37.8424 154.791 33.5546 149.502 33.5546C144.213 33.5546 139.925 37.8424 139.925 43.1318C139.926 48.4212 144.214 52.709 149.502 52.709Z" fill="#C4C4C4"/>
  <path d="M149.502 30.2642C156.609 30.2642 162.37 36.0252 162.37 43.1321C162.37 50.2391 156.609 56.0001 149.502 56.0001C142.395 56.0001 136.634 50.2391 136.634 43.1321C136.635 36.0261 142.396 30.2642 149.502 30.2642ZM149.502 53.2639C155.097 53.2639 159.634 48.7281 159.634 43.1321C159.634 37.5371 155.098 33.0004 149.502 33.0004C143.907 33.0004 139.37 37.5362 139.37 43.1321C139.371 48.7281 143.907 53.2639 149.502 53.2639Z" fill="#090000"/>
  <path d="M149.503 30.9116C156.252 30.9116 161.724 36.3831 161.724 43.1325C161.724 49.882 156.252 55.3535 149.503 55.3535C142.753 55.3535 137.282 49.882 137.282 43.1325C137.283 36.3831 142.754 30.9116 149.503 30.9116ZM149.503 53.9783C155.492 53.9783 160.348 49.1228 160.348 43.1325C160.348 37.1433 155.493 32.2868 149.503 32.2868C143.513 32.2868 138.658 37.1423 138.658 43.1325C138.658 49.1228 143.513 53.9783 149.503 53.9783Z" fill="#191919"/>
  <path d="M149.503 31.3828C155.992 31.3828 161.252 36.643 161.252 43.1321C161.252 49.6213 155.992 54.8815 149.503 54.8815C143.013 54.8815 137.753 49.6213 137.753 43.1321C137.754 36.643 143.014 31.3828 149.503 31.3828ZM149.503 54.4306C155.743 54.4306 160.801 49.3723 160.801 43.1321C160.801 36.892 155.743 31.8346 149.503 31.8346C143.262 31.8346 138.205 36.8929 138.205 43.1321C138.205 49.3723 143.263 54.4306 149.503 54.4306Z" fill="#303030"/>
  <path d="M176.969 39.1307C176.553 39.6504 174.421 44.4333 174.421 44.4333L178.857 44.5371L181.022 40.0663C181.022 40.0663 177.385 38.611 176.969 39.1307Z" fill="#090000"/>
  <path d="M179.833 41.8924C179.001 41.6915 177.454 41.3217 176.369 41.0878C176.436 40.9482 176.501 40.8143 176.564 40.686L179.716 41.5292L179.833 41.8924Z" fill="#303030"/>
  <path d="M179.552 42.4722C178.686 42.3091 177.098 42.0157 176.012 41.8413C176.082 41.6922 176.152 41.5441 176.221 41.3979L179.509 42.1742L179.552 42.4722Z" fill="#303030"/>
  <path d="M179.258 43.0781C178.362 42.9441 176.746 42.7074 175.67 42.5763C175.734 42.4376 175.8 42.2962 175.867 42.1519L179.204 42.7612L179.258 43.0781Z" fill="#303030"/>
  <path d="M178.965 43.6787C178.039 43.5825 176.389 43.4156 175.321 43.3354C175.384 43.1967 175.451 43.0505 175.524 42.8921L178.93 43.3835L178.965 43.6787Z" fill="#303030"/>
  <path d="M175.149 43.7319L178.594 43.997L178.659 44.3045L174.92 44.2158C174.92 44.2158 174.995 44.0715 175.149 43.7319Z" fill="#303030"/>
  <path d="M180.132 41.2804C179.336 41.0625 177.812 40.6503 176.717 40.3787C176.783 40.2485 176.843 40.1315 176.899 40.0269L180.041 40.8672L180.132 41.2804Z" fill="#303030"/>
  <path d="M180.453 40.6192C179.697 40.4126 178.183 40.0014 177.067 39.7231C177.099 39.6694 177.127 39.6269 177.149 39.5996C177.446 39.2242 179.584 40.0268 180.31 40.3136L180.453 40.6192Z" fill="#303030"/>
  <path d="M162.073 24.5333C161.815 23.4977 162.591 23.8674 167.693 25.0143C171.51 25.8717 175.759 26.232 177.66 26.3593C179.667 28.2183 180.893 30.2896 181.636 32.043C181.565 32.9635 181.319 33.7681 180.672 33.8143C179.118 33.9256 166.51 27.8241 164.55 26.9365C162.591 26.049 162.332 25.5689 162.073 24.5333Z" fill="#ACBEBF"/>
  <path d="M167.694 25.0146C171.51 25.8719 175.759 26.2322 177.66 26.3596C178.191 26.8519 178.649 27.3594 179.075 27.8715C178.51 27.8055 177.937 27.7347 177.357 27.6593C175.45 27.4112 173.633 27.1302 171.943 26.834L171.761 25.9757L164.55 24.5703C164.55 24.5703 164.573 24.8439 164.611 25.1957C164.047 25.0278 163.542 24.8618 163.114 24.6996C163.032 24.4855 162.978 24.2487 162.922 23.9639C163.733 24.078 165.191 24.4515 167.694 25.0146Z" fill="#C2D3D3"/>
  <path d="M83.6836 17.0643L80.6795 2.30713C90.0765 2.42597 96.6619 3.42009 96.6619 3.42009C112.524 6.19308 130.273 19.6156 130.273 19.6156L83.8203 17.7226C83.7364 17.3105 83.6836 17.0643 83.6836 17.0643Z" fill="#303030"/>
  <path d="M44.7141 16.1288L40.4216 15.9544L37.3242 12.9918C36.4046 12.1118 36.7338 10.5716 37.9335 10.1452L50.627 5.63867L45.1913 15.7336C45.1913 15.7336 44.9829 15.8798 44.7141 16.1288Z" fill="#303030"/>
  <path d="M46.0586 9.42822C46.0586 9.42822 41.752 10.444 41.752 10.9986C41.752 11.5532 43.9138 14.0866 43.9138 14.0866L46.0586 9.42822Z" fill="#424242"/>
  <path d="M80.6805 2.30688L83.6846 17.064C83.6846 17.064 83.7383 17.3112 83.8223 17.7233L44.7157 16.1303C44.9845 15.8813 45.1929 15.7332 45.1929 15.7332L50.6286 5.63823C61.0819 2.82563 72.0626 2.19841 80.6805 2.30688Z" fill="#303030"/>
  <path d="M82.6284 2.69922L85.291 17.3979L82.3511 17.231L78.9679 2.75487L82.6284 2.69922Z" fill="#131313"/>
  <path d="M52.2715 5.80469L46.9472 15.9364L44.0073 15.7704L48.0564 6.98839L52.2715 5.80469Z" fill="#131313"/>
  <path d="M55.6464 15.8196L58.1458 11.1782C59.1673 9.28143 60.9499 7.88645 63.0561 7.43183C68.736 6.20474 74.5668 5.78691 79.6289 5.73975L82.3151 16.9543L86.3821 17.1759L84.2769 5.79445C90.1851 5.99158 94.2153 6.59333 94.2153 6.59333C106.101 8.67118 119.401 18.7294 119.401 18.7294L84.5929 17.3108L55.2889 16.1167C55.4908 15.93 55.6464 15.8196 55.6464 15.8196Z" fill="#ACBEBF"/>
  <path d="M108.596 11.9624C102.908 12.8103 96.4361 13.2923 89.5621 13.2923C88.2435 13.2923 86.941 13.2725 85.6535 13.2385L84.2765 5.79297C90.1846 5.9901 94.2149 6.59185 94.2149 6.59185C99.1129 7.44827 104.248 9.65911 108.596 11.9624Z" fill="#DFF3F4"/>
  <path d="M63.0556 7.43036C68.7355 6.20327 74.5663 5.78544 79.6285 5.73828L81.3818 13.0603C72.7413 12.5642 65.091 11.2965 59.3602 9.52331C60.3553 8.48674 61.6277 7.73879 63.0556 7.43036Z" fill="#DFF3F4"/>
  <path d="M117.147 16.0654L115.003 18.6545L120.623 18.7281L117.147 16.0654Z" fill="#303030"/>
  <path d="M113.081 18.5064L114.116 16.1399C114.116 16.1399 114.043 15.2524 112.785 15.4005L111.528 18.4328L113.081 18.5064Z" fill="#303030"/>
  <path d="M86.3828 17.1754L85.2868 11.2494C86.5705 11.006 87.5062 11.4559 88.3796 12.2199C89.5463 13.2414 88.3173 17.3245 88.239 17.4584L86.3828 17.1754Z" fill="#303030"/>
  <path d="M78.8582 3.18247C68.4614 3.18247 59.0521 4.29354 50.8907 6.48552L40.5477 10.1583C39.9186 10.3818 39.7064 11.1647 40.1365 11.675L42.8123 14.8526C42.9849 15.0582 43.2367 15.1808 43.5046 15.1921L44.7496 15.2431L83.8562 16.8361L127.327 18.6074C121.97 14.9205 108.6 6.40818 96.5289 4.29732C96.4638 4.28789 89.886 3.31074 80.6673 3.19473C80.0749 3.18624 79.4722 3.18247 78.8582 3.18247ZM78.8582 2.29492C79.476 2.29492 80.0825 2.2987 80.6795 2.30624C90.0765 2.42508 96.6619 3.41921 96.6619 3.41921C112.524 6.19219 130.273 19.6147 130.273 19.6147L83.8203 17.7218L44.7138 16.1287L40.4213 15.9542L37.3238 12.9917C36.4042 12.1117 36.7334 10.5714 37.9332 10.1451L50.6266 5.63853C60.3575 3.01929 70.5449 2.29492 78.8582 2.29492Z" fill="url(#paint12_radial_903_33186)"/>
  <path d="M78.8582 3.18247C68.4614 3.18247 59.0521 4.29354 50.8907 6.48552L40.5477 10.1583C39.9186 10.3818 39.7064 11.1647 40.1365 11.675L42.8123 14.8526C42.9849 15.0582 43.2367 15.1808 43.5046 15.1921L44.7496 15.2431L83.8562 16.8361L127.327 18.6074C121.97 14.9205 108.6 6.40818 96.5289 4.29732C96.4638 4.28789 89.886 3.31074 80.6673 3.19473C80.0749 3.18624 79.4722 3.18247 78.8582 3.18247ZM78.8582 2.29492C79.476 2.29492 80.0825 2.2987 80.6795 2.30624C90.0765 2.42508 96.6619 3.41921 96.6619 3.41921C112.524 6.19219 130.273 19.6147 130.273 19.6147L83.8203 17.7218L44.7138 16.1287L40.4213 15.9542L37.3238 12.9917C36.4042 12.1117 36.7334 10.5714 37.9332 10.1451L50.6266 5.63853C60.3575 3.01929 70.5449 2.29492 78.8582 2.29492Z" fill="url(#paint13_radial_903_33186)"/>
  <path d="M172.685 30.3383C172.685 30.3383 165.067 27.0475 164.882 26.7145C164.826 26.6127 164.774 26.3674 164.728 26.0845C165.997 26.6938 168.264 27.5059 172.404 29.0103L172.685 30.3383Z" fill="#FF6631"/>
  <path d="M171.761 25.9752L172.404 29.0104C168.265 27.506 165.998 26.6939 164.729 26.0846C164.623 25.4395 164.551 24.5708 164.551 24.5708L171.761 25.9752Z" fill="#FF882E"/>
  <path d="M164.73 26.0848C163.68 25.5802 163.311 25.2095 163.117 24.6992C163.545 24.8614 164.05 25.0275 164.614 25.1953C164.644 25.4736 164.683 25.799 164.73 26.0848Z" fill="#DFF3F4"/>
  <path d="M179.076 27.871C179.963 28.934 180.653 30.0177 181.166 31.0364C179.468 31.1014 177.123 30.7289 173.869 29.5433C173.355 29.3556 172.872 29.1802 172.405 29.0104L171.943 26.8335C173.634 27.1306 175.45 27.4107 177.357 27.6588C177.938 27.7342 178.511 27.805 179.076 27.871Z" fill="#DFF3F4"/>
  <path d="M167.693 25.0141C171.509 25.8715 175.758 26.2318 177.66 26.3591C177.86 26.5449 178.047 26.7336 178.231 26.9222C177.151 27.091 175.886 27.1495 174.386 27.0099C174.386 27.0099 174.46 30.1904 177.64 32.2607C177.64 32.2607 174.164 31.077 172.685 26.6402C172.685 26.6402 165.347 25.2556 162.244 23.9531C162.74 23.8097 164.205 24.2303 167.693 25.0141Z" fill="url(#paint14_radial_903_33186)"/>
  <path d="M4.51708 20.5492C6.1771 20.1984 8.65109 19.2797 8.80766 19.2269C8.93593 19.1844 11.3326 19.2636 13.019 19.2165C14.248 19.1825 12.621 20.7529 11.1364 20.835C8.14083 21.001 8.65863 22.5724 7.91917 23.1647C7.43437 23.5523 5.34237 23.7447 4.037 23.3307L4.51708 20.5492Z" fill="#ACBEBF"/>
  <path opacity="0.3" d="M3.4833 26.4934L4.667 19.6902C4.667 19.6902 7.36735 18.548 8.50107 18.1792L8.53125 18.3961C8.53125 18.3961 7.29379 21.4653 8.20868 26.699L3.4833 26.4934Z" fill="#5E0000"/>
  <g opacity="0.3">
    <path d="M12.9112 14.9562C9.44121 15.4127 8.7159 17.4444 8.56782 18.1499C7.47843 18.4932 4.66583 19.6826 4.66583 19.6826L5.70146 15.2458C5.70146 15.2458 10.1118 14.3639 13.8035 13.8433C14.0129 14.4233 13.8006 14.8393 12.9112 14.9562Z" fill="#470000"/>
    <path d="M2.43405 42.8243L0.326949 38.4092C0.0685148 37.8678 -0.0239157 37.2623 0.0609715 36.6681L0.966441 30.3317L3.48099 26.4863L8.20542 26.6919V26.6985L3.59228 30.4864C3.59228 30.4864 2.48309 35.0345 3.03769 38.362C3.59228 41.6896 12.3555 46.6018 12.3555 46.6018L4.38833 44.4522C3.53003 44.2202 2.81698 43.626 2.43405 42.8243Z" fill="#470000"/>
  </g>
  <path d="M126.277 46.5704C126.337 46.5638 127.349 46.4223 128.46 45.9224C129.944 45.2547 130.877 44.2596 131.156 43.0457C131.8 40.2557 132.401 26.2145 130.378 19.5819L130.355 19.5074L130.276 19.5037L83.6826 17.606L83.7109 17.7446C84.0656 19.4839 85.2162 25.4288 85.1247 28.9299C85.0172 33.0234 83.5336 45.1981 83.4695 45.714L83.4544 45.8366L83.5779 45.8385L126.277 46.5704ZM130.189 19.7225C132.174 26.3522 131.578 40.2303 130.94 42.9957C130.3 45.7715 126.304 46.344 126.264 46.3497L83.7043 45.6187C83.8722 44.2322 85.2427 32.8706 85.3455 28.9365C85.436 25.5005 84.341 19.7432 83.9561 17.8399L130.189 19.7225Z" fill="#303030"/>
  <path d="M130.621 19.7405L130.338 19.5274C130.161 19.3925 112.386 6.05674 96.6794 3.31111C96.6106 3.30073 89.9762 2.31415 80.6791 2.1972L80.5414 2.19531L80.5688 2.33019L83.5728 17.0883C83.5728 17.0883 83.6266 17.3345 83.7096 17.7457L83.7266 17.8306L83.8133 17.8344L130.621 19.7405ZM80.814 2.41979C90.0233 2.54429 96.5785 3.5186 96.6436 3.52898C111.2 6.07371 127.553 17.757 129.916 19.4897L83.9105 17.6155C83.8388 17.2647 83.7935 17.0543 83.7907 17.0411L80.814 2.41979Z" fill="#303030"/>
  <path d="M83.6759 45.8398L83.6881 45.7408C83.7513 45.2239 85.2368 33.0398 85.3444 28.936C85.4368 25.4122 84.2823 19.4446 83.9267 17.7007L83.9098 17.6158L83.823 17.612L44.6702 16.0171L44.6362 16.0482C43.9826 16.6537 43.2111 17.6394 43.2479 18.8976C43.4771 26.6808 46.2057 28.2446 46.233 28.2559L46.301 28.2823L46.3132 28.2748C46.9357 28.4417 54.5294 30.7129 56.8383 42.1557L56.8421 42.1699C56.8515 42.1963 57.7947 44.791 61.5873 45.4597L83.6759 45.8398ZM83.7268 17.8308C84.1003 19.671 85.2133 25.4848 85.1227 28.9303C85.019 32.8776 83.6353 44.3373 83.4797 45.6154L61.6071 45.24C58.0569 44.6118 57.1062 42.2435 57.0533 42.1039C55.7857 35.8316 52.941 32.3466 50.7783 30.5262C48.4279 28.5493 46.3434 28.0541 46.3217 28.0484L46.3047 28.0447C46.1293 27.9409 43.6864 26.2875 43.4686 18.89C43.4346 17.7365 44.1401 16.8179 44.7522 16.2416L83.7268 17.8308Z" fill="#303030"/>
  <path d="M44.7541 16.2422L44.7881 16.2111C45.0484 15.9706 45.2521 15.8244 45.254 15.8235L45.287 15.7857L50.8594 5.43799L50.5877 5.53419L37.8943 10.0408C37.2944 10.2539 36.8568 10.7529 36.7238 11.3744C36.5908 11.9969 36.7851 12.6317 37.2454 13.0712L40.373 16.063L44.7541 16.2422ZM45.104 15.6575C45.0465 15.6999 44.8805 15.8263 44.6711 16.0168L40.4664 15.8452L37.3991 12.9118C36.9954 12.5251 36.8237 11.9677 36.9407 11.4216C37.0577 10.8745 37.4425 10.4369 37.9688 10.2492L50.3906 5.83885L45.104 15.6575Z" fill="#303030"/>
  <path d="M83.9561 17.8394L83.9278 17.7008C83.8429 17.2877 83.7901 17.0405 83.7901 17.0405L80.769 2.19755L80.6794 2.1966C69.4734 2.05418 59.3463 3.17658 50.5963 5.53172L50.5501 5.54399L50.5275 5.58643L45.1041 15.6588C45.0438 15.7031 44.8617 15.8408 44.6373 16.0492L44.4411 16.2303L83.9561 17.8394ZM80.587 2.4173L83.5731 17.0858C83.5731 17.0858 83.6146 17.2782 83.6825 17.6065L44.9919 16.0304C45.1466 15.8993 45.2532 15.8238 45.2532 15.8238L45.2862 15.7861L50.7001 5.73357C59.3963 3.39917 69.4498 2.29375 80.587 2.4173Z" fill="#303030"/>
  <path d="M126.041 17.3042C126.041 17.3042 126.104 19.3858 124.149 19.217L123.223 19.1538L123.791 17.4296L126.041 17.3042Z" fill="#969696"/>
  <path d="M125.89 17.3423C125.89 17.3423 125.946 19.173 124.227 19.0249L123.413 18.9693L123.912 17.4536L125.89 17.3423Z" fill="#ACBEBF"/>
  <path d="M125.594 17.2671C125.594 17.2671 125.649 19.0054 123.93 18.8573L124.151 18.0811L123.616 17.3784L125.594 17.2671Z" fill="#5E0000"/>
  <path d="M120.232 14.2539C120.398 14.3096 125.52 15.0302 125.797 15.862C126.074 16.6939 126.13 17.5258 125.797 17.9144C125.464 18.303 120.288 18.6907 119.899 18.5803L120.232 14.2539Z" fill="#700505"/>
  <path d="M125.558 16.8052C124.938 16.4072 120.27 16.7128 120.184 14.8858L120.233 14.2539C120.399 14.3096 125.521 15.0302 125.798 15.862C126.075 16.6939 126.131 17.5258 125.798 17.9144C125.76 17.9588 125.652 18.0031 125.502 18.0465C125.779 17.8597 125.816 16.9722 125.558 16.8052Z" fill="#7F0303"/>
  <path d="M124.448 16.9262L120.399 16.7046L120.26 17.9251C120.26 17.9251 123.893 17.8977 124.309 17.7034C124.309 17.7034 124.504 17.2035 124.448 16.9262Z" fill="#BA0000"/>
  <defs>
    <radialGradient id="paint0_radial_903_33186" cx="0" cy="0" r="1" gradientUnits="userSpaceOnUse" gradientTransform="translate(34.6059 45.0941) rotate(180) scale(3.50782 3.50783)">
      <stop offset="0.0043" stop-color="white"/>
      <stop offset="0.2796" stop-color="#F8F7F6"/>
      <stop offset="0.3141" stop-color="#F7F6F5"/>
      <stop offset="1" stop-color="#EFECEB"/>
    </radialGradient>
    <radialGradient id="paint1_radial_903_33186" cx="0" cy="0" r="1" gradientUnits="userSpaceOnUse" gradientTransform="translate(40.2151 39.3758) rotate(180) scale(7.97789 7.97788)">
      <stop offset="0.0043" stop-color="white"/>
      <stop offset="0.2796" stop-color="#F8F7F6"/>
      <stop offset="0.3141" stop-color="#F7F6F5"/>
      <stop offset="1" stop-color="#EFECEB"/>
    </radialGradient>
    <radialGradient id="paint2_radial_903_33186" cx="0" cy="0" r="1" gradientUnits="userSpaceOnUse" gradientTransform="translate(39.3369 51.1256) rotate(180) scale(2.98086 2.98087)">
      <stop offset="0.0043" stop-color="white"/>
      <stop offset="0.2796" stop-color="#F8F7F6"/>
      <stop offset="0.3141" stop-color="#F7F6F5"/>
      <stop offset="1" stop-color="#EFECEB"/>
    </radialGradient>
    <radialGradient id="paint3_radial_903_33186" cx="0" cy="0" r="1" gradientUnits="userSpaceOnUse" gradientTransform="translate(36.1227 38.4682) rotate(180) scale(3.40312 3.40313)">
      <stop offset="0.0043" stop-color="white"/>
      <stop offset="0.2796" stop-color="#F8F7F6"/>
      <stop offset="0.3141" stop-color="#F7F6F5"/>
      <stop offset="1" stop-color="#EFECEB"/>
    </radialGradient>
    <radialGradient id="paint4_radial_903_33186" cx="0" cy="0" r="1" gradientUnits="userSpaceOnUse" gradientTransform="translate(44.2318 39.9722) rotate(180) scale(2.6465 2.64649)">
      <stop offset="0.0043" stop-color="white"/>
      <stop offset="0.2796" stop-color="#F8F7F6"/>
      <stop offset="0.3141" stop-color="#F7F6F5"/>
      <stop offset="1" stop-color="#EFECEB"/>
    </radialGradient>
    <radialGradient id="paint5_radial_903_33186" cx="0" cy="0" r="1" gradientUnits="userSpaceOnUse" gradientTransform="translate(45.9981 46.492) rotate(180) scale(3.09216 3.09216)">
      <stop offset="0.0043" stop-color="white"/>
      <stop offset="0.2796" stop-color="#F8F7F6"/>
      <stop offset="0.3141" stop-color="#F7F6F5"/>
      <stop offset="1" stop-color="#EFECEB"/>
    </radialGradient>
    <radialGradient id="paint6_radial_903_33186" cx="0" cy="0" r="1" gradientUnits="userSpaceOnUse" gradientTransform="translate(143.984 45.0941) rotate(180) scale(3.50782 3.50783)">
      <stop offset="0.0043" stop-color="white"/>
      <stop offset="0.2796" stop-color="#F8F7F6"/>
      <stop offset="0.3141" stop-color="#F7F6F5"/>
      <stop offset="1" stop-color="#EFECEB"/>
    </radialGradient>
    <radialGradient id="paint7_radial_903_33186" cx="0" cy="0" r="1" gradientUnits="userSpaceOnUse" gradientTransform="translate(149.593 39.3753) rotate(180) scale(7.97789 7.97788)">
      <stop offset="0.0043" stop-color="white"/>
      <stop offset="0.2796" stop-color="#F8F7F6"/>
      <stop offset="0.3141" stop-color="#F7F6F5"/>
      <stop offset="1" stop-color="#EFECEB"/>
    </radialGradient>
    <radialGradient id="paint8_radial_903_33186" cx="0" cy="0" r="1" gradientUnits="userSpaceOnUse" gradientTransform="translate(148.716 51.1251) rotate(180) scale(2.98086 2.98087)">
      <stop offset="0.0043" stop-color="white"/>
      <stop offset="0.2796" stop-color="#F8F7F6"/>
      <stop offset="0.3141" stop-color="#F7F6F5"/>
      <stop offset="1" stop-color="#EFECEB"/>
    </radialGradient>
    <radialGradient id="paint9_radial_903_33186" cx="0" cy="0" r="1" gradientUnits="userSpaceOnUse" gradientTransform="translate(145.501 38.4677) rotate(180) scale(3.40313)">
      <stop offset="0.0043" stop-color="white"/>
      <stop offset="0.2796" stop-color="#F8F7F6"/>
      <stop offset="0.3141" stop-color="#F7F6F5"/>
      <stop offset="1" stop-color="#EFECEB"/>
    </radialGradient>
    <radialGradient id="paint10_radial_903_33186" cx="0" cy="0" r="1" gradientUnits="userSpaceOnUse" gradientTransform="translate(153.61 39.9717) rotate(180) scale(2.6465 2.64649)">
      <stop offset="0.0043" stop-color="white"/>
      <stop offset="0.2796" stop-color="#F8F7F6"/>
      <stop offset="0.3141" stop-color="#F7F6F5"/>
      <stop offset="1" stop-color="#EFECEB"/>
    </radialGradient>
    <radialGradient id="paint11_radial_903_33186" cx="0" cy="0" r="1" gradientUnits="userSpaceOnUse" gradientTransform="translate(155.376 46.4911) rotate(180) scale(3.09216)">
      <stop offset="0.0043" stop-color="white"/>
      <stop offset="0.2796" stop-color="#F8F7F6"/>
      <stop offset="0.3141" stop-color="#F7F6F5"/>
      <stop offset="1" stop-color="#EFECEB"/>
    </radialGradient>
    <radialGradient id="paint12_radial_903_33186" cx="0" cy="0" r="1" gradientUnits="userSpaceOnUse" gradientTransform="translate(83.5342 10.9548) rotate(180) scale(33.6119 33.6119)">
      <stop offset="0.0043" stop-color="white"/>
      <stop offset="0.2796" stop-color="#F8F7F6"/>
      <stop offset="0.3141" stop-color="#F7F6F5"/>
      <stop offset="1" stop-color="#EFECEB"/>
    </radialGradient>
    <radialGradient id="paint13_radial_903_33186" cx="0" cy="0" r="1" gradientUnits="userSpaceOnUse" gradientTransform="translate(83.5342 10.9548) rotate(180) scale(33.6119 33.6119)">
      <stop offset="0.0043" stop-color="white"/>
      <stop offset="0.2796" stop-color="#F8F7F6"/>
      <stop offset="0.3141" stop-color="#F7F6F5"/>
      <stop offset="1" stop-color="#EFECEB"/>
    </radialGradient>
    <radialGradient id="paint14_radial_903_33186" cx="0" cy="0" r="1" gradientUnits="userSpaceOnUse" gradientTransform="translate(170.238 28.0933) rotate(180) scale(6.37465 6.37465)">
      <stop offset="0.0043" stop-color="white"/>
      <stop offset="0.2796" stop-color="#F8F7F6"/>
      <stop offset="0.3141" stop-color="#F7F6F5"/>
      <stop offset="1" stop-color="#EFECEB"/>
    </radialGradient>
  </defs>
</svg>