<svg xmlns="http://www.w3.org/2000/svg" width="72" height="71" viewBox="0 0 72 71" fill="none">
    <path
        d="M36 6.65625C30.2953 6.65625 24.7186 8.34791 19.9753 11.5173C15.232 14.6867 11.535 19.1915 9.35186 24.462C7.16875 29.7325 6.59755 35.532 7.71049 41.1271C8.82343 46.7223 11.5705 51.8617 15.6044 55.8956C19.6383 59.9295 24.7777 62.6766 30.3729 63.7895C35.968 64.9025 41.7675 64.3313 47.038 62.1481C52.3085 59.965 56.8133 56.2681 59.9827 51.5247C63.1521 46.7814 64.8438 41.2048 64.8438 35.5C64.8357 27.8526 61.7942 20.5208 56.3867 15.1133C50.9792 9.7058 43.6474 6.66433 36 6.65625ZM48.6635 30.4135L33.1323 45.9448C32.9262 46.1511 32.6815 46.3147 32.4122 46.4264C32.1428 46.538 31.8541 46.5955 31.5625 46.5955C31.2709 46.5955 30.9822 46.538 30.7129 46.4264C30.4435 46.3147 30.1988 46.1511 29.9927 45.9448L23.3365 39.2885C22.9202 38.8722 22.6863 38.3075 22.6863 37.7187C22.6863 37.13 22.9202 36.5653 23.3365 36.149C23.7528 35.7327 24.3175 35.4988 24.9063 35.4988C25.495 35.4988 26.0597 35.7327 26.476 36.149L31.5625 41.2382L45.524 27.274C45.7301 27.0678 45.9749 26.9043 46.2442 26.7927C46.5136 26.6812 46.8022 26.6238 47.0938 26.6238C47.3853 26.6238 47.674 26.6812 47.9433 26.7927C48.2127 26.9043 48.4574 27.0678 48.6635 27.274C48.8697 27.4801 49.0332 27.7249 49.1448 27.9942C49.2563 28.2635 49.3137 28.5522 49.3137 28.8437C49.3137 29.1353 49.2563 29.424 49.1448 29.6933C49.0332 29.9626 48.8697 30.2074 48.6635 30.4135Z"
        fill="#F84464" />
</svg>