<svg xmlns="http://www.w3.org/2000/svg" width="130" height="81" viewBox="0 0 130 81" fill="none">
    <path
        d="M69.4879 3.82063C70.2833 2.99295 72.8252 0.818713 74.8388 2.52624C76.8524 4.23377 78.547 6.97624 80.4018 6.66604C80.8782 7.80392 80.7728 8.21847 80.7728 8.21847L78.6538 8.89105C78.6538 8.89105 76.3227 7.90826 75.2098 6.4066C74.0969 4.90634 73.5671 2.31756 70.6528 4.75124C67.7399 7.18493 69.4879 3.82063 69.4879 3.82063Z"
        fill="#A0A0A0" />
    <path
        d="M67.9717 8.84287C67.5834 9.46469 66.394 9.98498 65.5684 9.36739C64.6359 8.66944 64.7196 7.12406 65.4515 6.58826L69.1784 3.53981C69.4541 3.33817 70.287 3.37201 70.6551 3.85142C71.0001 4.30121 71.1401 4.84407 70.9712 5.11479L67.9717 8.84287Z"
        fill="#601C1C" />
    <path
        d="M67.4626 2.77718C68.3994 1.80004 71.3989 -0.761955 73.772 1.25155C76.1464 3.26505 78.1456 6.49962 80.3324 6.13443C80.8939 7.47676 80.7698 7.96463 80.7698 7.96463L78.2712 8.75847C78.2712 8.75847 75.5229 7.59943 74.2108 5.82846C72.8987 4.05889 72.2737 1.00761 68.8382 3.87558C65.4014 6.74355 67.4626 2.77718 67.4626 2.77718Z"
        fill="#C1C1C1" />
    <path
        d="M46.6463 49.7607H48.6368L49.3196 59.0626C48.8966 59.3065 48.6094 59.7521 48.6094 60.2667C48.6094 61.0422 49.2532 61.6697 50.0456 61.6697C50.8395 61.6697 51.4833 61.0408 51.4833 60.2667C51.4833 59.6463 51.069 59.126 50.4974 58.9413L49.8248 49.7607H51.5713C52.1256 49.7607 52.5745 49.3278 52.5745 48.7934C52.5745 48.259 52.1256 47.8262 51.5713 47.8262H46.6477C46.0934 47.8262 45.6445 48.259 45.6445 48.7934C45.6445 49.3278 46.092 49.7607 46.6463 49.7607Z"
        fill="#C1C1C1" />
    <path
        d="M46.2969 48.8552C46.2969 48.4844 46.6043 48.1841 46.984 48.1841H51.3576C51.7372 48.1841 52.0447 48.4844 52.0447 48.8552C52.0447 49.2261 51.7372 49.5264 51.3576 49.5264H46.984C46.6043 49.5264 46.2969 49.2261 46.2969 48.8552Z"
        fill="#C99617" />
    <path d="M38.4662 22.192L35.7383 23.0752L39.4729 34.0821L42.2008 33.1989L38.4662 22.192Z"
        fill="#C1C1C1" />
    <path d="M85.0348 22.2201L82.3067 23.1028L77.2676 9.38755L79.9957 8.50488L85.0348 22.2201Z"
        fill="#C1C1C1" />
    <path
        d="M36.6537 23.7738C38.1134 23.7738 39.2967 22.6179 39.2967 21.1921C39.2967 19.7662 38.1134 18.6104 36.6537 18.6104C35.194 18.6104 34.0107 19.7662 34.0107 21.1921C34.0107 22.6179 35.194 23.7738 36.6537 23.7738Z"
        fill="#2A2A2B" />
    <path
        d="M21.4914 40.4653C10.7261 40.4653 1.99902 48.9903 1.99902 59.5062C1.99902 70.0221 10.7261 78.547 21.4914 78.547C32.2566 78.547 40.9837 70.0221 40.9837 59.5062C40.9837 48.9903 32.2566 40.4653 21.4914 40.4653ZM21.4914 76.3333C11.9776 76.3333 4.26524 68.7996 4.26524 59.5062C4.26524 50.2128 11.9776 42.6791 21.4914 42.6791C31.0051 42.6791 38.7175 50.2128 38.7175 59.5062C38.7175 68.7996 31.0051 76.3333 21.4914 76.3333Z"
        fill="#C1C1C1" />
    <path
        d="M21.4915 38.5127C9.62204 38.5127 0 47.9119 0 59.5064C0 71.101 9.62204 80.5001 21.4915 80.5001C33.361 80.5001 42.9831 71.101 42.9831 59.5064C42.9831 47.9119 33.361 38.5127 21.4915 38.5127ZM21.4915 78.0594C11.002 78.0594 2.49861 69.753 2.49861 59.5064C2.49861 49.2598 11.002 40.9534 21.4915 40.9534C31.9811 40.9534 40.4845 49.2598 40.4845 59.5064C40.4845 69.753 31.9811 78.0594 21.4915 78.0594Z"
        fill="#2A2A2B" />
    <path
        d="M21.4915 65.6665C18.0085 65.6665 15.1865 62.9085 15.1865 59.5076C15.1865 56.1066 18.0099 53.3486 21.4915 53.3486C24.9746 53.3486 27.7965 56.1066 27.7965 59.5076C27.7965 62.9085 24.9746 65.6665 21.4915 65.6665Z"
        fill="#C1C1C1" />
    <path
        d="M24.3755 41.9476L24.1965 41.8926L21.4914 50.1341L18.7864 41.8926L18.6074 41.9476L21.3933 50.4344L18.7417 58.5138L18.9207 58.5688L21.4914 50.7348L24.0622 58.5688L24.2412 58.5138L21.5896 50.4344L24.3755 41.9476Z"
        fill="#C1C1C1" />
    <path
        d="M19.5673 41.8249L19.3811 41.8164L18.951 50.4612L14.1544 43.1841L13.9971 43.2828L18.9351 50.7756L18.5151 59.2498L18.7027 59.2583L19.1098 51.0407L23.6696 57.9583L23.827 57.8596L19.1257 50.7263L19.5673 41.8249Z"
        fill="#C1C1C1" />
    <path
        d="M14.8923 42.9204L14.7089 42.9599L16.5854 51.4186L10.0235 45.6023L9.89648 45.7376L16.6533 51.7274L18.4922 60.0182L18.6755 59.9788L16.8914 51.9375L23.1286 57.4675L23.2556 57.3322L16.8236 51.6301L14.8923 42.9204Z"
        fill="#C1C1C1" />
    <path
        d="M10.6661 45.1611L10.4987 45.2457L14.5533 52.943L6.67352 48.9823L6.58691 49.1458L14.7006 53.2222L18.6729 60.7658L18.8404 60.6826L14.9864 53.366L22.4764 57.1307L22.563 56.9672L14.8391 53.0868L10.6661 45.1611Z"
        fill="#C1C1C1" />
    <path
        d="M7.17698 48.394L7.03841 48.5181L12.9926 54.9281L4.33339 53.095L4.29297 53.2741L13.2092 55.1607L19.0465 61.4437L19.185 61.3196L13.5238 55.227L21.7558 56.9698L21.7962 56.7907L13.3088 54.9943L7.17698 48.394Z"
        fill="#C1C1C1" />
    <path
        d="M4.66427 52.3999L4.56323 52.5536L12.0129 57.2391L3.16309 57.6593L3.17174 57.8411L12.2842 57.4097L19.5867 62.0021L19.6877 61.8484L12.6061 57.3942L21.0186 56.9966L21.0099 56.8133L12.3348 57.2236L4.66427 52.3999Z"
        fill="#C1C1C1" />
    <path
        d="M3.29653 56.9033L3.24023 57.0782L11.6772 59.7205L3.24023 62.3629L3.29653 62.5377L11.9847 59.8164L20.2556 62.4066L20.3119 62.2318L12.2921 59.7205L20.3119 57.2093L20.2556 57.0345L11.9847 59.6246L3.29653 56.9033Z"
        fill="#C1C1C1" />
    <path
        d="M3.17174 61.6003L3.16309 61.7822L12.0129 62.2024L4.56323 66.8879L4.66427 67.0416L12.3348 62.2165L21.0099 62.6283L21.0186 62.4449L12.6061 62.0473L19.6877 57.5931L19.5867 57.438L12.2842 62.0318L3.17174 61.6003Z"
        fill="#C1C1C1" />
    <path
        d="M4.29297 66.1672L4.33339 66.3463L12.9926 64.5132L7.03841 70.9232L7.17698 71.0458L13.3088 64.447L21.7962 62.6506L21.7558 62.4715L13.5238 64.2143L19.185 58.1202L19.0465 57.9976L13.2092 64.2806L4.29297 66.1672Z"
        fill="#C1C1C1" />
    <path
        d="M6.58691 70.2957L6.67352 70.4592L14.5533 66.4985L10.4987 74.1958L10.6661 74.2789L14.8391 66.3547L22.563 62.4743L22.4764 62.3107L14.9864 66.0755L18.8404 58.7589L18.6729 58.6743L14.7006 66.2193L6.58691 70.2957Z"
        fill="#C1C1C1" />
    <path
        d="M9.89648 73.704L10.0235 73.8393L16.5854 68.023L14.7089 76.4817L14.8923 76.5212L16.8236 67.8115L23.2556 62.1094L23.1286 61.9741L16.8914 67.5027L18.6755 59.4628L18.4922 59.4233L16.6533 67.7142L9.89648 73.704Z"
        fill="#C1C1C1" />
    <path
        d="M13.9971 76.1586L14.1544 76.2573L18.951 68.9802L19.3811 77.625L19.5673 77.6165L19.1257 68.7151L23.827 61.5818L23.6696 61.4831L19.1098 68.4007L18.7027 60.1831L18.5151 60.1916L18.9351 68.6658L13.9971 76.1586Z"
        fill="#C1C1C1" />
    <path
        d="M18.6074 77.4938L18.7864 77.5488L21.4914 69.3073L24.1965 77.5488L24.3755 77.4938L21.5896 69.0069L24.2412 60.9276L24.0622 60.8726L21.4914 68.7066L18.9207 60.8726L18.7417 60.9276L21.3933 69.0069L18.6074 77.4938Z"
        fill="#C1C1C1" />
    <path
        d="M23.4154 77.6165L23.6016 77.625L24.0317 68.9802L28.8283 76.2573L28.9856 76.1586L24.0461 68.6658L24.4676 60.1916L24.28 60.1831L23.8729 68.4007L19.3131 61.4831L19.1543 61.5818L23.8571 68.7151L23.4154 77.6165Z"
        fill="#C1C1C1" />
    <path
        d="M28.0909 76.5212L28.2742 76.4817L26.3977 68.023L32.9596 73.8393L33.0852 73.704L26.3299 67.7142L24.4909 59.4233L24.3076 59.4628L26.0917 67.5027L19.8546 61.9741L19.7275 62.1094L26.1596 67.8115L28.0909 76.5212Z"
        fill="#C1C1C1" />
    <path
        d="M32.3178 74.2789L32.4853 74.1958L28.4306 66.4985L36.3104 70.4592L36.3956 70.2957L28.2834 66.2193L24.311 58.6743L24.1436 58.7589L27.9976 66.0755L20.5075 62.3107L20.4209 62.4743L28.1448 66.3547L32.3178 74.2789Z"
        fill="#C1C1C1" />
    <path
        d="M35.8058 71.0458L35.9444 70.9232L29.9901 64.5132L38.6494 66.3463L38.6898 66.1672L29.7736 64.2806L23.9363 57.9976L23.7977 58.1202L29.4575 64.2143L21.2269 62.4715L21.1865 62.6506L29.674 64.447L35.8058 71.0458Z"
        fill="#C1C1C1" />
    <path
        d="M38.3191 67.0416L38.4202 66.8879L30.9705 62.2024L39.8218 61.7822L39.8117 61.6003L30.6992 62.0318L23.3967 57.438L23.2957 57.5931L30.3773 62.0473L21.9648 62.4449L21.9735 62.6283L30.6486 62.2165L38.3191 67.0416Z"
        fill="#C1C1C1" />
    <path
        d="M39.6863 62.5377L39.7426 62.3629L31.3042 59.7205L39.7426 57.0782L39.6863 56.9033L30.9982 59.6246L22.7272 57.0345L22.6709 57.2093L30.6907 59.7205L22.6709 62.2318L22.7272 62.4066L30.9982 59.8164L39.6863 62.5377Z"
        fill="#C1C1C1" />
    <path
        d="M39.8117 57.8411L39.8218 57.6593L30.9705 57.2391L38.4202 52.5536L38.3191 52.3999L30.6486 57.2236L21.9735 56.8133L21.9648 56.9966L30.3773 57.3942L23.2957 61.8484L23.3967 62.0021L30.6992 57.4097L39.8117 57.8411Z"
        fill="#C1C1C1" />
    <path
        d="M38.6898 53.2741L38.6494 53.095L29.9901 54.9281L35.9444 48.5181L35.8058 48.394L29.674 54.9943L21.1865 56.7907L21.2269 56.9698L29.4575 55.227L23.7977 61.3196L23.9363 61.4437L29.7736 55.1607L38.6898 53.2741Z"
        fill="#C1C1C1" />
    <path
        d="M36.3956 49.1458L36.3104 48.9823L28.4306 52.943L32.4853 45.2457L32.3178 45.1611L28.1448 53.0868L20.4209 56.9672L20.5075 57.1307L27.9976 53.366L24.1436 60.6826L24.311 60.7658L28.2834 53.2222L36.3956 49.1458Z"
        fill="#C1C1C1" />
    <path
        d="M33.0852 45.7376L32.9596 45.6023L26.3977 51.4186L28.2742 42.9599L28.0909 42.9204L26.1596 51.6301L19.7275 57.3322L19.8546 57.4675L26.0917 51.9375L24.3076 59.9788L24.4909 60.0182L26.3299 51.7274L33.0852 45.7376Z"
        fill="#C1C1C1" />
    <path
        d="M28.9856 43.2828L28.8283 43.1841L24.0317 50.4612L23.6016 41.8164L23.4154 41.8249L23.8571 50.7263L19.1543 57.8596L19.3131 57.9583L23.8729 51.0407L24.28 59.2583L24.4676 59.2498L24.0461 50.7756L28.9856 43.2828Z"
        fill="#C1C1C1" />
    <path
        d="M21.515 55.4639C19.129 55.4639 17.1934 57.3533 17.1934 59.6855C17.1934 62.0162 19.1276 63.907 21.515 63.907C23.9011 63.907 25.8367 62.0176 25.8367 59.6855C25.8367 57.3547 23.9025 55.4639 21.515 55.4639ZM24.3298 56.981C24.8148 57.4548 24.7455 58.047 24.3298 58.2345L22.934 58.8606C22.8777 58.886 22.7304 58.8 22.5991 58.6731C22.4677 58.5448 22.3811 58.4009 22.4071 58.3459L23.048 56.9824C23.2385 56.5735 23.8448 56.5073 24.3298 56.981ZM21.5584 55.8432C22.2454 55.8432 22.6251 56.3099 22.4648 56.7287L21.9308 58.1344C21.9091 58.1908 21.7431 58.2331 21.5584 58.2331C21.3736 58.2331 21.2076 58.1922 21.1859 58.1344L20.6519 56.7287C20.4916 56.3099 20.8713 55.8432 21.5584 55.8432ZM18.7754 56.9543C19.2604 56.4805 19.8666 56.5468 20.0572 56.9543L20.6981 58.3177C20.724 58.3727 20.636 58.5165 20.5061 58.6449C20.3747 58.7732 20.2275 58.8578 20.1712 58.8324L18.7754 58.2063C18.3597 58.0202 18.2904 57.428 18.7754 56.9543ZM17.612 59.6601C17.612 58.9889 18.0897 58.6181 18.5184 58.7746L19.9576 59.2963C20.0153 59.3174 20.0586 59.4796 20.0586 59.6601C20.0586 59.8405 20.0167 60.0027 19.9576 60.0239L18.5184 60.5456C18.0883 60.7021 17.612 60.3312 17.612 59.6601ZM18.748 62.3786C18.263 61.9048 18.3322 61.3126 18.748 61.1265L20.1438 60.5004C20.2001 60.4751 20.3473 60.5611 20.4787 60.688C20.61 60.8163 20.6966 60.9601 20.6706 61.0151L20.0297 62.3786C19.8392 62.7861 19.233 62.8538 18.748 62.3786ZM21.5194 63.5165C20.8323 63.5165 20.4527 63.0497 20.6129 62.631L21.147 61.2252C21.1686 61.1688 21.3346 61.1265 21.5194 61.1265C21.7041 61.1265 21.8701 61.1674 21.8918 61.2252L22.4259 62.631C22.5846 63.0497 22.205 63.5165 21.5194 63.5165ZM24.3024 62.4068C23.8174 62.8805 23.2111 62.8129 23.0191 62.4068L22.3782 61.0433C22.3523 60.9883 22.4403 60.8445 22.5702 60.7162C22.7016 60.5879 22.8488 60.5033 22.9051 60.5286L24.3009 61.1547C24.7181 61.3394 24.7873 61.9316 24.3024 62.4068ZM24.5593 60.585L23.1202 60.0633C23.0624 60.0422 23.0191 59.88 23.0191 59.6995C23.0191 59.5191 23.061 59.3569 23.1202 59.3358L24.5593 58.8141C24.9894 58.659 25.4658 59.0298 25.4658 59.6995C25.4658 60.3693 24.9894 60.7401 24.5593 60.585Z"
        fill="#2A2A2B" />
    <path
        d="M108.508 40.4653C97.7427 40.4653 89.0156 48.9903 89.0156 59.5062C89.0156 70.0221 97.7427 78.5484 108.508 78.5484C119.273 78.5484 128 70.0235 128 59.5076C128 48.9917 119.273 40.4653 108.508 40.4653ZM108.508 76.3333C98.9942 76.3333 91.2818 68.7996 91.2818 59.5062C91.2818 50.2128 98.9942 42.6791 108.508 42.6791C118.022 42.6791 125.734 50.2128 125.734 59.5062C125.734 68.7996 118.022 76.3333 108.508 76.3333Z"
        fill="#C1C1C1" />
    <path
        d="M108.508 38.5127C96.6386 38.5127 87.0166 47.9119 87.0166 59.5064C87.0166 71.101 96.6386 80.5001 108.508 80.5001C120.378 80.5001 130 71.101 130 59.5064C130 47.9119 120.378 38.5127 108.508 38.5127ZM108.508 78.0594C98.0186 78.0594 89.5152 69.753 89.5152 59.5064C89.5152 49.2598 98.0186 40.9534 108.508 40.9534C118.998 40.9534 127.501 49.2598 127.501 59.5064C127.501 69.753 118.998 78.0594 108.508 78.0594Z"
        fill="#2A2A2B" />
    <path
        d="M108.508 62.9481C106.562 62.9481 104.984 61.407 104.984 59.5063C104.984 57.6056 106.562 56.0645 108.508 56.0645C110.454 56.0645 112.031 57.6056 112.031 59.5063C112.031 61.407 110.454 62.9481 108.508 62.9481Z"
        fill="#C1C1C1" />
    <path
        d="M111.392 41.9476L111.213 41.8926L108.508 50.1341L105.803 41.8926L105.624 41.9476L108.41 50.4344L105.758 58.5138L105.936 58.5688L108.508 50.7348L111.079 58.5688L111.258 58.5138L108.606 50.4344L111.392 41.9476Z"
        fill="#C1C1C1" />
    <path
        d="M106.584 41.8249L106.398 41.8164L105.968 50.4612L101.171 43.1841L101.014 43.2828L105.953 50.7756L105.532 59.2498L105.719 59.2583L106.126 51.0407L110.686 57.9583L110.844 57.8596L106.142 50.7263L106.584 41.8249Z"
        fill="#C1C1C1" />
    <path
        d="M101.908 42.9204L101.725 42.9599L103.602 51.4186L97.0396 45.6023L96.9141 45.7376L103.669 51.7274L105.508 60.0182L105.692 59.9788L103.908 51.9375L110.145 57.4675L110.272 57.3322L103.84 51.6301L101.908 42.9204Z"
        fill="#C1C1C1" />
    <path
        d="M97.6827 45.1611L97.5153 45.2457L101.57 52.943L93.6901 48.9823L93.6035 49.1458L101.717 53.2222L105.69 60.7658L105.857 60.6826L102.003 53.366L109.493 57.1307L109.58 56.9672L101.856 53.0868L97.6827 45.1611Z"
        fill="#C1C1C1" />
    <path
        d="M94.1936 48.394L94.055 48.5181L100.009 54.9281L91.35 53.095L91.3096 53.2741L100.226 55.1607L106.063 61.4437L106.202 61.3196L100.542 55.227L108.772 56.9698L108.813 56.7907L100.324 54.9943L94.1936 48.394Z"
        fill="#C1C1C1" />
    <path
        d="M91.6804 52.3999L91.5793 52.5536L99.029 57.2391L90.1777 57.6593L90.1878 57.8411L99.3003 57.4097L106.603 62.0021L106.704 61.8484L99.6222 57.3942L108.035 56.9966L108.026 56.8133L99.3509 57.2236L91.6804 52.3999Z"
        fill="#C1C1C1" />
    <path
        d="M90.3131 56.9033L90.2568 57.0782L98.6938 59.7205L90.2568 62.3629L90.3131 62.5377L99.0013 59.8164L107.272 62.4066L107.329 62.2318L99.3087 59.7205L107.329 57.2093L107.272 57.0345L99.0013 59.6246L90.3131 56.9033Z"
        fill="#C1C1C1" />
    <path
        d="M90.1878 61.6003L90.1777 61.7822L99.029 62.2024L91.5793 66.8879L91.6804 67.0416L99.3509 62.2165L108.026 62.6283L108.035 62.4449L99.6222 62.0473L106.704 57.5931L106.603 57.438L99.3003 62.0318L90.1878 61.6003Z"
        fill="#C1C1C1" />
    <path
        d="M91.3096 66.1672L91.35 66.3463L100.009 64.5132L94.055 70.9232L94.1936 71.0458L100.324 64.447L108.813 62.6506L108.772 62.4715L100.542 64.2143L106.202 58.1202L106.063 57.9976L100.226 64.2806L91.3096 66.1672Z"
        fill="#C1C1C1" />
    <path
        d="M93.6035 70.2957L93.6901 70.4592L101.57 66.4985L97.5153 74.1958L97.6827 74.2789L101.856 66.3547L109.58 62.4743L109.493 62.3107L102.003 66.0755L105.857 58.7589L105.69 58.6743L101.717 66.2193L93.6035 70.2957Z"
        fill="#C1C1C1" />
    <path
        d="M96.9141 73.704L97.0396 73.8393L103.602 68.023L101.725 76.4817L101.908 76.5212L103.84 67.8115L110.272 62.1094L110.145 61.9741L103.908 67.5027L105.692 59.4628L105.508 59.4233L103.669 67.7142L96.9141 73.704Z"
        fill="#C1C1C1" />
    <path
        d="M101.014 76.1586L101.171 76.2573L105.968 68.9802L106.398 77.625L106.584 77.6165L106.142 68.7151L110.844 61.5818L110.686 61.4831L106.126 68.4007L105.719 60.1831L105.532 60.1916L105.953 68.6658L101.014 76.1586Z"
        fill="#C1C1C1" />
    <path
        d="M105.624 77.4938L105.803 77.5488L108.508 69.3073L111.213 77.5488L111.392 77.4938L108.606 69.0069L111.258 60.9276L111.079 60.8726L108.508 68.7066L105.936 60.8726L105.758 60.9276L108.41 69.0069L105.624 77.4938Z"
        fill="#C1C1C1" />
    <path
        d="M110.432 77.6165L110.619 77.625L111.049 68.9802L115.845 76.2573L116.003 76.1586L111.063 68.6658L111.485 60.1916L111.297 60.1831L110.889 68.4007L106.33 61.4831L106.173 61.5818L110.874 68.7151L110.432 77.6165Z"
        fill="#C1C1C1" />
    <path
        d="M115.107 76.5212L115.291 76.4817L113.414 68.023L119.976 73.8393L120.102 73.704L113.346 67.7142L111.508 59.4233L111.324 59.4628L113.108 67.5027L106.871 61.9741L106.744 62.1094L113.176 67.8115L115.107 76.5212Z"
        fill="#C1C1C1" />
    <path
        d="M119.334 74.2789L119.502 74.1958L115.447 66.4985L123.327 70.4592L123.414 70.2957L115.3 66.2193L111.328 58.6743L111.16 58.7589L115.014 66.0755L107.524 62.3107L107.438 62.4743L115.161 66.3547L119.334 74.2789Z"
        fill="#C1C1C1" />
    <path
        d="M122.822 71.0458L122.961 70.9232L117.007 64.5132L125.666 66.3463L125.706 66.1672L116.79 64.2806L110.953 57.9976L110.814 58.1202L116.474 64.2143L108.244 62.4715L108.203 62.6506L116.691 64.447L122.822 71.0458Z"
        fill="#C1C1C1" />
    <path
        d="M125.336 67.0416L125.437 66.8879L117.987 62.2024L126.837 61.7822L126.828 61.6003L117.716 62.0318L110.413 57.438L110.312 57.5931L117.394 62.0473L108.981 62.4449L108.99 62.6283L117.665 62.2165L125.336 67.0416Z"
        fill="#C1C1C1" />
    <path
        d="M126.703 62.5377L126.759 62.3629L118.322 59.7205L126.759 57.0782L126.703 56.9033L118.015 59.6246L109.744 57.0345L109.688 57.2093L117.707 59.7205L109.688 62.2318L109.744 62.4066L118.015 59.8164L126.703 62.5377Z"
        fill="#C1C1C1" />
    <path
        d="M126.828 57.8411L126.837 57.6593L117.987 57.2391L125.437 52.5536L125.336 52.3999L117.665 57.2236L108.99 56.8133L108.981 56.9966L117.394 57.3942L110.312 61.8484L110.413 62.0021L117.716 57.4097L126.828 57.8411Z"
        fill="#C1C1C1" />
    <path
        d="M125.706 53.2741L125.666 53.095L117.007 54.9281L122.961 48.5181L122.822 48.394L116.691 54.9943L108.203 56.7907L108.244 56.9698L116.474 55.227L110.814 61.3196L110.953 61.4437L116.79 55.1607L125.706 53.2741Z"
        fill="#C1C1C1" />
    <path
        d="M123.414 49.1458L123.327 48.9823L115.447 52.943L119.502 45.2457L119.334 45.1611L115.161 53.0868L107.438 56.9672L107.524 57.1307L115.014 53.366L111.16 60.6826L111.328 60.7658L115.3 53.2222L123.414 49.1458Z"
        fill="#C1C1C1" />
    <path
        d="M120.102 45.7376L119.976 45.6023L113.414 51.4186L115.291 42.9599L115.107 42.9204L113.176 51.6301L106.744 57.3322L106.871 57.4675L113.108 51.9375L111.324 59.9788L111.508 60.0182L113.346 51.7274L120.102 45.7376Z"
        fill="#C1C1C1" />
    <path
        d="M116.003 43.2828L115.845 43.1841L111.049 50.4612L110.619 41.8164L110.432 41.8249L110.874 50.7263L106.173 57.8596L106.33 57.9583L110.889 51.0407L111.297 59.2583L111.485 59.2498L111.063 50.7756L116.003 43.2828Z"
        fill="#C1C1C1" />
    <path
        d="M49.484 58.6268H22.5839L39.8331 34.6467C39.4895 33.9262 39.159 33.2015 38.8472 32.4683C38.827 32.5162 38.8053 32.5585 38.7851 32.5923L21.1188 58.6268C20.3927 59.8084 20.462 60.7884 21.2905 60.7884H50.5435C50.2995 60.0665 49.7077 59.3516 49.484 58.6268Z"
        fill="#167A3E" />
    <path
        d="M109.657 58.7972C99.4055 55.1396 95.4114 47.1265 91.7941 38.3069L92.754 37.9487L84.9017 17.8701L79.4743 19.8963L80.222 21.8097C67.4085 45.6375 69.4986 48.0698 47.7487 48.1431L41.3383 29.3504L37.5146 30.4883L47.3792 59.2371C47.2695 59.5403 47.1973 59.8632 47.1973 60.2044C47.1973 61.8076 48.5282 63.109 50.1708 63.109C51.6027 63.109 52.7965 62.1192 53.0794 60.8022C71.5137 60.9108 70.945 61.1336 84.7357 33.3493L87.3281 39.9777L88.2433 39.6365C92.0698 49.5475 95.7001 57.0135 108.486 60.8995C109.905 61.355 111.35 59.4585 109.657 58.7972ZM50.9358 57.3407L49.0579 51.7852C69.5809 51.8924 67.5023 52.4141 82.0682 26.5262L82.761 28.2986C69.923 55.4075 70.4888 57.3407 50.9358 57.3407Z"
        fill="#167A3E" />
    <path
        d="M91.7939 39.2233C95.4098 48.0416 99.4053 56.0561 109.657 59.7136C109.966 59.8349 110.168 59.9971 110.287 60.1775C110.552 59.6939 110.455 59.1102 109.657 58.7985C99.7142 55.2509 95.6595 47.603 92.1245 39.1021L91.7939 39.2233Z"
        fill="#23AF5B" />
    <path
        d="M47.242 59.7515C47.216 59.8981 47.1973 60.0476 47.1973 60.2013C47.1973 60.355 47.2204 60.503 47.2435 60.6511C47.2752 60.479 47.32 60.3126 47.3791 60.1505L47.242 59.7515Z"
        fill="#23AF5B" />
    <path
        d="M84.901 18.7867L92.4416 38.0658L92.7534 37.9488L84.901 17.8716L79.4736 19.8964L79.7854 20.6958L84.901 18.7867Z"
        fill="#23AF5B" />
    <path
        d="M41.3364 30.2654L47.7468 49.058C69.4967 48.9861 67.4065 46.5524 80.2201 22.726L80.0136 22.1973C67.4354 45.6557 69.3754 48.071 47.7468 48.1429L41.3364 29.3503L37.5127 30.4882L37.7971 31.3187L41.3364 30.2654Z"
        fill="#23AF5B" />
    <path
        d="M50.935 58.2555C70.488 58.2555 69.9222 56.321 82.7602 29.2135L82.5639 28.7129C69.9323 55.4157 70.3855 57.3404 50.935 57.3404L49.366 52.7029C49.2606 52.7029 49.1625 52.7015 49.0557 52.7015L50.935 58.2555Z"
        fill="#23AF5B" />
    <path
        d="M50.0042 54.1372C46.5226 54.1372 43.6992 56.8952 43.6992 60.2962C43.6992 63.6971 46.5226 66.4551 50.0042 66.4551C53.4858 66.4551 56.3092 63.6971 56.3092 60.2962C56.3092 56.8952 53.4873 54.1372 50.0042 54.1372ZM54.1108 56.3495C54.8196 57.0418 54.7185 57.9048 54.1108 58.1769L52.0741 59.0892C51.9918 59.1258 51.7768 59.0018 51.5862 58.8142C51.3957 58.6281 51.2672 58.418 51.3062 58.3376L52.2401 56.3481C52.5187 55.7559 53.4021 55.6572 54.1108 56.3495ZM50.0677 54.6899C51.0695 54.6899 51.6238 55.3696 51.3914 55.9829L50.6119 58.0345C50.5801 58.1177 50.3376 58.1783 50.0677 58.1783C49.7978 58.1783 49.5553 58.1177 49.5235 58.0345L48.7441 55.9829C48.5117 55.371 49.066 54.6899 50.0677 54.6899ZM46.0073 56.31C46.716 55.6177 47.5994 55.7164 47.878 56.31L48.8119 58.2996C48.8494 58.3799 48.7224 58.59 48.5304 58.7762C48.3399 58.9623 48.1248 59.0878 48.0426 59.0511L46.0073 58.1374C45.3996 57.8653 45.2986 57.0024 46.0073 56.31ZM44.3084 60.2595C44.3084 59.2809 45.0041 58.7395 45.632 58.9665L47.7322 59.7279C47.8174 59.7589 47.8795 59.9944 47.8795 60.2595C47.8795 60.5246 47.8174 60.76 47.7322 60.7911L45.632 61.5525C45.0055 61.7795 44.3084 61.238 44.3084 60.2595ZM45.9669 64.2259C45.2581 63.5335 45.3592 62.6706 45.9669 62.3985L48.0036 61.4862C48.0859 61.4495 48.3009 61.5736 48.4915 61.7597C48.682 61.9459 48.8105 62.156 48.7729 62.2363L47.839 64.2259C47.559 64.8195 46.6742 64.9182 45.9669 64.2259ZM50.01 65.8854C49.0082 65.8854 48.4539 65.2058 48.6863 64.5925L49.4658 62.5409C49.4976 62.4577 49.7401 62.3971 50.01 62.3971C50.2799 62.3971 50.5224 62.4577 50.5542 62.5409L51.3336 64.5925C51.566 65.2044 51.0117 65.8854 50.01 65.8854ZM54.0704 64.2653C53.3617 64.9577 52.4783 64.859 52.1997 64.2653L51.2658 62.2758C51.2283 62.1954 51.3553 61.9853 51.5473 61.7992C51.7378 61.6117 51.9529 61.4876 52.0351 61.5243L54.0719 62.4366C54.6767 62.7101 54.7777 63.573 54.0704 64.2653ZM54.4457 61.6089L52.3455 60.8475C52.2603 60.8164 52.1982 60.5796 52.1982 60.3159C52.1982 60.0522 52.2603 59.8153 52.3455 59.7843L54.4457 59.0229C55.0722 58.7959 55.7693 59.3373 55.7693 60.3159C55.7693 61.2944 55.0722 61.8359 54.4457 61.6089Z"
        fill="#2A2A2B" />
    <path
        d="M108.508 60.2708C108.077 60.2708 107.728 59.9295 107.728 59.5079C107.728 59.0863 108.077 58.7451 108.508 58.7451C108.94 58.7451 109.289 59.0863 109.289 59.5079C109.289 59.9295 108.94 60.2708 108.508 60.2708Z"
        fill="#2A2A2B" />
    <path
        d="M47.3392 19.3492C47.306 20.3023 46.4847 20.9411 45.5118 21.0172C36.0731 21.7617 34.2558 23.1999 31.6215 22.3201C29.8836 21.7406 29.3452 19.7073 29.3784 18.7527C29.4116 17.7996 30.1838 16.6885 31.1596 16.7209L45.6316 17.5627C46.6088 17.5965 47.3724 18.396 47.3392 19.3492Z"
        fill="#872F2D" />
    <path
        d="M50.0039 54.1372C49.9029 54.1372 49.8033 54.1471 49.7022 54.1527V54.1443C38.9254 54.6476 32.1239 54.9649 24.9774 55.2976L24.8691 55.4485L49.5651 54.2965L49.7095 54.2979L49.822 54.2909C49.8827 54.2867 49.9433 54.2824 50.0039 54.2824C53.3989 54.2824 56.1588 56.9798 56.1588 60.2947C56.1588 63.6111 53.3975 66.307 50.0039 66.307C49.8134 66.307 49.6272 66.2958 49.441 66.2788L49.2764 66.2633V66.2676L21.132 63.7394C18.9712 63.5477 17.3415 61.8035 17.3415 59.6842C17.3415 57.5071 19.0867 55.7221 21.3139 55.6205L21.4568 55.6135V55.6079L23.2207 55.5261L23.3232 55.3752C22.6563 55.4062 21.9866 55.4372 21.3067 55.4697V55.4753C19.0159 55.5811 17.1914 57.4225 17.1914 59.687C17.1914 61.8881 18.9163 63.6943 21.1176 63.8889C29.7076 64.6601 36.8425 65.3017 49.3558 66.4241C49.3572 66.4241 49.3601 66.4241 49.3616 66.4241C49.3832 66.4255 49.4034 66.4283 49.4265 66.4297V66.4269C49.6171 66.4438 49.8091 66.4551 50.0025 66.4551C53.4841 66.4551 56.3075 63.6971 56.3075 60.2962C56.3075 56.8952 53.487 54.1372 50.0039 54.1372Z"
        fill="#2A2A2B" />
    <path
        d="M53.4293 70.8064H51.4387L50.7574 61.5046C51.1804 61.2606 51.4676 60.8151 51.4676 60.3004C51.4676 59.5249 50.8238 58.8975 50.0314 58.8975C49.2375 58.8975 48.5951 59.5263 48.5951 60.3004C48.5951 60.9208 49.0094 61.4411 49.581 61.6258L50.2537 70.8064H48.5071C47.9528 70.8064 47.5039 71.2393 47.5039 71.7737C47.5039 72.3081 47.9528 72.741 48.5071 72.741H53.4307C53.985 72.741 54.4339 72.3081 54.4339 71.7737C54.4325 71.2393 53.9836 70.8064 53.4293 70.8064Z"
        fill="#C1C1C1" />
    <path
        d="M53.7791 71.7132C53.7791 72.084 53.4716 72.3843 53.092 72.3843H48.7183C48.3387 72.3843 48.0312 72.084 48.0312 71.7132C48.0312 71.3423 48.3387 71.042 48.7183 71.042H53.092C53.4716 71.042 53.7791 71.3423 53.7791 71.7132Z"
        fill="#C99617" />
    <path
        d="M65.6751 8.69938C65.2176 9.43258 63.8145 10.0459 62.8417 9.31837C61.7417 8.49492 61.8399 6.67318 62.7031 6.04009L67.0984 2.44596C67.4232 2.20767 68.4062 2.24715 68.8406 2.81257C69.2477 3.34273 69.4122 3.98429 69.213 4.30295L65.6751 8.69938Z"
        fill="#872F2D" />
    <path
        d="M65.0848 8.00263C65.0848 8.76968 64.4482 9.3915 63.663 9.3915C62.8778 9.3915 62.2412 8.76968 62.2412 8.00263C62.2412 7.23559 62.8778 6.61377 63.663 6.61377C64.4482 6.61377 65.0848 7.23559 65.0848 8.00263Z"
        fill="#2A2A2B" />
    <path
        d="M81.2448 6.99868C81.5176 7.92083 80.9735 8.88528 80.028 9.15318L78.319 9.64669C77.3749 9.91318 76.3876 9.3816 76.1134 8.45945C75.8406 7.5373 76.3847 6.57285 77.3288 6.30495L79.0378 5.81145C79.9833 5.54495 80.9706 6.07653 81.2448 6.99868Z"
        fill="#C1C1C1" />
</svg>