<svg xmlns="http://www.w3.org/2000/svg" width="225" height="233" viewBox="0 0 225 233" fill="none">
    <path
        d="M110.519 228C160.189 228 200.458 184.867 200.458 131.473C200.458 78.0786 160.189 34.9453 110.519 34.9453C60.8486 34.9453 20.5801 78.0786 20.5801 131.473C20.5801 184.867 60.8486 228 110.519 228Z"
        fill="#EAEEF9" />
    <path
        d="M44.3528 68.9561H172.254C177.398 68.9561 181.301 73.1364 181.301 78.6468V165.483C181.301 170.994 177.398 175.174 172.254 175.174H44.3528C39.2083 175.174 35.3057 170.994 35.3057 165.483V78.6468C35.3057 73.1364 39.5631 68.9561 44.3528 68.9561Z"
        fill="url(#paint0_linear_835_596)" />
    <path
        d="M183.785 124.631V167.384C183.785 172.894 179.705 177.455 174.383 177.455H42.9341C37.7897 177.455 33.5322 172.894 33.5322 167.384V121.021"
        stroke="#1676EE" stroke-width="3" stroke-linecap="round" stroke-linejoin="round" />
    <path
        d="M172.606 100.691H131.096C127.016 100.691 123.113 102.212 120.098 104.872L109.277 114.372C106.261 117.033 102.358 118.553 98.2783 118.553H51.4462C46.6566 118.553 42.7539 122.733 42.7539 127.863C42.7539 128.243 42.7539 128.814 42.9313 129.194L51.6236 178.217C52.3332 182.778 55.8811 186.198 60.3159 186.198H160.544C164.801 186.198 168.526 182.968 169.236 178.407L181.299 111.332C182.186 106.202 178.993 101.641 174.203 100.691C173.493 100.691 172.961 100.691 172.606 100.691Z"
        fill="white" />
    <g filter="url(#filter0_d_835_596)">
        <path
            d="M191.234 87.5787H137.307C131.985 87.5787 127.018 89.4788 122.938 93.0891L108.746 105.44C104.843 108.86 99.699 110.95 94.3772 110.95H33.3536C27.1448 110.95 22.1777 116.461 22.1777 122.921C22.1777 123.491 22.1777 124.061 22.3551 124.631L33.531 188.666C34.4179 194.747 39.2076 199.117 44.7068 199.117H175.269C180.946 199.117 185.558 194.937 186.445 188.856L202.233 101.26C203.297 94.6092 199.217 88.7188 193.008 87.3887C192.476 87.5787 191.767 87.5787 191.234 87.5787Z"
            fill="url(#paint1_linear_835_596)" />
    </g>
    <path
        d="M86.9263 153.894C90.1194 153.894 92.7803 151.044 92.7803 147.624C92.7803 144.204 90.1194 141.354 86.9263 141.354C83.7332 141.354 81.0723 144.204 81.0723 147.624C81.0723 151.044 83.7332 153.894 86.9263 153.894Z"
        fill="#989FB0" />
    <path
        d="M132.516 153.702C135.709 153.702 138.37 150.852 138.37 147.432C138.37 144.011 135.709 141.161 132.516 141.161C129.323 141.161 126.662 144.011 126.662 147.432C126.662 151.042 129.323 153.702 132.516 153.702Z"
        fill="#989FB0" />
    <path
        d="M199.926 194.746C199.217 197.976 198.152 201.396 196.911 204.246C193.54 211.277 188.218 216.787 181.655 220.398C174.914 224.008 166.931 225.528 158.948 223.628C140.144 219.448 128.082 199.686 131.984 179.545C135.887 159.403 154.159 146.292 172.962 150.662C179.703 152.182 185.557 155.793 190.524 160.733C198.862 169.664 202.41 182.585 199.926 194.746Z"
        fill="url(#paint2_linear_835_596)" />
    <path
        d="M177.044 183.916H169.061V175.365C169.061 173.655 167.819 172.135 166.045 172.135C164.449 172.135 163.03 173.465 163.03 175.365V183.916H155.047C153.45 183.916 152.031 185.246 152.031 187.146C152.031 189.046 153.273 190.376 155.047 190.376H163.03V198.927C163.03 200.637 164.271 202.157 166.045 202.157C167.642 202.157 169.061 200.827 169.061 198.927V190.376H177.044C178.64 190.376 180.06 189.046 180.06 187.146C180.06 185.246 178.64 183.916 177.044 183.916Z"
        fill="white" />
    <path
        d="M102.538 108.86C96.152 95.5593 94.7328 79.5981 98.9903 65.157C103.07 50.7159 112.827 38.365 124.89 31.3344C128.615 29.2443 132.873 27.5341 137.13 27.3441C141.387 27.1541 146 28.6742 148.838 32.4745C151.676 35.8948 152.209 41.5952 149.902 45.3955C147.419 49.0058 142.452 50.5259 138.372 49.3858C131.808 48.0557 126.486 42.5453 124.89 35.8948C123.293 29.2443 125.422 21.4537 130.389 17.0834C133.582 14.0431 138.017 12.333 142.097 11.0029C161.965 4.73242 183.607 3.97236 203.83 8.72272"
        stroke="#C9D4E2" stroke-width="2" stroke-miterlimit="10" stroke-dasharray="4 4" />
    <path d="M115.31 160.543H104.312V163.393H115.31V160.543Z" fill="#989FB0" />
    <path
        d="M214.473 3.78216C214.295 6.63237 214.118 9.29257 212.167 9.86261C210.215 10.4327 209.328 8.53251 208.087 5.87231C206.845 3.40213 207.554 0.741925 209.683 0.171882C211.634 -0.398161 214.828 0.361896 214.473 3.78216Z"
        fill="#DAE2EB" />
    <path
        d="M212.344 17.4651C212.877 14.0448 213.409 12.1447 211.635 11.1946C209.684 10.2445 208.442 11.9547 206.313 14.2348C204.539 16.325 205.603 19.3652 207.377 20.3153C209.506 21.4554 211.812 20.3153 212.344 17.4651Z"
        fill="#DAE2EB" />
    <path
        d="M214.827 11.1915C214.65 12.5216 213.763 13.4717 212.521 13.6617C211.989 13.6617 211.457 13.6617 210.747 13.6617C208.264 13.2817 206.312 11.5715 206.49 9.8614C206.667 8.15127 208.973 7.2012 211.812 7.58122C212.344 7.58122 212.876 7.77124 213.231 7.96125C214.295 8.34128 215.005 9.67138 214.827 11.1915C214.827 11.1915 214.827 11.0015 214.827 11.1915Z"
        fill="#989FB0" />
    <path
        d="M16.8584 64.586C16.8584 61.3558 16.8584 58.1255 18.9871 57.1755C21.2933 56.2254 22.535 58.5056 24.309 61.7358C25.9055 64.586 25.1959 67.6263 22.8898 68.5763C20.9385 69.5264 16.8584 68.9564 16.8584 64.586Z"
        fill="#DAE2EB" />
    <path
        d="M18.0983 48.6247C17.7435 52.615 17.2113 54.8952 19.5175 55.8453C21.8236 56.7953 23.0653 54.7052 25.3715 51.665C27.1454 49.0048 25.9037 45.5845 23.5975 44.6344C21.2914 43.6844 18.4531 45.3945 18.0983 48.6247Z"
        fill="#DAE2EB" />
    <path
        d="M16.1465 56.2271C16.1465 54.707 17.2108 53.5669 18.4526 53.3769C18.9848 53.1869 19.6944 53.1869 20.4039 53.3769C23.2423 53.5669 25.7258 55.277 25.5484 57.1772C25.371 59.0773 23.0649 60.4074 20.0492 60.0274C19.517 60.0274 18.9848 59.8374 18.4526 59.6474C17.0335 59.4573 16.1465 57.9372 16.1465 56.2271Z"
        fill="#989FB0" />
    <path d="M28.209 56.7969C46.8354 56.7969 81.2498 68.3878 81.782 110.951" stroke="#C9D4E2"
        stroke-width="2" stroke-miterlimit="10" stroke-dasharray="4 4" />
    <defs>
        <filter id="filter0_d_835_596" x="0.177734" y="76.3887" width="224.224" height="155.729"
            filterUnits="userSpaceOnUse" color-interpolation-filters="sRGB">
            <feFlood flood-opacity="0" result="BackgroundImageFix" />
            <feColorMatrix in="SourceAlpha" type="matrix"
                values="0 0 0 0 0 0 0 0 0 0 0 0 0 0 0 0 0 0 127 0" result="hardAlpha" />
            <feOffset dy="11" />
            <feGaussianBlur stdDeviation="11" />
            <feColorMatrix type="matrix"
                values="0 0 0 0 0.397708 0 0 0 0 0.47749 0 0 0 0 0.575 0 0 0 0.27 0" />
            <feBlend mode="normal" in2="BackgroundImageFix" result="effect1_dropShadow_835_596" />
            <feBlend mode="normal" in="SourceGraphic" in2="effect1_dropShadow_835_596"
                result="shape" />
        </filter>
        <linearGradient id="paint0_linear_835_596" x1="108.315" y1="72.6459" x2="108.315"
            y2="132.265" gradientUnits="userSpaceOnUse">
            <stop stop-color="#B0BACC" />
            <stop offset="1" stop-color="#969EAE" />
        </linearGradient>
        <linearGradient id="paint1_linear_835_596" x1="112.231" y1="84.8043" x2="112.231"
            y2="200.322" gradientUnits="userSpaceOnUse">
            <stop stop-color="#FDFEFF" />
            <stop offset="0.9964" stop-color="#ECF0F5" />
        </linearGradient>
        <linearGradient id="paint2_linear_835_596" x1="131.219" y1="187.144" x2="200.717"
            y2="187.144" gradientUnits="userSpaceOnUse">
            <stop stop-color="#B0BACC" />
            <stop offset="1" stop-color="#969EAE" />
        </linearGradient>
    </defs>
</svg>