<svg xmlns="http://www.w3.org/2000/svg" width="188" height="32" viewBox="0 0 188 32" fill="none">
    <path
        d="M14.2023 16.1923C15.9106 16.5056 17.3584 17.36 18.5455 18.7557C19.7327 20.1513 20.3262 21.7748 20.3262 23.6262C20.3262 25.1357 19.9353 26.5029 19.1536 27.7276C18.4007 28.9239 17.286 29.8781 15.8093 30.5901C14.3326 31.2737 12.5664 31.6155 10.5106 31.6155H0V1.75167H10.2065C13.2758 1.75167 15.6066 2.44949 17.1991 3.84513C18.8206 5.24077 19.6313 7.0494 19.6313 9.27103C19.6313 11.1224 19.1246 12.632 18.1112 13.7997C17.0978 14.939 15.7948 15.7365 14.2023 16.1923ZM3.04025 14.9533H10.1197C12.1755 14.9533 13.7535 14.4833 14.8538 13.5434C15.983 12.575 16.5476 11.2506 16.5476 9.57009C16.5476 7.91811 15.983 6.62216 14.8538 5.68224C13.7535 4.74232 12.132 4.27236 9.98939 4.27236H3.04025V14.9533ZM10.2934 29.0948C12.494 29.0948 14.2023 28.5821 15.4184 27.5567C16.6635 26.5314 17.286 25.1215 17.286 23.3271C17.286 21.5327 16.6345 20.1086 15.3315 19.0547C14.0575 17.9724 12.3347 17.4312 10.1631 17.4312H3.04025V29.0948H10.2934Z"
        fill="white" />
    <path
        d="M36.2953 31.9573C34.0658 31.9573 32.0535 31.4731 30.2583 30.5047C28.492 29.5078 27.0877 28.1121 26.0454 26.3178C25.0319 24.4949 24.5252 22.3729 24.5252 19.9519C24.5252 17.5309 25.0464 15.4232 26.0888 13.6288C27.1312 11.806 28.5499 10.4103 30.3451 9.44192C32.1403 8.44504 34.1527 7.9466 36.3822 7.9466C38.6117 7.9466 40.6241 8.44504 42.4193 9.44192C44.2434 10.4103 45.6622 11.806 46.6756 13.6288C47.718 15.4232 48.2392 17.5309 48.2392 19.9519C48.2392 22.3445 47.718 24.4522 46.6756 26.275C45.6332 28.0979 44.2 29.5078 42.3758 30.5047C40.5517 31.4731 38.5249 31.9573 36.2953 31.9573ZM36.2953 29.3511C37.8589 29.3511 39.3066 29.0093 40.6385 28.3258C41.9705 27.6137 43.0418 26.5599 43.8525 25.1642C44.6922 23.7401 45.1121 22.0027 45.1121 19.9519C45.1121 17.9012 44.7067 16.178 43.896 14.7824C43.0852 13.3583 42.0139 12.3044 40.682 11.6208C39.3501 10.9088 37.9023 10.5527 36.3388 10.5527C34.7752 10.5527 33.3275 10.9088 31.9956 11.6208C30.6636 12.3044 29.5923 13.3583 28.7816 14.7824C27.9998 16.178 27.6089 17.9012 27.6089 19.9519C27.6089 22.0027 27.9998 23.7401 28.7816 25.1642C29.5923 26.5599 30.6492 27.6137 31.9521 28.3258C33.284 29.0093 34.7318 29.3511 36.2953 29.3511Z"
        fill="white" />
    <path
        d="M64.1615 31.9573C61.9319 31.9573 59.9196 31.4731 58.1244 30.5047C56.3581 29.5078 54.9538 28.1121 53.9115 26.3178C52.8981 24.4949 52.3913 22.3729 52.3913 19.9519C52.3913 17.5309 52.9125 15.4232 53.9549 13.6288C54.9973 11.806 56.4161 10.4103 58.2113 9.44192C60.0064 8.44504 62.0188 7.9466 64.2483 7.9466C66.4778 7.9466 68.4902 8.44504 70.2854 9.44192C72.1095 10.4103 73.5283 11.806 74.5417 13.6288C75.5841 15.4232 76.1053 17.5309 76.1053 19.9519C76.1053 22.3445 75.5841 24.4522 74.5417 26.275C73.4994 28.0979 72.0661 29.5078 70.242 30.5047C68.4178 31.4731 66.391 31.9573 64.1615 31.9573ZM64.1615 29.3511C65.725 29.3511 67.1727 29.0093 68.5047 28.3258C69.8366 27.6137 70.9079 26.5599 71.7186 25.1642C72.5583 23.7401 72.9782 22.0027 72.9782 19.9519C72.9782 17.9012 72.5728 16.178 71.7621 14.7824C70.9513 13.3583 69.88 12.3044 68.5481 11.6208C67.2162 10.9088 65.7684 10.5527 64.2049 10.5527C62.6413 10.5527 61.1936 10.9088 59.8617 11.6208C58.5298 12.3044 57.4584 13.3583 56.6477 14.7824C55.8659 16.178 55.475 17.9012 55.475 19.9519C55.475 22.0027 55.8659 23.7401 56.6477 25.1642C57.4584 26.5599 58.5153 27.6137 59.8182 28.3258C61.1502 29.0093 62.5979 29.3511 64.1615 29.3511Z"
        fill="white" />
    <path
        d="M94.4598 31.6155L84.6875 21.1482V31.6155H81.6473V0H84.6875V18.713L94.2426 8.28838H98.499L87.25 19.9092L98.5858 31.6155H94.4598Z"
        fill="white" />
    <path
        d="M101.125 19.9092C101.125 17.5167 101.603 15.4232 102.558 13.6288C103.543 11.806 104.889 10.4103 106.598 9.44192C108.335 8.44504 110.289 7.9466 112.461 7.9466C114.719 7.9466 116.659 8.45928 118.281 9.48465C119.931 10.51 121.118 11.8202 121.842 13.4152V8.28838H124.883V31.6155H121.842V26.4459C121.09 28.0409 119.888 29.3654 118.237 30.4192C116.616 31.4446 114.676 31.9573 112.418 31.9573C110.275 31.9573 108.335 31.4588 106.598 30.462C104.889 29.4651 103.543 28.0552 102.558 26.2323C101.603 24.4094 101.125 22.3017 101.125 19.9092ZM121.842 19.9519C121.842 18.0721 121.451 16.4201 120.67 14.996C119.888 13.5719 118.817 12.4753 117.456 11.7063C116.124 10.9372 114.647 10.5527 113.026 10.5527C111.346 10.5527 109.841 10.923 108.509 11.6636C107.177 12.4041 106.12 13.4864 105.338 14.9105C104.585 16.3062 104.209 17.9724 104.209 19.9092C104.209 21.8175 104.585 23.498 105.338 24.9506C106.12 26.3747 107.177 27.4713 108.509 28.2403C109.841 28.9809 111.346 29.3511 113.026 29.3511C114.647 29.3511 116.124 28.9666 117.456 28.1976C118.817 27.4286 119.888 26.332 120.67 24.9079C121.451 23.4838 121.842 21.8318 121.842 19.9519Z"
        fill="white" />
    <path
        d="M153.452 10.4673C152.671 8.9862 151.585 7.87539 150.195 7.13485C148.805 6.36582 147.198 5.98131 145.374 5.98131C143.376 5.98131 141.595 6.42279 140.032 7.30574C138.468 8.18869 137.238 9.44192 136.34 11.0654C135.472 12.6889 135.037 14.5688 135.037 16.7049C135.037 18.8411 135.472 20.7352 136.34 22.3872C137.238 24.0107 138.468 25.2639 140.032 26.1469C141.595 27.0298 143.376 27.4713 145.374 27.4713C148.067 27.4713 150.253 26.7308 151.932 25.2497C153.612 23.7686 154.64 21.7606 155.016 19.2256H143.68V15.3378H160.315V19.1402C159.996 21.4473 159.157 23.5692 157.796 25.506C156.464 27.4428 154.712 28.9951 152.54 30.1629C150.398 31.3022 148.009 31.8718 145.374 31.8718C142.537 31.8718 139.945 31.231 137.6 29.9493C135.254 28.6391 133.387 26.8304 131.997 24.5234C130.636 22.2163 129.956 19.6101 129.956 16.7049C129.956 13.7997 130.636 11.1936 131.997 8.88651C133.387 6.57944 135.254 4.78505 137.6 3.50334C139.974 2.19314 142.565 1.53805 145.374 1.53805C148.588 1.53805 151.44 2.32132 153.93 3.88785C156.449 5.4259 158.273 7.61905 159.403 10.4673H153.452Z"
        fill="white" />
    <path
        d="M175.578 32C173.32 32 171.279 31.5016 169.454 30.5047C167.63 29.4793 166.197 28.0552 165.155 26.2323C164.112 24.381 163.591 22.2448 163.591 19.8238C163.591 17.4312 164.127 15.3093 165.198 13.4579C166.269 11.6066 167.732 10.1825 169.585 9.18558C171.438 8.18869 173.508 7.69025 175.796 7.69025C178.083 7.69025 180.153 8.18869 182.006 9.18558C183.859 10.1825 185.322 11.6066 186.393 13.4579C187.464 15.3093 188 17.4312 188 19.8238C188 22.2163 187.45 24.3382 186.35 26.1896C185.249 28.0409 183.744 29.4793 181.833 30.5047C179.951 31.5016 177.866 32 175.578 32ZM175.578 27.7704C176.852 27.7704 178.04 27.4713 179.14 26.8732C180.269 26.275 181.181 25.3778 181.876 24.1816C182.571 22.9853 182.918 21.5327 182.918 19.8238C182.918 18.1148 182.585 16.6765 181.919 15.5087C181.254 14.3124 180.37 13.4152 179.27 12.8171C178.17 12.219 176.983 11.9199 175.709 11.9199C174.435 11.9199 173.248 12.219 172.147 12.8171C171.076 13.4152 170.222 14.3124 169.585 15.5087C168.948 16.6765 168.629 18.1148 168.629 19.8238C168.629 22.3587 169.281 24.324 170.584 25.7196C171.916 27.0868 173.581 27.7704 175.578 27.7704Z"
        fill="white" />
</svg>