<svg xmlns="http://www.w3.org/2000/svg" width="87" height="16" viewBox="0 0 87 16" fill="none">
    <path
        d="M6.54 8.08977C7.32667 8.23643 7.99333 8.63643 8.54 9.28977C9.08667 9.9431 9.36 10.7031 9.36 11.5698C9.36 12.2764 9.18 12.9164 8.82 13.4898C8.47333 14.0498 7.96 14.4964 7.28 14.8298C6.6 15.1498 5.78667 15.3098 4.84 15.3098H0V1.32976H4.7C6.11333 1.32976 7.18667 1.65643 7.92 2.30977C8.66667 2.9631 9.04 3.80977 9.04 4.84977C9.04 5.71643 8.80667 6.4231 8.34 6.96977C7.87333 7.5031 7.27333 7.87643 6.54 8.08977ZM1.4 7.50977H4.66C5.60667 7.50977 6.33333 7.28977 6.84 6.84977C7.36 6.39643 7.62 5.77643 7.62 4.98977C7.62 4.21643 7.36 3.60977 6.84 3.16976C6.33333 2.72976 5.58667 2.50976 4.6 2.50976H1.4V7.50977ZM4.74 14.1298C5.75333 14.1298 6.54 13.8898 7.1 13.4098C7.67333 12.9298 7.96 12.2698 7.96 11.4298C7.96 10.5898 7.66 9.9231 7.06 9.42977C6.47333 8.9231 5.68 8.66977 4.68 8.66977H1.4V14.1298H4.74Z"
        fill="#001111" />
    <path
        d="M16.7136 15.4698C15.6869 15.4698 14.7603 15.2431 13.9336 14.7898C13.1203 14.3231 12.4736 13.6698 11.9936 12.8298C11.5269 11.9764 11.2936 10.9831 11.2936 9.84977C11.2936 8.71643 11.5336 7.72977 12.0136 6.88977C12.4936 6.03643 13.1469 5.3831 13.9736 4.92976C14.8003 4.4631 15.7269 4.22977 16.7536 4.22977C17.7803 4.22977 18.7069 4.4631 19.5336 4.92976C20.3736 5.3831 21.0269 6.03643 21.4936 6.88977C21.9736 7.72977 22.2136 8.71643 22.2136 9.84977C22.2136 10.9698 21.9736 11.9564 21.4936 12.8098C21.0136 13.6631 20.3536 14.3231 19.5136 14.7898C18.6736 15.2431 17.7403 15.4698 16.7136 15.4698ZM16.7136 14.2498C17.4336 14.2498 18.1003 14.0898 18.7136 13.7698C19.3269 13.4364 19.8203 12.9431 20.1936 12.2898C20.5803 11.6231 20.7736 10.8098 20.7736 9.84977C20.7736 8.88977 20.5869 8.0831 20.2136 7.42977C19.8403 6.7631 19.3469 6.26976 18.7336 5.94977C18.1203 5.61643 17.4536 5.44977 16.7336 5.44977C16.0136 5.44977 15.3469 5.61643 14.7336 5.94977C14.1203 6.26976 13.6269 6.7631 13.2536 7.42977C12.8936 8.0831 12.7136 8.88977 12.7136 9.84977C12.7136 10.8098 12.8936 11.6231 13.2536 12.2898C13.6269 12.9431 14.1136 13.4364 14.7136 13.7698C15.3269 14.0898 15.9936 14.2498 16.7136 14.2498Z"
        fill="#001111" />
    <path
        d="M29.5456 15.4698C28.519 15.4698 27.5923 15.2431 26.7656 14.7898C25.9523 14.3231 25.3056 13.6698 24.8256 12.8298C24.359 11.9764 24.1256 10.9831 24.1256 9.84977C24.1256 8.71643 24.3656 7.72977 24.8456 6.88977C25.3256 6.03643 25.979 5.3831 26.8056 4.92976C27.6323 4.4631 28.559 4.22977 29.5856 4.22977C30.6123 4.22977 31.539 4.4631 32.3656 4.92976C33.2056 5.3831 33.859 6.03643 34.3256 6.88977C34.8056 7.72977 35.0456 8.71643 35.0456 9.84977C35.0456 10.9698 34.8056 11.9564 34.3256 12.8098C33.8456 13.6631 33.1856 14.3231 32.3456 14.7898C31.5056 15.2431 30.5723 15.4698 29.5456 15.4698ZM29.5456 14.2498C30.2656 14.2498 30.9323 14.0898 31.5456 13.7698C32.159 13.4364 32.6523 12.9431 33.0256 12.2898C33.4123 11.6231 33.6056 10.8098 33.6056 9.84977C33.6056 8.88977 33.419 8.0831 33.0456 7.42977C32.6723 6.7631 32.179 6.26976 31.5656 5.94977C30.9523 5.61643 30.2856 5.44977 29.5656 5.44977C28.8456 5.44977 28.179 5.61643 27.5656 5.94977C26.9523 6.26976 26.459 6.7631 26.0856 7.42977C25.7256 8.0831 25.5456 8.88977 25.5456 9.84977C25.5456 10.8098 25.7256 11.6231 26.0856 12.2898C26.459 12.9431 26.9456 13.4364 27.5456 13.7698C28.159 14.0898 28.8256 14.2498 29.5456 14.2498Z"
        fill="#001111" />
    <path
        d="M43.4977 15.3098L38.9977 10.4098V15.3098H37.5977V0.509766H38.9977V9.26977L43.3977 4.38977H45.3577L40.1777 9.82977L45.3977 15.3098H43.4977Z"
        fill="#001111" />
    <path
        d="M46.567 9.82977C46.567 8.70977 46.787 7.72977 47.227 6.88977C47.6804 6.03643 48.3004 5.3831 49.087 4.92976C49.887 4.4631 50.787 4.22977 51.787 4.22977C52.827 4.22977 53.7204 4.46977 54.467 4.94977C55.227 5.42977 55.7737 6.0431 56.107 6.78977V4.38977H57.507V15.3098H56.107V12.8898C55.7604 13.6364 55.207 14.2564 54.447 14.7498C53.7004 15.2298 52.807 15.4698 51.767 15.4698C50.7804 15.4698 49.887 15.2364 49.087 14.7698C48.3004 14.3031 47.6804 13.6431 47.227 12.7898C46.787 11.9364 46.567 10.9498 46.567 9.82977ZM56.107 9.84977C56.107 8.96977 55.927 8.19643 55.567 7.52977C55.207 6.8631 54.7137 6.34977 54.087 5.98977C53.4737 5.62977 52.7937 5.44977 52.047 5.44977C51.2737 5.44977 50.5804 5.6231 49.967 5.96977C49.3537 6.31643 48.867 6.8231 48.507 7.48977C48.1604 8.1431 47.987 8.9231 47.987 9.82977C47.987 10.7231 48.1604 11.5098 48.507 12.1898C48.867 12.8564 49.3537 13.3698 49.967 13.7298C50.5804 14.0764 51.2737 14.2498 52.047 14.2498C52.7937 14.2498 53.4737 14.0698 54.087 13.7098C54.7137 13.3498 55.207 12.8364 55.567 12.1698C55.927 11.5031 56.107 10.7298 56.107 9.84977Z"
        fill="#001111" />
    <path
        d="M70.6631 5.40977C70.3031 4.71643 69.8031 4.19643 69.1631 3.84977C68.5231 3.48977 67.7831 3.30977 66.9431 3.30977C66.0231 3.30977 65.2031 3.51643 64.4831 3.92977C63.7631 4.3431 63.1965 4.92976 62.7831 5.68976C62.3831 6.44977 62.1831 7.32977 62.1831 8.32977C62.1831 9.32977 62.3831 10.2164 62.7831 10.9898C63.1965 11.7498 63.7631 12.3364 64.4831 12.7498C65.2031 13.1631 66.0231 13.3698 66.9431 13.3698C68.1831 13.3698 69.1898 13.0231 69.9631 12.3298C70.7365 11.6364 71.2098 10.6964 71.3831 9.50977H66.1631V7.68977H73.8231V9.46977C73.6765 10.5498 73.2898 11.5431 72.6631 12.4498C72.0498 13.3564 71.2431 14.0831 70.2431 14.6298C69.2565 15.1631 68.1565 15.4298 66.9431 15.4298C65.6365 15.4298 64.4431 15.1298 63.3631 14.5298C62.2831 13.9164 61.4231 13.0698 60.7831 11.9898C60.1565 10.9098 59.8431 9.68977 59.8431 8.32977C59.8431 6.96977 60.1565 5.74976 60.7831 4.66977C61.4231 3.58977 62.2831 2.74976 63.3631 2.14976C64.4565 1.53643 65.6498 1.22976 66.9431 1.22976C68.4231 1.22976 69.7365 1.59643 70.8831 2.32976C72.0431 3.04977 72.8831 4.07643 73.4031 5.40977H70.6631Z"
        fill="#001111" />
    <path
        d="M80.8519 15.4898C79.8119 15.4898 78.8719 15.2564 78.0319 14.7898C77.1919 14.3098 76.5319 13.6431 76.0519 12.7898C75.5719 11.9231 75.3319 10.9231 75.3319 9.78977C75.3319 8.66977 75.5785 7.67643 76.0719 6.80977C76.5652 5.9431 77.2385 5.27643 78.0919 4.80976C78.9452 4.3431 79.8985 4.10977 80.9519 4.10977C82.0052 4.10977 82.9585 4.3431 83.8119 4.80976C84.6652 5.27643 85.3385 5.9431 85.8319 6.80977C86.3252 7.67643 86.5719 8.66977 86.5719 9.78977C86.5719 10.9098 86.3185 11.9031 85.8119 12.7698C85.3052 13.6364 84.6119 14.3098 83.7319 14.7898C82.8652 15.2564 81.9052 15.4898 80.8519 15.4898ZM80.8519 13.5098C81.4385 13.5098 81.9852 13.3698 82.4919 13.0898C83.0119 12.8098 83.4319 12.3898 83.7519 11.8298C84.0719 11.2698 84.2319 10.5898 84.2319 9.78977C84.2319 8.98977 84.0785 8.31643 83.7719 7.76977C83.4652 7.20977 83.0585 6.78977 82.5519 6.50977C82.0452 6.22976 81.4985 6.08977 80.9119 6.08977C80.3252 6.08977 79.7785 6.22976 79.2719 6.50977C78.7785 6.78977 78.3852 7.20977 78.0919 7.76977C77.7985 8.31643 77.6519 8.98977 77.6519 9.78977C77.6519 10.9764 77.9519 11.8964 78.5519 12.5498C79.1652 13.1898 79.9319 13.5098 80.8519 13.5098Z"
        fill="#001111" />
</svg>