<svg xmlns="http://www.w3.org/2000/svg" width="199" height="60" viewBox="0 0 199 60" fill="none">
    <path
        d="M193.918 30.6404V23.8164C195.041 23.8164 195.951 24.7265 195.951 25.8493V28.6077C195.951 29.7302 195.041 30.6404 193.918 30.6404Z"
        fill="#161E30" />
    <path
        d="M172.645 37.3245L43.2275 35.7041L37.7773 42.0109C37.9256 43.0337 38.8024 43.7925 39.8358 43.7925H46.4714L59.1628 45.7763H65.5953V47.178H86.3608C87.3491 47.178 88.2013 46.6061 88.6114 45.7763H107.446C108.343 46.6736 109.56 47.178 110.83 47.178H137.396C138.734 47.178 140.017 46.6465 140.963 45.7006H150.769C151.164 46.5712 152.038 47.178 153.056 47.178H173.822V45.7006H178.506C180.148 45.7006 181.698 44.9408 182.703 43.6427L172.645 37.3245Z"
        fill="#141414" />
    <path
        d="M148.873 17.395L150.742 14.7433C150.873 14.5572 151.043 14.451 151.221 14.4441L168.194 13.7865C168.459 13.7762 168.709 13.9743 168.86 14.313L166.542 14.9781L168.044 18.9253L157.759 20.8185L148.873 17.395Z"
        fill="#A63D2C" />
    <path
        d="M196.18 21.3468C196.18 21.6653 196.058 21.9873 195.802 22.2336L194.147 23.8166V32.0398L189.372 41.2551H185.089L182.702 43.6426H49.5416L48.0343 42.1384L37.1211 41.9809L8.53653 39.3865L2.52338 32.9596L2.33625 27.7572L2.14258 22.3516C2.14258 21.0018 2.9895 19.6701 4.31656 19.4222C17.0413 17.0462 50.3991 16.2562 50.3991 16.2562C57.6372 10.3548 66.1924 5.19857 70.3236 2.82096C72.0181 1.84544 73.8869 1.20838 75.8277 0.965515C88.5633 -0.630561 111.831 0.164364 119.069 0.466392C120.495 0.525552 121.848 1.08695 122.892 2.0525L123.178 2.3153L138.271 16.2562L189.815 18.7917C191.783 18.887 193.714 19.3795 195.487 20.2367C195.937 20.4569 196.18 20.8968 196.18 21.3468Z"
        fill="#C14833" />
    <path
        d="M194.147 26.2407V32.0403L189.371 41.2555H185.09L182.703 43.6431H49.5413L48.034 42.1389L37.1196 41.9807L8.53622 39.3867L2.52307 32.9598L2.33594 27.7577L194.147 26.2407Z"
        fill="#A63D2C" />
    <path
        d="M138.271 16.2567L69.7089 16.6179L50.3984 16.2567C57.6365 10.3553 66.1917 5.19906 70.3229 2.82145C72.0174 1.84593 73.8862 1.20887 75.827 0.966006C88.5626 -0.630071 111.831 0.16485 119.069 0.466878C120.494 0.526038 121.847 1.08744 122.891 2.05299L123.177 2.31579L138.271 16.2567Z"
        fill="#A63D2C" />
    <path d="M190.687 31.8042H5.62402V37.492H190.687V31.8042Z" fill="#7D2E20" />
    <path
        d="M146.601 32.6007C146.48 32.6007 146.382 32.5027 146.382 32.3822V31.2254C146.382 31.1049 146.48 31.0068 146.601 31.0068H151.146C151.267 31.0068 151.365 31.1049 151.365 31.2257V32.3822C151.365 32.5027 151.267 32.6007 151.146 32.6007H146.601Z"
        fill="#161E30" />
    <path
        d="M151.146 31.1598C151.182 31.1598 151.212 31.1893 151.212 31.2255V32.3819C151.212 32.4183 151.182 32.4476 151.146 32.4476H146.601C146.564 32.4476 146.535 32.418 146.535 32.3816V31.2252C146.535 31.1887 146.564 31.1595 146.601 31.1595L151.146 31.1598ZM151.146 30.854H146.6C146.395 30.854 146.229 31.0203 146.229 31.2258V32.3822C146.229 32.5874 146.395 32.754 146.6 32.754H151.146C151.351 32.754 151.517 32.5874 151.517 32.3822V31.2258C151.517 31.0203 151.351 30.854 151.146 30.854Z"
        fill="#EBEBEB" />
    <path
        d="M32.2414 33.0226C32.1209 33.0226 32.0225 32.9245 32.0225 32.804V31.6476C32.0225 31.5268 32.1205 31.4287 32.2414 31.4287H36.7867C36.9072 31.4287 37.0056 31.5268 37.0056 31.6476V32.804C37.0056 32.9245 36.9075 33.0226 36.7867 33.0226H32.2414Z"
        fill="#161E30" />
    <path
        d="M36.7863 31.5815C36.8227 31.5815 36.8523 31.611 36.8523 31.6475V32.8039C36.8523 32.8403 36.8227 32.8696 36.7863 32.8696H32.2409C32.2045 32.8696 32.1749 32.84 32.1749 32.8039V31.6472C32.1749 31.6107 32.2045 31.5812 32.2409 31.5812H36.7863M36.7863 31.2754H32.2409C32.0357 31.2754 31.8691 31.442 31.8691 31.6472V32.8036C31.8691 33.0088 32.0357 33.1754 32.2409 33.1754H36.7863C36.9915 33.1754 37.158 33.0088 37.158 32.8036V31.6472C37.158 31.442 36.9918 31.2754 36.7863 31.2754Z"
        fill="#EBEBEB" />
    <path d="M121.125 16.4656L119.149 2.59229L133.007 16.4656H121.125Z" fill="#161E30" />
    <path
        d="M119.368 3.0428L132.638 16.3127H121.257L119.368 3.0428ZM119.104 2.39453C119.038 2.39453 118.974 2.45151 118.986 2.53029L120.977 16.5167C120.986 16.5752 121.036 16.6185 121.095 16.6185H133.09C133.196 16.6185 133.249 16.4905 133.174 16.4158L119.187 2.4294C119.163 2.40512 119.133 2.39453 119.104 2.39453Z"
        fill="#EBEBEB" />
    <path
        d="M92.0792 16.4658C92.0172 16.4658 91.9668 16.4172 91.9639 16.3556L91.3477 2.45204C91.3465 2.42028 91.3577 2.39008 91.3798 2.36735C91.4016 2.34431 91.4312 2.33154 91.4633 2.33154H118.427C118.484 2.33154 118.533 2.37451 118.541 2.43118L120.498 16.3344C120.504 16.3799 120.483 16.4113 120.471 16.426C120.458 16.4409 120.429 16.4658 120.383 16.4658H92.0792Z"
        fill="#161E30" />
    <path
        d="M118.393 2.48399L120.34 16.3125H92.1147L91.5016 2.48399H118.393ZM118.426 2.17822H91.4627C91.3098 2.17822 91.1878 2.30589 91.1946 2.45846L91.8108 16.362C91.817 16.5055 91.9354 16.6186 92.0789 16.6186H120.383C120.546 16.6186 120.672 16.4744 120.649 16.3128L118.692 2.40926C118.673 2.27662 118.56 2.17822 118.426 2.17822Z"
        fill="#EBEBEB" />
    <path
        d="M191.144 30.6406H196.581C197.451 30.6406 198.156 31.3459 198.156 32.2162C198.156 32.5219 198.067 32.8208 197.901 33.0771L193.279 40.1617C192.828 40.8529 192.059 41.2695 191.234 41.2695H186.302L189.036 37.1679C189.333 36.7223 189.502 36.2039 189.524 35.6689L189.676 32.0489C189.709 31.2615 190.357 30.6406 191.144 30.6406Z"
        fill="#EBEBEB" />
    <path
        d="M4.95917 30.7642H1.7913C0.802085 30.7642 0 31.5663 0 32.5555C0 33.0306 0.188689 33.4861 0.524656 33.8221L5.29918 38.5966C6.07418 39.3716 7.12505 39.8069 8.22076 39.8069H11.9917L6.71186 31.7132C6.32577 31.121 5.66629 30.7642 4.95917 30.7642Z"
        fill="#EBEBEB" />
    <path
        d="M95.0902 21.1245H94.6708C94.0558 21.1245 93.5576 20.626 93.5576 20.0114V19.7106C93.5576 19.3186 93.8752 19.001 94.2672 19.001H96.2033V20.0114C96.2033 20.6263 95.7048 21.1245 95.0902 21.1245Z"
        fill="#EBEBEB" />
    <path d="M100.024 19.001H94.2461V19.8018H100.024V19.001Z" fill="#EBEBEB" />
    <path
        d="M100.824 19.8018C100.824 20.244 100.466 20.6027 100.024 20.6027C99.5814 20.6027 99.2227 20.2443 99.2227 19.8018C99.2227 19.3597 99.581 19.001 100.024 19.001C100.466 19.001 100.824 19.3597 100.824 19.8018Z"
        fill="#EBEBEB" />
    <path
        d="M94.4937 22.6685C94.8159 22.6685 95.0772 22.4072 95.0772 22.085C95.0772 21.7627 94.8159 21.5015 94.4937 21.5015C94.1714 21.5015 93.9102 21.7627 93.9102 22.085C93.9102 22.4072 94.1714 22.6685 94.4937 22.6685Z"
        fill="#EBEBEB" />
    <path
        d="M94.8379 20.063C94.8379 20.2526 94.6841 20.4067 94.4941 20.4067C94.3042 20.4067 94.1504 20.2529 94.1504 20.063C94.1504 19.8731 94.3042 19.7192 94.4941 19.7192C94.6841 19.7192 94.8379 19.8731 94.8379 20.063Z"
        fill="#7A7A7A" />
    <mask id="mask0_903_1260" style="mask-type:luminance" maskUnits="userSpaceOnUse" x="34" y="27"
        width="41" height="17">
        <path
            d="M34.5146 41.8645L64.619 43.6925L74.0516 43.6433L69.8824 27.2236L42.0102 28.1222L34.5146 41.8645Z"
            fill="white" />
    </mask>
    <g mask="url(#mask0_903_1260)">
        <path
            d="M60.7593 29.6826L52.4013 29.0897C49.8272 28.9073 47.2525 29.4397 44.962 30.6288C40.6555 32.8645 37.8136 37.1704 37.4515 42.009L37.1582 45.9298H72.5113C72.5113 45.7751 72.2709 43.3987 71.9773 40.5494C71.3723 34.6844 66.6408 30.0998 60.7593 29.6826Z"
            fill="#141414" stroke="#EBEBEB" stroke-width="1.9648" stroke-miterlimit="10"
            stroke-linecap="round" stroke-linejoin="round" />
    </g>
    <mask id="mask1_903_1260" style="mask-type:luminance" maskUnits="userSpaceOnUse" x="146" y="27"
        width="37" height="17">
        <path
            d="M148.38 43.6421H182.701L181.938 27.795L156.148 27.2417L146.228 34.0146L148.38 43.6421Z"
            fill="white" />
    </mask>
    <g mask="url(#mask1_903_1260)">
        <path
            d="M149.854 44.3648L150.107 40.7716C150.443 36.0011 153.021 31.8391 157.005 29.6371C158.823 28.6323 160.866 28.1011 162.914 28.1011C163.216 28.1011 163.521 28.1126 163.822 28.1353L171.672 28.7279C177.06 29.1348 181.373 33.5889 181.928 39.3194C182.239 42.5265 182.361 43.8448 182.405 44.3645L149.854 44.3648Z"
            fill="#141414" />
        <path
            d="M162.914 28.4072C163.208 28.4072 163.505 28.4185 163.798 28.4406L171.649 29.0334C176.888 29.4289 181.083 33.7675 181.623 39.3491C181.883 42.034 182.011 43.3891 182.071 44.0588H150.183L150.412 40.7929C150.74 36.1264 153.26 32.0562 157.153 29.9049C158.926 28.9251 160.918 28.4072 162.914 28.4072ZM162.914 27.7954C160.81 27.7954 158.732 28.3331 156.857 29.3694C152.811 31.605 150.142 35.9109 149.802 40.7499L149.526 44.6707H182.734C182.734 44.5159 182.508 42.1395 182.232 39.2902C181.664 33.4253 177.219 28.8407 171.695 28.4234L163.844 27.8306C163.534 27.8072 163.224 27.7954 162.914 27.7954Z"
            fill="#EBEBEB" />
    </g>
    <path
        d="M58.1609 54.8717C64.7069 53.3529 68.7823 46.8152 67.2635 40.2692C65.7448 33.7233 59.2071 29.6479 52.6611 31.1666C46.1152 32.6853 42.0398 39.2231 43.5585 45.769C45.0772 52.315 51.6149 56.3904 58.1609 54.8717Z"
        fill="#1F1F1F" />
    <path
        d="M56.9065 49.4258C60.4436 48.5987 62.6404 45.0608 61.8132 41.5238C60.9861 37.9868 57.4482 35.7899 53.9112 36.6171C50.3742 37.4442 48.1774 40.9821 49.0045 44.5191C49.8316 48.0561 53.3695 50.253 56.9065 49.4258Z"
        fill="#3D3D3D" />
    <path
        d="M51.9331 44.4931C52.7439 46.4123 54.9571 47.3113 56.8764 46.5004C58.7957 45.6896 59.6946 43.4764 58.8838 41.5572C58.073 39.6379 55.8598 38.739 53.9405 39.5498C52.0209 40.3603 51.1223 42.5735 51.9331 44.4931Z"
        fill="#7A7A7A" />
    <path
        d="M55.988 40.6531C56.101 40.9209 56.4099 41.0464 56.6777 40.9333C56.9454 40.8203 57.0709 40.5114 56.9579 40.2437C56.8449 39.9759 56.536 39.8504 56.2682 39.9634C56.0004 40.0765 55.8746 40.3853 55.988 40.6531Z"
        fill="#474747" />
    <path
        d="M52.3357 42.1961C52.4487 42.4639 52.7576 42.5893 53.0254 42.4763C53.2931 42.3633 53.4186 42.0544 53.3056 41.7866C53.1926 41.5189 52.8837 41.3934 52.6159 41.5064C52.3478 41.6194 52.2223 41.9283 52.3357 42.1961Z"
        fill="#474747" />
    <path
        d="M57.5466 44.3439C57.6596 44.6116 57.9685 44.7371 58.2363 44.6241C58.5041 44.5111 58.6296 44.2022 58.5165 43.9341C58.4035 43.6663 58.0946 43.5408 57.8265 43.6539C57.5588 43.7672 57.4333 44.0761 57.5466 44.3439Z"
        fill="#474747" />
    <path
        d="M53.8951 45.8865C54.0081 46.1543 54.317 46.2798 54.5848 46.1667C54.8526 46.0537 54.9781 45.7448 54.865 45.4771C54.752 45.2093 54.4431 45.0838 54.1753 45.1968C53.9073 45.3095 53.7821 45.6184 53.8951 45.8865Z"
        fill="#474747" />
    <path
        d="M54.865 40.6536C54.752 40.9214 54.4431 41.0469 54.1753 40.9338C53.9075 40.8208 53.782 40.5119 53.8951 40.2441C54.0081 39.9764 54.317 39.8509 54.5847 39.9639C54.8525 40.0769 54.9783 40.3858 54.865 40.6536Z"
        fill="#474747" />
    <path
        d="M58.5164 42.1961C58.4033 42.4639 58.0944 42.5893 57.8267 42.4763C57.5589 42.3633 57.4334 42.0544 57.5464 41.7866C57.6595 41.5189 57.9683 41.3934 58.2361 41.5064C58.5039 41.6194 58.6294 41.9283 58.5164 42.1961Z"
        fill="#474747" />
    <path
        d="M53.3057 44.3443C53.1927 44.6121 52.8838 44.7376 52.6157 44.6246C52.348 44.5115 52.2225 44.2027 52.3355 43.9346C52.4485 43.6668 52.7574 43.5413 53.0252 43.6543C53.2933 43.7677 53.4188 44.0766 53.3057 44.3443Z"
        fill="#474747" />
    <path
        d="M56.9578 45.887C56.8447 46.1548 56.5358 46.2803 56.2681 46.1672C56.0003 46.0542 55.8748 45.7453 55.9878 45.4775C56.1009 45.2098 56.4097 45.0843 56.6775 45.1973C56.9453 45.3103 57.0708 45.6189 56.9578 45.887Z"
        fill="#474747" />
    <path
        d="M55.4085 36.4478C59.0409 36.4478 61.9858 39.3924 61.9858 43.0252C61.9858 46.6579 59.0412 49.6025 55.4085 49.6025C51.7757 49.6025 48.8311 46.6576 48.8311 43.0252C48.8311 39.3927 51.7757 36.4478 55.4085 36.4478ZM55.4085 35.2241C51.1069 35.2241 47.6074 38.7236 47.6074 43.0248C47.6074 47.3264 51.1069 50.8259 55.4085 50.8259C59.71 50.8259 63.2092 47.3264 63.2092 43.0248C63.2092 38.7236 59.7097 35.2241 55.4085 35.2241Z"
        fill="#333333" />
    <path
        d="M55.4104 37.3654C58.5312 37.3654 61.0701 39.9043 61.0701 43.0251C61.0701 46.146 58.5312 48.6849 55.4104 48.6849C52.2895 48.6849 49.7506 46.146 49.7506 43.0251C49.7506 39.9043 52.2895 37.3654 55.4104 37.3654ZM55.4104 36.4478C51.7776 36.4478 48.833 39.3924 48.833 43.0251C48.833 46.6578 51.7776 49.6025 55.4104 49.6025C59.0428 49.6025 61.9877 46.6575 61.9877 43.0251C61.9874 39.3927 59.0428 36.4478 55.4104 36.4478Z"
        fill="#BFBFBF" />
    <path d="M55.8611 43.0246H54.9597L54.4375 36.9155H56.3836L55.8611 43.0246Z" fill="#BFBFBF" />
    <path d="M55.7282 43.3434L55.0908 42.7063L59.0412 38.0171L60.4174 39.393L55.7282 43.3434Z"
        fill="#BFBFBF" />
    <path d="M55.4102 43.4758V42.5747L61.5192 42.0522V43.9983L55.4102 43.4758Z" fill="#BFBFBF" />
    <path d="M55.0908 43.3431L55.7282 42.7061L60.4174 46.6564L59.0412 48.0323L55.0908 43.3431Z"
        fill="#BFBFBF" />
    <path d="M54.9597 43.0249H55.8611L56.3836 49.134H54.4375L54.9597 43.0249Z" fill="#BFBFBF" />
    <path d="M55.0896 42.7061L55.727 43.3431L51.7766 48.0323L50.4004 46.6564L55.0896 42.7061Z"
        fill="#BFBFBF" />
    <path d="M55.4092 42.5742V43.4753L49.2998 43.9978V42.0518L55.4092 42.5742Z" fill="#BFBFBF" />
    <path d="M55.727 42.7063L55.0896 43.3434L50.4004 39.393L51.7766 38.0171L55.727 42.7063Z"
        fill="#BFBFBF" />
    <path
        d="M54.5713 43.0249C54.5713 43.4882 54.9468 43.8637 55.4101 43.8637C55.8734 43.8637 56.2486 43.4882 56.2486 43.0249C56.2486 42.5615 55.8731 42.186 55.4101 42.186C54.9468 42.186 54.5713 42.5615 54.5713 43.0249Z"
        fill="#525252" />
    <path
        d="M56.9065 49.4258C60.4436 48.5987 62.6404 45.0608 61.8132 41.5238C60.9861 37.9868 57.4482 35.7899 53.9112 36.6171C50.3742 37.4442 48.1774 40.9821 49.0045 44.5191C49.8316 48.0561 53.3695 50.253 56.9065 49.4258Z"
        stroke="#2B2B2B" stroke-width="0.4912" stroke-miterlimit="10" />
    <path
        d="M55.4098 34.7588C59.975 34.7588 63.676 38.4597 63.676 43.025C63.676 47.5903 59.975 51.2912 55.4098 51.2912C50.8445 51.2912 47.1435 47.5903 47.1435 43.025C47.1435 38.4597 50.8445 34.7588 55.4098 34.7588ZM55.4098 34.5293C50.7252 34.5293 46.9141 38.3405 46.9141 43.025C46.9141 47.7095 50.7252 51.5207 55.4098 51.5207C60.0943 51.5207 63.9055 47.7095 63.9055 43.025C63.9051 38.3405 60.094 34.5293 55.4098 34.5293Z"
        fill="#333333" />
    <path
        d="M173.637 52.9065C179.098 48.9894 180.349 41.3872 176.432 35.9265C172.515 30.4658 164.913 29.2145 159.452 33.1316C153.991 37.0487 152.74 44.6509 156.657 50.1116C160.574 55.5723 168.176 56.8236 173.637 52.9065Z"
        fill="#1F1F1F" />
    <path
        d="M172.616 45.5395C174.006 42.1834 172.413 38.3357 169.056 36.9456C165.7 35.5554 161.853 37.1491 160.462 40.5052C159.072 43.8613 160.666 47.709 164.022 49.0992C167.378 50.4894 171.226 48.8956 172.616 45.5395Z"
        fill="#3D3D3D" />
    <path
        d="M163.06 44.4931C163.871 46.4123 166.084 47.3113 168.003 46.5004C169.922 45.6896 170.821 43.4764 170.011 41.5572C169.2 39.6379 166.987 38.739 165.067 39.5498C163.148 40.3603 162.249 42.5735 163.06 44.4931Z"
        fill="#7A7A7A" />
    <path
        d="M167.115 40.6536C167.228 40.9214 167.537 41.0469 167.805 40.9338C168.073 40.8208 168.198 40.5119 168.085 40.2441C167.972 39.9764 167.663 39.8509 167.395 39.9639C167.127 40.0769 167.002 40.3858 167.115 40.6536Z"
        fill="#474747" />
    <path
        d="M163.462 42.1966C163.575 42.4643 163.884 42.5898 164.152 42.4768C164.42 42.3638 164.545 42.0549 164.432 41.7871C164.319 41.5193 164.01 41.3939 163.743 41.5069C163.475 41.6199 163.349 41.9288 163.462 42.1966Z"
        fill="#474747" />
    <path
        d="M168.673 44.3448C168.786 44.6126 169.095 44.7381 169.363 44.6251C169.631 44.512 169.757 44.2032 169.644 43.9351C169.531 43.6673 169.222 43.5418 168.954 43.6548C168.686 43.7682 168.56 44.0771 168.673 44.3448Z"
        fill="#474747" />
    <path
        d="M165.022 45.888C165.135 46.1557 165.444 46.2812 165.712 46.1682C165.979 46.0552 166.105 45.7463 165.992 45.4785C165.879 45.2107 165.57 45.0853 165.302 45.1983C165.034 45.311 164.909 45.6199 165.022 45.888Z"
        fill="#474747" />
    <path
        d="M165.991 40.6536C165.878 40.9214 165.569 41.0469 165.301 40.9338C165.034 40.8208 164.908 40.5119 165.021 40.2441C165.134 39.9764 165.443 39.8509 165.711 39.9639C165.979 40.0769 166.104 40.3858 165.991 40.6536Z"
        fill="#474747" />
    <path
        d="M169.642 42.1966C169.529 42.4643 169.22 42.5898 168.953 42.4768C168.685 42.3638 168.559 42.0549 168.672 41.7871C168.785 41.5193 169.094 41.3939 169.362 41.5069C169.63 41.6199 169.756 41.9288 169.642 42.1966Z"
        fill="#474747" />
    <path
        d="M164.432 44.3443C164.319 44.6121 164.01 44.7376 163.742 44.6246C163.474 44.5115 163.348 44.2027 163.461 43.9346C163.575 43.6668 163.883 43.5413 164.151 43.6543C164.42 43.7677 164.545 44.0766 164.432 44.3443Z"
        fill="#474747" />
    <path
        d="M168.084 45.887C167.971 46.1548 167.662 46.2803 167.394 46.1672C167.126 46.0542 167.001 45.7453 167.114 45.4775C167.227 45.2098 167.536 45.0843 167.804 45.1973C168.072 45.31 168.197 45.6189 168.084 45.887Z"
        fill="#474747" />
    <path
        d="M166.534 36.4473C170.167 36.4473 173.112 39.3919 173.112 43.0247C173.112 46.6574 170.167 49.602 166.534 49.602C162.902 49.602 159.957 46.6571 159.957 43.0247C159.957 39.3922 162.902 36.4473 166.534 36.4473ZM166.534 35.2236C162.233 35.2236 158.733 38.7231 158.733 43.0244C158.733 47.3259 162.233 50.8254 166.534 50.8254C170.836 50.8254 174.335 47.3259 174.335 43.0244C174.335 38.7231 170.836 35.2236 166.534 35.2236Z"
        fill="#333333" />
    <path
        d="M166.534 37.3649C169.655 37.3649 172.194 39.9038 172.194 43.0246C172.194 46.1455 169.655 48.6844 166.534 48.6844C163.414 48.6844 160.875 46.1455 160.875 43.0246C160.875 39.9038 163.414 37.3649 166.534 37.3649ZM166.534 36.4473C162.902 36.4473 159.957 39.3919 159.957 43.0246C159.957 46.6574 162.902 49.602 166.534 49.602C170.167 49.602 173.112 46.657 173.112 43.0246C173.112 39.3922 170.167 36.4473 166.534 36.4473Z"
        fill="#BFBFBF" />
    <path d="M166.985 43.0246H166.084L165.562 36.9155H167.508L166.985 43.0246Z" fill="#BFBFBF" />
    <path d="M166.852 43.3438L166.215 42.7068L170.165 38.0176L171.541 39.3935L166.852 43.3438Z"
        fill="#BFBFBF" />
    <path d="M166.534 43.4753V42.5742L172.643 42.0518V43.9978L166.534 43.4753Z" fill="#BFBFBF" />
    <path d="M166.215 43.3436L166.852 42.7065L171.541 46.6569L170.165 48.0328L166.215 43.3436Z"
        fill="#BFBFBF" />
    <path d="M166.084 43.0249H166.985L167.508 49.134H165.562L166.084 43.0249Z" fill="#BFBFBF" />
    <path d="M166.217 42.7065L166.854 43.3436L162.903 48.0328L161.527 46.6569L166.217 42.7065Z"
        fill="#BFBFBF" />
    <path d="M166.535 42.5742V43.4753L160.426 43.9978V42.0518L166.535 42.5742Z" fill="#BFBFBF" />
    <path d="M166.854 42.7068L166.217 43.3438L161.527 39.3935L162.903 38.0176L166.854 42.7068Z"
        fill="#BFBFBF" />
    <path
        d="M165.695 43.0249C165.695 43.4882 166.071 43.8637 166.534 43.8637C166.997 43.8637 167.373 43.4882 167.373 43.0249C167.373 42.5615 166.997 42.186 166.534 42.186C166.071 42.186 165.695 42.5615 165.695 43.0249Z"
        fill="#525252" />
    <path
        d="M172.616 45.5395C174.006 42.1834 172.413 38.3357 169.056 36.9456C165.7 35.5554 161.853 37.1491 160.462 40.5052C159.072 43.8613 160.666 47.709 164.022 49.0992C167.378 50.4894 171.226 48.8956 172.616 45.5395Z"
        stroke="#2B2B2B" stroke-width="0.4912" stroke-miterlimit="10" />
    <path
        d="M166.534 34.7588C171.099 34.7588 174.8 38.4597 174.8 43.025C174.8 47.5903 171.099 51.2912 166.534 51.2912C161.969 51.2912 158.268 47.5903 158.268 43.025C158.268 38.4597 161.969 34.7588 166.534 34.7588ZM166.534 34.5293C161.849 34.5293 158.038 38.3405 158.038 43.025C158.038 47.7095 161.849 51.5207 166.534 51.5207C171.218 51.5207 175.029 47.7095 175.029 43.025C175.029 38.3405 171.218 34.5293 166.534 34.5293Z"
        fill="#333333" />
    <path
        d="M127.41 22.7841C127.948 22.7078 128.486 22.6421 129.024 22.5858C129.562 22.5244 130.101 22.4796 130.639 22.4288C131.178 22.3877 131.717 22.3373 132.256 22.304C132.795 22.271 133.334 22.2274 133.874 22.2025C134.03 22.1953 134.163 22.3108 134.181 22.4637L134.181 22.4681C134.285 23.4031 134.382 24.3391 134.465 25.2763L134.465 25.28C134.479 25.4432 134.359 25.587 134.196 25.6014L134.17 25.6026C133.638 25.6023 133.107 25.5852 132.576 25.5743C132.045 25.5659 131.513 25.5391 130.982 25.521C129.919 25.4718 128.857 25.4136 127.794 25.3059C128.857 25.1981 129.919 25.1399 130.982 25.0907C131.513 25.0727 132.045 25.0459 132.576 25.0375C133.107 25.0266 133.638 25.0095 134.17 25.0091L133.874 25.3355C133.769 24.4004 133.677 23.4641 133.593 22.5269L133.9 22.7925C133.36 22.8155 132.82 22.8199 132.28 22.8342C131.739 22.8486 131.199 22.8458 130.658 22.8526C130.117 22.8495 129.576 22.8526 129.035 22.8389C128.494 22.8308 127.952 22.8127 127.41 22.7841Z"
        fill="#782C1F" />
    <path
        d="M126.864 18.6557C127.402 18.5794 127.939 18.5137 128.478 18.4573C129.016 18.396 129.554 18.3512 130.093 18.3004C130.632 18.2593 131.171 18.2089 131.71 18.1755C132.249 18.1422 132.788 18.099 133.328 18.074C133.484 18.0669 133.617 18.1824 133.635 18.3353L133.635 18.3396C133.739 19.2747 133.836 20.2107 133.919 21.1479L133.919 21.1516C133.934 21.3148 133.813 21.4586 133.65 21.4729L133.624 21.4742C133.093 21.4739 132.561 21.4568 132.03 21.4459C131.499 21.4378 130.967 21.4107 130.436 21.3926C129.373 21.3434 128.311 21.2852 127.248 21.1775C128.311 21.0697 129.373 21.0115 130.436 20.9623C130.967 20.9442 131.499 20.9175 132.03 20.9091C132.561 20.8982 133.093 20.881 133.624 20.8807L133.329 21.207C133.223 20.272 133.131 19.3357 133.047 18.3985L133.354 18.6641C132.814 18.6871 132.274 18.6915 131.734 18.7058C131.194 18.7201 130.653 18.7173 130.112 18.7242C129.571 18.7211 129.03 18.7242 128.489 18.7105C127.948 18.7024 127.406 18.6843 126.864 18.6557Z"
        fill="#782C1F" />
    <path
        d="M91.0039 16.3169L92.2189 25.1476C92.2765 25.5667 92.3054 25.9889 92.3054 26.4118V43.6127"
        stroke="#141414" stroke-width="0.9824" stroke-miterlimit="10" stroke-linecap="round"
        stroke-linejoin="round" />
    <path
        d="M134.375 16.0156L136.107 24.6985C136.236 25.3461 136.305 26.004 136.315 26.6641L136.55 43.6129"
        stroke="#141414" stroke-width="0.9824" stroke-miterlimit="10" stroke-linecap="round"
        stroke-linejoin="round" />
    <path
        d="M69.7094 16.4658C69.6303 16.4658 69.5954 16.407 69.5864 16.3892C69.5777 16.3712 69.5528 16.3073 69.6016 16.2451L78.3536 5.06256C79.7118 3.32699 81.755 2.33154 83.9589 2.33154H90.6013C90.6748 2.33154 90.7349 2.38915 90.7377 2.46263L91.3121 16.3238C91.3137 16.3612 91.3003 16.397 91.2742 16.4241C91.2483 16.4512 91.2131 16.4661 91.1754 16.4661H69.7094V16.4658Z"
        fill="#161E30" />
    <path
        d="M90.5856 2.48399L91.1589 16.3125H69.7423L78.474 5.15616C79.8032 3.45795 81.8022 2.48399 83.9588 2.48399H90.5856ZM90.6012 2.17822H83.9588C81.7228 2.17822 79.6111 3.20698 78.233 4.96777L69.4811 16.1503C69.3322 16.3405 69.4677 16.6186 69.7093 16.6186H91.176C91.3407 16.6186 91.4721 16.4816 91.4652 16.3169L90.8908 2.45565C90.8842 2.30059 90.7566 2.17822 90.6012 2.17822Z"
        fill="#EBEBEB" />
    <path
        d="M138.27 16.2568H134.237C134.07 16.2568 133.912 16.1911 133.794 16.0728L120.444 2.71322C120.316 2.55879 120.428 2.31592 120.635 2.31592H123.177L123.531 2.64441L137.916 15.9287L138.27 16.2568Z"
        fill="#161E30" />
    <path
        d="M137.917 15.9282H134.13C134.12 15.9282 134.11 15.9247 134.1 15.9151L120.839 2.64392H123.532L123.178 2.31543H120.462C120.307 2.31543 120.232 2.49945 120.34 2.6078L120.445 2.71274L133.795 16.0723L133.871 16.148C133.94 16.2171 134.032 16.2563 134.13 16.2563H138.271L137.917 15.9282Z"
        fill="#EBEBEB" />
    <mask id="mask2_903_1260" style="mask-type:luminance" maskUnits="userSpaceOnUse" x="91" y="2"
        width="30" height="15">
        <path
            d="M91.4617 2.17822H118.425C118.559 2.17822 118.672 2.27662 118.691 2.40926L120.648 16.3128C120.67 16.4744 120.545 16.6186 120.382 16.6186H92.0779C91.9344 16.6186 91.8161 16.5055 91.8098 16.362L91.1936 2.45846C91.1868 2.30558 91.3088 2.17822 91.4617 2.17822Z"
            fill="white" />
    </mask>
    <g mask="url(#mask2_903_1260)">
        <g opacity="0.5">
            <path opacity="0.12"
                d="M121.491 -0.119207L115.786 -5.82422L92.151 17.8109L97.856 23.5159L121.491 -0.119207Z"
                fill="white" />
            <path opacity="0.12"
                d="M123.908 2.29747L122.602 0.991211L98.9662 24.6266L100.272 25.9328L123.908 2.29747Z"
                fill="white" />
            <path opacity="0.12"
                d="M114.814 -6.79636L112.287 -9.32324L88.652 14.3119L91.1789 16.8388L114.814 -6.79636Z"
                fill="white" />
        </g>
    </g>
    <mask id="mask3_903_1260" style="mask-type:luminance" maskUnits="userSpaceOnUse" x="69" y="2"
        width="23" height="15">
        <path
            d="M69.7081 16.6184H91.1748C91.3395 16.6184 91.4709 16.4814 91.4641 16.3167L90.8896 2.45547C90.8831 2.30041 90.7554 2.17773 90.6 2.17773H83.9576C81.7217 2.17773 79.61 3.2065 78.2318 4.96729L69.4799 16.1498C69.3314 16.3403 69.4668 16.6184 69.7081 16.6184Z"
            fill="white" />
    </mask>
    <g mask="url(#mask3_903_1260)">
        <g opacity="0.5">
            <path opacity="0.12"
                d="M93.6697 3.38793L88.8867 -1.39502L68.9956 18.4961L73.7785 23.2791L93.6697 3.38793Z"
                fill="white" />
            <path opacity="0.12"
                d="M95.6967 5.41348L94.6016 4.31836L74.7104 24.2095L75.8055 25.3046L95.6967 5.41348Z"
                fill="white" />
        </g>
    </g>
    <mask id="mask4_903_1260" style="mask-type:luminance" maskUnits="userSpaceOnUse" x="118" y="2"
        width="16" height="15">
        <path
            d="M133.172 16.4156L119.186 2.42919C119.105 2.34854 118.969 2.41705 118.985 2.52976L120.976 16.5161C120.985 16.5747 121.035 16.6179 121.094 16.6179H133.089C133.194 16.6183 133.247 16.4903 133.172 16.4156Z"
            fill="white" />
    </mask>
    <g mask="url(#mask4_903_1260)">
        <g opacity="0.5">
            <path opacity="0.12"
                d="M128.873 2.40623L127.666 1.19971L112.433 16.4332L113.639 17.6397L128.873 2.40623Z"
                fill="white" />
            <path opacity="0.12"
                d="M133.996 7.43306L129.827 3.26416L114.594 18.4976L118.763 22.6665L133.996 7.43306Z"
                fill="white" />
        </g>
    </g>
    <mask id="mask5_903_1260" style="mask-type:luminance" maskUnits="userSpaceOnUse" x="120" y="2"
        width="19" height="15">
        <path
            d="M138.272 16.2554H134.239C134.072 16.2554 133.914 16.1897 133.796 16.0713L120.446 2.71176C120.318 2.55732 120.43 2.31445 120.637 2.31445H123.179L123.533 2.64295L137.918 15.9272L138.272 16.2554Z"
            fill="white" />
    </mask>
    <g mask="url(#mask5_903_1260)">
        <g opacity="0.5">
            <path opacity="0.12"
                d="M135.676 9.35912L130.893 4.57617L123.556 11.9129L128.339 16.6958L135.676 9.35912Z"
                fill="white" />
            <path opacity="0.12"
                d="M137.701 11.3842L136.605 10.2891L129.269 17.6257L130.364 18.7209L137.701 11.3842Z"
                fill="white" />
            <path opacity="0.12"
                d="M130.101 3.78408L128.192 1.875L120.856 9.21168L122.765 11.1208L130.101 3.78408Z"
                fill="white" />
        </g>
    </g>
    <path d="M72.3076 42.5923L72.6258 43.65L149.598 43.6425L149.688 42.7034L72.3076 42.5923Z"
        fill="#EBEBEB" />
    <path
        d="M122.816 12.2944C123.642 12.2944 124.465 12.4797 125.262 12.8452L125.861 13.1199C126.057 13.2099 126.194 13.5097 126.194 13.8488C126.194 14.1876 126.057 14.4868 125.861 14.5771L125.279 14.8458C124.478 15.2151 123.651 15.4025 122.816 15.4025C122.735 15.4025 122.67 15.2938 122.67 15.1596V12.5376C122.67 12.4031 122.735 12.2944 122.816 12.2944Z"
        fill="#EBEBEB" />
    <path
        d="M126.19 13.8906C126.179 14.2113 126.049 14.4909 125.861 14.5775L125.279 14.8462C124.478 15.2155 123.651 15.4029 122.816 15.4029C122.735 15.4029 122.67 15.2943 122.67 15.1598V13.8906H126.19Z"
        fill="#CFCFCF" />
    <path
        d="M125.511 18.7373C125.906 18.7373 126.227 18.4168 126.227 18.0215C126.227 17.6262 125.906 17.3057 125.511 17.3057C125.115 17.3057 124.795 17.6262 124.795 18.0215C124.795 18.4168 125.115 18.7373 125.511 18.7373Z"
        fill="#EBEBEB" />
    <path d="M125.511 18.0211L124.134 14.4541" stroke="#CFCFCF" stroke-width="1.9648"
        stroke-miterlimit="10" stroke-linecap="round" />
    <path d="M150.498 18.0215L189.879 20.0245L146.865 19.7732L150.498 18.0215Z" fill="#C15442" />
    <path d="M50.3985 17.4312L11.4615 19.6758L7.67773 22.305L50.3985 17.4312Z" fill="#C15442" />
</svg>