<svg xmlns="http://www.w3.org/2000/svg" width="102" height="81" viewBox="0 0 102 81" fill="none">
    <path
        d="M18.6149 80.4857C26.2831 80.4857 32.4994 74.2694 32.4994 66.6013C32.4994 58.9331 26.2831 52.7168 18.6149 52.7168C10.9468 52.7168 4.73047 58.9331 4.73047 66.6013C4.73047 74.2694 10.9468 80.4857 18.6149 80.4857Z"
        fill="#2A2A2B" />
    <path
        d="M18.6159 76.2534C23.9466 76.2534 28.268 71.932 28.268 66.6013C28.268 61.2706 23.9466 56.9492 18.6159 56.9492C13.2852 56.9492 8.96387 61.2706 8.96387 66.6013C8.96387 71.932 13.2852 76.2534 18.6159 76.2534Z"
        fill="#091119" />
    <path
        d="M18.6113 58.4268C14.0964 58.4268 10.4355 62.0863 10.4355 66.6025C10.4355 71.1174 14.0951 74.7769 18.6113 74.7769C23.1262 74.7769 26.7857 71.1174 26.7857 66.6025C26.7857 62.0876 23.1262 58.4268 18.6113 58.4268ZM24.2731 61.0305C25.2495 62.0069 25.1115 63.2267 24.2731 63.6108L21.465 64.8996C21.3518 64.9517 21.0549 64.776 20.792 64.513C20.529 64.2487 20.3532 63.9532 20.4053 63.8386L21.6941 61.0305C22.0769 60.1921 23.2967 60.0528 24.2731 61.0305ZM18.6972 58.6871C20.0785 58.6871 20.8427 59.6479 20.5225 60.5123L19.4471 63.409C19.4041 63.5262 19.0696 63.6108 18.6972 63.6108C18.3249 63.6108 17.9903 63.5249 17.9473 63.409L16.8733 60.5123C16.5517 59.6479 17.3146 58.6871 18.6972 58.6871ZM13.0979 60.9745C14.0743 59.9981 15.2941 60.1361 15.6782 60.9745L16.967 63.7826C17.0191 63.8959 16.8434 64.1927 16.5804 64.4557C16.3161 64.72 16.0206 64.8944 15.906 64.8437L13.0979 63.5548C12.2595 63.1708 12.1202 61.9509 13.0979 60.9745ZM10.7545 66.5504C10.7545 65.1691 11.7153 64.4049 12.5797 64.7252L15.4764 65.8006C15.5936 65.8435 15.6782 66.1781 15.6782 66.5504C15.6782 66.9228 15.5923 67.2574 15.4764 67.3003L12.5797 68.3757C11.7153 68.6959 10.7545 67.9317 10.7545 66.5504ZM13.0406 72.1498C12.0642 71.1734 12.2035 69.9535 13.0406 69.5695L15.8487 68.2806C15.962 68.2285 16.2588 68.4043 16.5218 68.6686C16.7861 68.9316 16.9605 69.2284 16.9097 69.3416L15.6209 72.1498C15.2382 72.9882 14.0183 73.1275 13.0406 72.1498ZM18.6178 74.4932C17.2365 74.4932 16.4723 73.5324 16.7926 72.6679L17.8666 69.7712C17.9096 69.6541 18.2442 69.5681 18.6165 69.5681C18.9888 69.5681 19.3234 69.6541 19.3664 69.7712L20.4417 72.6679C20.7633 73.5324 19.9991 74.4932 18.6178 74.4932ZM24.2172 72.2057C23.2408 73.1821 22.0209 73.0441 21.6369 72.2057L20.348 69.3976C20.2959 69.2844 20.4717 68.9875 20.736 68.7246C21.0003 68.4616 21.2958 68.2858 21.409 68.3379L24.2172 69.6268C25.0556 70.0095 25.1936 71.2293 24.2172 72.2057ZM24.7353 68.4551L21.8386 67.3797C21.7215 67.3367 21.6355 67.0022 21.6355 66.6298C21.6355 66.2575 21.7215 65.9229 21.8386 65.88L24.7353 64.8059C25.5998 64.4857 26.5605 65.2486 26.5605 66.6312C26.5592 68.0111 25.5998 68.7753 24.7353 68.4551Z"
        fill="#DAD7E2" />
    <path
        d="M87.6618 80.4872C95.3299 80.4872 101.546 74.2709 101.546 66.6027C101.546 58.9346 95.3299 52.7183 87.6618 52.7183C79.9936 52.7183 73.7773 58.9346 73.7773 66.6027C73.7773 74.2709 79.9936 80.4872 87.6618 80.4872Z"
        fill="#2A2A2B" />
    <path
        d="M87.6628 76.2543C92.9935 76.2543 97.3149 71.933 97.3149 66.6023C97.3149 61.2716 92.9935 56.9502 87.6628 56.9502C82.3321 56.9502 78.0107 61.2716 78.0107 66.6023C78.0107 71.933 82.3321 76.2543 87.6628 76.2543Z"
        fill="#091119" />
    <path
        d="M87.6627 58.4272C83.1478 58.4272 79.4883 62.0868 79.4883 66.603C79.4883 71.1179 83.1478 74.7774 87.6627 74.7774C92.1776 74.7774 95.8385 71.1179 95.8385 66.603C95.8385 62.0881 92.1789 58.4272 87.6627 58.4272ZM93.3259 61.031C94.3023 62.0074 94.1643 63.2272 93.3259 63.6113L90.5178 64.9001C90.4045 64.9522 90.1077 64.7765 89.8447 64.5135C89.5817 64.2492 89.4059 63.9537 89.458 63.8391L90.7469 61.031C91.1296 60.1926 92.3495 60.0533 93.3259 61.031ZM87.75 58.6876C89.1313 58.6876 89.8955 59.6484 89.5752 60.5128L88.5011 63.4095C88.4582 63.5267 88.1236 63.6113 87.7513 63.6113C87.3789 63.6113 87.0443 63.5254 87.0014 63.4095L85.926 60.5128C85.6045 59.6484 86.3674 58.6876 87.75 58.6876ZM82.1506 60.975C83.127 59.9986 84.3469 60.1366 84.7309 60.975L86.0198 63.7831C86.0718 63.8964 85.8961 64.1932 85.6318 64.4562C85.3688 64.7205 85.072 64.8949 84.9587 64.8442L82.1506 63.5553C81.3122 63.1713 81.1729 61.9514 82.1506 60.975ZM79.8072 66.5509C79.8072 65.1696 80.768 64.4054 81.6325 64.7257L84.5291 65.801C84.6463 65.844 84.7309 66.1786 84.7309 66.5509C84.7309 66.9232 84.645 67.2579 84.5291 67.3008L81.6325 68.3761C80.768 68.6964 79.8072 67.9322 79.8072 66.5509ZM82.0933 72.1503C81.1169 71.1738 81.2549 69.954 82.0933 69.5699L84.9014 68.2811C85.0147 68.229 85.3115 68.4048 85.5745 68.6691C85.8388 68.9321 86.0132 69.2289 85.9625 69.3421L84.6736 72.1503C84.2909 72.9887 83.071 73.128 82.0933 72.1503ZM87.6705 74.4936C86.2893 74.4936 85.5251 73.5329 85.8453 72.6684L86.9207 69.7717C86.9636 69.6546 87.2982 69.5686 87.6705 69.5686C88.0429 69.5686 88.3774 69.6546 88.4204 69.7717L89.4945 72.6684C89.816 73.5329 89.0518 74.4936 87.6705 74.4936ZM93.2699 72.2062C92.2922 73.1826 91.0736 73.0446 90.6896 72.2062L89.4007 69.3981C89.3487 69.2849 89.5244 68.988 89.7887 68.7251C90.0516 68.4621 90.3485 68.2863 90.4618 68.3384L93.2699 69.6272C94.1083 70.01 94.2463 71.2298 93.2699 72.2062ZM93.788 68.4556L90.8914 67.3802C90.7742 67.3372 90.6883 67.0027 90.6883 66.6303C90.6883 66.258 90.7742 65.9234 90.8914 65.8805L93.788 64.8064C94.6525 64.4861 95.6133 65.2491 95.6133 66.6316C95.612 68.0116 94.6525 68.7758 93.788 68.4556Z"
        fill="#DAD7E2" />
    <path
        d="M68.4362 15.8385C68.4336 15.8385 68.4297 15.8385 68.4258 15.8385C68.2631 15.8346 64.4304 15.7253 63.907 13.766C63.4175 11.9368 62.7171 6.8322 62.5882 4.90543C62.5804 4.78566 62.7106 4.68799 62.8786 4.68799C63.0465 4.68799 63.1897 4.78566 63.1975 4.90543C63.3264 6.82048 64.0216 11.8913 64.5059 13.7048C64.9342 15.3061 68.3816 15.4037 68.4154 15.4037C68.5847 15.4076 68.7227 15.5079 68.7253 15.6276C68.7305 15.7448 68.6003 15.8385 68.4362 15.8385Z"
        fill="#DAD7E2" />
    <path
        d="M59.9671 4.91848C59.8838 2.77951 60.8198 1.04541 62.0592 1.04541C63.2986 1.04541 64.37 2.77951 64.4533 4.91848C64.5367 7.05746 63.6006 8.79156 62.3612 8.79156C61.1219 8.79156 60.0504 7.05746 59.9671 4.91848Z"
        fill="#EEEDF2" />
    <path
        d="M60.0357 4.91835C59.9589 2.95123 60.7087 1.35645 61.7125 1.35645C62.7162 1.35645 63.5898 2.95123 63.6666 4.91835C63.7434 6.88548 62.9935 8.4803 61.9898 8.4803C60.9861 8.4803 60.1125 6.88548 60.0357 4.91835Z"
        fill="#DAD7E2" />
    <path
        d="M61.0392 4.91838C61.1343 7.36589 60.0628 9.34997 58.6464 9.34997C57.2299 9.34997 56.0023 7.36589 55.9072 4.91838C55.8122 2.47086 56.8837 0.486816 58.3001 0.486816C59.7165 0.486816 60.9442 2.47086 61.0392 4.91838Z"
        fill="#DAD7E2" />
    <path
        d="M60.961 4.91812C61.0482 7.16906 60.1903 8.99299 59.0433 8.99299C57.8964 8.99299 56.8953 7.16906 56.808 4.91812C56.7195 2.66719 57.5787 0.843262 58.7257 0.843262C59.8713 0.843262 60.8724 2.66719 60.961 4.91812Z"
        fill="#EEEDF2" />
    <path
        d="M65.3245 17.4386C65.3206 17.4386 65.3166 17.4386 65.3127 17.4386C65.1227 17.4347 60.6481 17.3058 60.0376 15.0184C59.466 12.8834 58.6485 6.92343 58.4975 4.6738C58.4883 4.53319 58.6393 4.41992 58.8359 4.41992C59.0325 4.41992 59.1992 4.53319 59.2083 4.6738C59.358 6.90911 60.1691 12.8287 60.7354 14.9469C61.2353 16.8163 65.2593 16.9296 65.2997 16.9309C65.4963 16.9348 65.659 17.052 65.6616 17.1926C65.6669 17.3306 65.5158 17.4386 65.3245 17.4386Z"
        fill="#DAD7E2" />
    <path
        d="M14.5195 39.695C6.48822 39.695 0.883659 56.3563 5.40506 55.6012C13.9623 54.1718 27.2192 54.2981 31.7589 59.1554C33.5411 61.0613 32.3525 68.0536 37.2163 68.0536C47.1821 68.0536 68.1305 69.5755 71.9489 65.7571C75.0083 62.6977 76.1566 56.9044 79.3943 52.8074C82.0358 49.4642 87.2068 48.8003 87.1261 47.5999C85.6225 30.2056 70.1393 30.5623 69.6055 18.6385C69.5365 17.101 61.8854 21.4284 61.8854 21.4284C61.8854 21.4284 68.8153 39.2432 69.2501 44.0875C69.6225 48.23 69.3881 58.1165 62.8319 58.1165C58.8781 58.1165 54.6002 58.1034 51.3364 58.1034C45.2592 58.1034 43.1151 55.0649 43.1151 49.1674C43.1151 43.0668 49.5489 39.695 49.5489 39.695C49.5489 39.695 26.4199 39.695 14.5195 39.695Z"
        fill="#D25131" />
    <path
        d="M98.3735 57.9953C100.217 58.6788 101.061 57.9693 99.954 56.3445C97.1784 52.2645 92.4878 49.5956 87.1826 49.6243C78.7101 49.6698 71.8792 56.575 71.926 65.0475C71.9273 65.2858 71.9351 65.5227 71.9482 65.7583C71.969 66.1502 72.879 65.1256 74.2238 63.6923C78.2909 59.3596 84.0582 56.64 90.4686 56.6062C93.2481 56.5893 95.9117 57.0827 98.3735 57.9953Z"
        fill="#EF5A32" />
    <path
        d="M36.1478 63.1241C36.0593 51.8903 28.127 42.8149 18.3513 42.8149C8.57553 42.8149 0.643215 51.8903 0.554688 63.1241H36.1478Z"
        fill="#EF5A32" />
    <path
        d="M18.3504 46.1581C25.6982 46.1581 32.0747 50.5702 35.2995 57.0457C33.0017 48.7905 26.2827 42.8149 18.3504 42.8149C10.4181 42.8149 3.70047 48.7905 1.40137 57.0457C4.6261 50.5702 11.004 46.1581 18.3504 46.1581Z"
        fill="#F78A74" />
    <path
        d="M99.9543 56.3445C97.1787 52.2645 92.488 49.5956 87.1829 49.6243C85.7131 49.6321 84.2927 49.8482 82.9492 50.2413C83.5976 50.1541 84.2563 50.1034 84.928 50.0995C88.4053 50.0812 91.6145 51.2269 94.1974 53.1641C96.1593 54.3188 97.8452 55.8915 99.1224 57.7701C99.2382 57.9393 99.3268 58.0968 99.401 58.2453C100.484 58.3312 100.825 57.623 99.9543 56.3445Z"
        fill="#F78A74" />
    <path
        d="M81.0668 53.938C78.355 57.2981 74.8348 60.4968 71.9473 63.3843C68.1289 67.2014 47.1804 65.6809 37.2146 65.6809C37.0245 65.6809 36.8475 65.6665 36.6756 65.6457C36.4374 66.3812 36.177 67.1129 35.8984 67.8407C36.2812 67.976 36.7147 68.0528 37.2159 68.0528C47.1817 68.0528 68.1301 69.5748 71.9485 65.7564C74.797 62.9079 78.2587 59.7586 80.9562 56.4493C80.9458 55.6148 80.9861 54.7764 81.0668 53.938Z"
        fill="#EF5A32" />
    <path
        d="M62.5332 65.4358C62.5332 65.7261 62.2988 65.9604 62.0085 65.9604H36.6702C36.3812 65.9604 36.1455 65.7261 36.1455 65.4358C36.1455 65.1468 36.3799 64.9111 36.6702 64.9111H62.0085C62.2975 64.9111 62.5332 65.1455 62.5332 65.4358Z"
        fill="#DAD7E2" />
    <path
        d="M70.664 14.4883H68.3089C66.1713 14.4883 61.2554 19.313 61.8842 21.4285C62.6523 22.9192 63.8878 23.742 65.6804 23.742H70.664C73.2196 23.742 75.2909 21.6707 75.2909 19.1151C75.2909 16.5595 73.2196 14.4883 70.664 14.4883Z"
        fill="#D25131" />
    <path
        d="M75.5366 14.4855L71.0607 14.4634C70.8095 14.8735 70.678 15.3747 70.7209 15.9163L71.2078 22.1731C71.2547 22.7706 71.4995 23.2848 71.8679 23.665L76.1979 22.9646C76.966 22.8409 77.5076 21.9153 77.4282 20.8959L77.0741 16.3394C76.9921 15.32 76.3151 14.4894 75.5366 14.4855Z"
        fill="#F2A927" />
    <path
        d="M75.5374 14.4858H75.5153C75.4593 14.5249 75.4085 14.5692 75.3564 14.6121L76.0087 22.9962L76.1974 22.9662C76.9656 22.8426 77.5071 21.9169 77.4277 20.8976L77.0736 16.341C76.9929 15.3204 76.3159 14.4897 75.5374 14.4858Z"
        fill="#EEEDF2" />
    <path
        d="M62.8289 22.0377C62.5282 22.5298 61.6091 22.9412 60.9712 22.453C60.2499 21.901 60.315 20.6773 60.8813 20.2529L63.7623 17.8405C63.9758 17.6804 64.619 17.7077 64.9041 18.0866C65.171 18.442 65.279 18.8729 65.1488 19.0864L62.8289 22.0377Z"
        fill="#EEEDF2" />
    <path
        d="M49.5499 39.6957C49.5499 39.6957 46.0922 39.6957 41.1633 39.6957C39.1246 41.0289 34.3936 44.7405 34.3936 50.4583C34.3936 57.5053 44.9166 61.1349 52.1758 61.1349C56.0749 61.1349 61.1861 61.1506 65.9106 61.1506C73.7439 61.1506 72.0085 48.8596 71.5633 43.9099C71.1363 39.1607 63.8731 24.0915 62.4788 20.3018L62.2419 22.3184C62.2419 22.3184 68.815 39.244 69.2511 44.0882C69.6235 48.2308 69.3892 58.1172 62.8329 58.1172C58.8792 58.1172 54.6012 58.1042 51.3374 58.1042C45.2603 58.1042 43.1161 55.0656 43.1161 49.1682C43.1161 43.0689 49.5499 39.6957 49.5499 39.6957Z"
        fill="#DAD7E2" />
    <path
        d="M50.519 36.6442C50.519 39.5109 49.0219 41.8347 47.1745 41.8347H30.6902C28.8428 41.8347 9.21582 39.5109 9.21582 36.6442C9.21582 33.7775 10.713 31.4536 12.5603 31.4536C12.5603 31.4536 29.7125 33.4246 35.4368 33.2918C38.3842 33.2228 43.0684 32.9026 47.539 32.1644C49.3603 31.865 50.519 33.7788 50.519 36.6442Z"
        fill="#F4CC25" />
    <path
        d="M47.0693 39.6995H29.8404C28.2664 39.6995 14.3312 38.1542 9.24477 36.0283C9.22915 36.2314 9.21875 36.4358 9.21875 36.6441C9.21875 39.5108 28.8458 41.8346 30.6931 41.8346H47.1774C49.0247 41.8346 50.5219 39.5108 50.5219 36.6441C50.5219 36.3095 50.505 35.9879 50.4737 35.6807C50.1131 37.9824 48.7279 39.6995 47.0693 39.6995Z"
        fill="#F2A927" />
    <path
        d="M61.564 23.8738C61.1748 24.5117 59.9809 25.0455 59.1542 24.4115C58.2195 23.6955 58.3028 22.1098 59.0371 21.5578L62.7734 18.4294C63.0494 18.2224 63.8852 18.2563 64.255 18.7484C64.6013 19.2092 64.7406 19.7677 64.5713 20.045L61.564 23.8738Z"
        fill="#872F2D" />
    <path
        d="M61.0618 23.2667C61.0618 23.9346 60.5202 24.4749 59.8537 24.4749C59.1858 24.4749 58.6455 23.9333 58.6455 23.2667C58.6455 22.5988 59.1871 22.0586 59.8537 22.0586C60.5202 22.0573 61.0618 22.5988 61.0618 23.2667Z"
        fill="#2A2A2B" />
    <path
        d="M3.89935 46.8814L5.28584 48.1377C5.63344 48.0127 5.95111 47.7758 6.18545 47.4308L8.89074 43.4536C9.14851 43.0734 9.24872 42.6477 9.21097 42.2454L7.56543 41.4916C7.04598 41.1987 6.27916 41.4916 5.83912 42.1413L3.86939 45.0366C3.42806 45.685 3.43588 46.5064 3.89935 46.8814Z"
        fill="#F2A927" />
    <path
        d="M3.89951 46.8814L3.91254 46.8918C3.96461 46.8957 4.01537 46.8931 4.06744 46.8918L7.69185 41.5632L7.56428 41.4916C7.04483 41.1987 6.27804 41.4916 5.83801 42.1413L3.86828 45.0366C3.42825 45.685 3.43604 46.5064 3.89951 46.8814Z"
        fill="#DB3535" />
    <path
        d="M71.9781 27.5971C69.4134 24.4921 85.2663 37.3259 85.0293 46.5796C80.521 48.9529 77.1986 50.3759 76.0126 52.0371C78.1476 46.3427 80.9948 38.5119 71.9781 27.5971Z"
        fill="#EF5A32" />
    <path
        d="M0.613597 61.7383C0.583654 62.1965 0.561523 62.6574 0.557617 63.1235H36.1508C36.1469 62.6574 36.1247 62.1965 36.0948 61.7383H0.613597Z"
        fill="#DAD7E2" />
</svg>