<svg xmlns="http://www.w3.org/2000/svg" width="208" height="78" viewBox="0 0 208 78" fill="none">
    <path d="M207.453 0H0V0.745418H207.453V0Z" fill="#2A2A2B" />
    <path
        d="M129.266 18.4272C129.126 18.4772 128.971 18.404 128.921 18.2642L128.658 17.5321C128.608 17.3923 128.682 17.2376 128.821 17.1876L174.041 0.941468C174.181 0.891551 174.335 0.964749 174.385 1.10452L174.648 1.83663C174.698 1.9764 174.625 2.13114 174.485 2.18106L129.266 18.4272Z"
        fill="#2A2A2B" />
    <path
        d="M115.118 23.9993C114.978 24.0492 114.823 23.976 114.773 23.8362L114.209 22.2589C114.159 22.1191 114.232 21.9644 114.372 21.9145L128.909 16.7115C129.049 16.6616 129.204 16.7348 129.254 16.8745L129.818 18.4519C129.868 18.5917 129.795 18.7464 129.655 18.7963L115.118 23.9993Z"
        fill="#D967E0" />
    <path
        d="M118.866 25.4259C119.224 25.8219 119.266 26.148 118.956 26.148H101.921C101.612 26.148 101.485 25.8236 101.635 25.4259L103.259 21.1563C103.387 20.8186 103.718 20.5474 104 20.5474H113.96C114.241 20.5474 114.713 20.8186 115.018 21.1563L118.866 25.4259Z"
        fill="#C99617" />
    <path
        d="M132.139 30.3995C132.808 30.9653 132.889 31.4361 132.302 31.4361H85.1621C84.5748 31.4361 84.6547 30.9653 85.3252 30.3995L91.9109 24.8388C92.3867 24.4362 93.1538 24.1167 93.633 24.1167H123.834C124.313 24.1167 125.079 24.4362 125.556 24.8388L132.139 30.3995Z"
        fill="#7A2418" />
    <path
        d="M207.233 70.8035C207.233 71.9915 206.243 72.7036 205.082 72.9549C202.542 73.504 196.017 75.1063 194.804 75.1063C190.32 75.1063 2.86432 75.1063 2.86432 75.1063C1.67631 75.1063 0.712891 74.1429 0.712891 72.9549L0.722894 60.3959L1.43003 59.3692L2.89926 35.0332C2.89926 33.8452 4.59809 32.4043 5.7861 32.4043H204.005C205.193 32.4043 206.311 33.8486 206.401 35.0332C206.784 40.1464 207.233 48.9067 207.233 48.9067V70.8035Z"
        fill="black" />
    <path
        d="M194.652 40.0828C195.946 41.176 196.103 42.0861 194.966 42.0861H18.4445C17.3081 42.0861 17.4645 41.176 18.759 40.0828L31.4927 29.3291C32.4145 28.5504 33.8954 27.9331 34.8222 27.9331H178.587C179.512 27.9331 180.995 28.5504 181.916 29.3291L194.652 40.0828Z"
        fill="#D967E0" />
    <path
        d="M207.756 69.9084C207.756 71.1031 206.761 71.8186 205.593 72.0715C203.038 72.6239 196.476 74.2346 195.258 74.2346C190.749 74.2346 2.23728 74.2346 2.23728 74.2346C1.04261 74.2346 0.0742188 73.2662 0.0742188 72.0715L0.0841966 59.4409L0.79468 58.4093L2.27221 33.9369C2.27221 32.7422 3.98102 31.293 5.17569 31.293H204.511C205.706 31.293 206.83 32.7455 206.92 33.9369C207.305 39.0783 207.756 47.8886 207.756 47.8886V69.9084Z"
        fill="#7A2418" />
    <path d="M207.755 60.4282H0.0800781V63.9008H207.755V60.4282Z" fill="#D967E0" />
    <path d="M207.756 66.4565H0.078125V68.8126H207.756V66.4565Z" fill="#D967E0" />
    <path
        d="M186.318 53.6326H207.756V47.8889C207.756 47.8889 207.305 39.0786 206.92 33.9372C206.895 33.6044 206.787 33.2516 206.622 32.9155H2.6249C2.40694 33.2516 2.2705 33.6027 2.2705 33.9372L0.802947 57.5194L0.792969 58.4096L186.318 57.5461V53.6326Z"
        fill="#172333" />
    <path
        d="M0.880859 56.3029H6.92078C7.2652 56.3029 7.54474 56.0234 7.54474 55.6789V36.8554C7.54474 36.511 7.2652 36.2314 6.92078 36.2314H2.10882C1.07388 46.3213 0.880859 56.3029 0.880859 56.3029Z"
        fill="#80C2DC" />
    <path
        d="M31.2871 72.0031C31.2871 72.3475 31.0076 72.627 30.6631 72.627H9.19232C8.84789 72.627 8.56836 72.3475 8.56836 72.0031V36.5922C8.56836 36.2478 8.84789 35.9683 9.19232 35.9683H30.6631C31.0076 35.9683 31.2871 36.2478 31.2871 36.5922V72.0031Z"
        fill="#172333" />
    <path d="M19.2845 37.3911H9.68555V71.5091H19.2845V37.3911Z" fill="#80C2DC" />
    <path d="M30.265 37.3911H20.666V71.5091H30.265V37.3911Z" fill="#80C2DC" />
    <path d="M9.68555 54.2502L19.2862 60.0671V58.761L9.68555 52.9424V54.2502Z" fill="#C99617" />
    <path d="M30.2728 54.2502L20.6738 60.0671V58.761L30.2728 52.9424V54.2502Z" fill="#C99617" />
    <path
        d="M73.2047 72.0031C73.2047 72.3475 72.9252 72.627 72.5808 72.627H51.1083C50.7639 72.627 50.4844 72.3475 50.4844 72.0031V36.5922C50.4844 36.2478 50.7639 35.9683 51.1083 35.9683H72.5808C72.9252 35.9683 73.2047 36.2478 73.2047 36.5922V72.0031Z"
        fill="#172333" />
    <path d="M61.2005 37.3901H51.6016V71.5081H61.2005V37.3901Z" fill="#80C2DC" />
    <path d="M72.181 37.3901H62.582V71.5081H72.181V37.3901Z" fill="#80C2DC" />
    <path d="M51.6016 54.2492L61.2005 60.0662V58.76L51.6016 52.9414V54.2492Z" fill="#C99617" />
    <path d="M72.1888 54.2492L62.5898 60.0662V58.76L72.1888 52.9414V54.2492Z" fill="#C99617" />
    <path
        d="M135.275 72.0031C135.275 72.3475 134.996 72.627 134.651 72.627H113.179C112.834 72.627 112.555 72.3475 112.555 72.0031V36.5922C112.555 36.2478 112.834 35.9683 113.179 35.9683H134.651C134.996 35.9683 135.275 36.2478 135.275 36.5922V72.0031Z"
        fill="#172333" />
    <path d="M123.271 37.3911H113.672V71.5091H123.271V37.3911Z" fill="#80C2DC" />
    <path d="M134.249 37.3911H124.65V71.5091H134.249V37.3911Z" fill="#80C2DC" />
    <path d="M113.672 54.2502L123.271 60.0671V58.761L113.672 52.9424V54.2502Z" fill="#C99617" />
    <path d="M134.261 54.2502L124.66 60.0671V58.761L134.261 52.9424V54.2502Z" fill="#C99617" />
    <path
        d="M5.94695 59.8848H0.0834041L0.0800781 63.2725H5.94695C6.88205 63.2725 7.64079 62.5137 7.64079 61.5786C7.64079 60.6435 6.88205 59.8848 5.94695 59.8848Z"
        fill="#4F170F" />
    <path d="M3.63745 60.4448H0.125V62.7144H3.63745V60.4448Z" fill="#F7E6E4" />
    <path
        d="M5.43626 60.4448H4.37305V62.7144H5.43626C6.06188 62.7144 6.57104 62.2052 6.57104 61.5796C6.57104 60.954 6.06188 60.4448 5.43626 60.4448Z"
        fill="#C99617" />
    <path
        d="M1.6546 63.5854H0.0755916L0.0722656 66.9731H1.65295C2.58806 66.9731 3.3468 66.2144 3.3468 65.2793C3.34846 64.3442 2.58971 63.5854 1.6546 63.5854Z"
        fill="#4F170F" />
    <path
        d="M1.14134 64.1445H0.078125V66.4141H1.14134C1.76696 66.4141 2.27612 65.9049 2.27612 65.2793C2.27612 64.6537 1.76696 64.1445 1.14134 64.1445Z"
        fill="#F7E6E4" />
    <path
        d="M40.7136 44.6954H31.5605V37.0232C31.5605 36.5357 31.9566 36.1396 32.4441 36.1396H40.7136V44.6954ZM49.4623 36.1396H41.2693V44.6954H50.3442V37.0232C50.3442 36.5357 49.9498 36.1396 49.4623 36.1396ZM31.5605 45.4275V55.4956C31.5605 55.9832 31.9566 56.3792 32.4441 56.3792H49.4623C49.9498 56.3792 50.3458 55.9832 50.3458 55.4956V45.4275H31.5605Z"
        fill="#80C2DC" />
    <path
        d="M82.5261 44.6954H73.373V37.0232C73.373 36.5357 73.769 36.1396 74.2566 36.1396H82.5278V44.6954H82.5261ZM91.2748 36.1396H83.0818V44.6954H92.1567V37.0232C92.1583 36.5357 91.7623 36.1396 91.2748 36.1396ZM73.373 45.4275V55.4956C73.373 55.9832 73.769 56.3792 74.2566 56.3792H91.2748C91.7623 56.3792 92.1583 55.9832 92.1583 55.4956V45.4275H73.373Z"
        fill="#80C2DC" />
    <path
        d="M102.321 44.6954H93.168V37.0232C93.168 36.5357 93.564 36.1396 94.0515 36.1396H102.323V44.6954H102.321ZM111.07 36.1396H102.877V44.6954H111.952V37.0232C111.953 36.5357 111.557 36.1396 111.07 36.1396ZM93.168 45.4275V55.4956C93.168 55.9832 93.564 56.3792 94.0515 56.3792H111.07C111.557 56.3792 111.953 55.9832 111.953 55.4956V45.4275H93.168Z"
        fill="#80C2DC" />
    <path
        d="M197.66 72.0031C197.66 72.3475 197.38 72.627 197.036 72.627H175.563C175.219 72.627 174.939 72.3475 174.939 72.0031V36.5922C174.939 36.2478 175.219 35.9683 175.563 35.9683H197.036C197.38 35.9683 197.66 36.2478 197.66 36.5922V72.0031Z"
        fill="#172333" />
    <path d="M185.656 37.3906H176.057V71.5086H185.656V37.3906Z" fill="#80C2DC" />
    <path d="M196.636 37.3906H187.037V71.5086H196.636V37.3906Z" fill="#80C2DC" />
    <path d="M176.057 54.2497L185.657 60.0667V58.7605L176.057 52.9419V54.2497Z" fill="#C99617" />
    <path d="M196.644 54.2497L187.045 60.0667V58.7605L196.644 52.9419V54.2497Z" fill="#C99617" />
    <path
        d="M144.913 44.6954H135.76V37.0232C135.76 36.5357 136.156 36.1396 136.643 36.1396H144.914L144.913 44.6954ZM153.662 36.1396H145.469V44.6954H154.543V37.0232C154.543 36.5357 154.149 36.1396 153.662 36.1396ZM135.76 45.4275V55.4956C135.76 55.9832 136.156 56.3792 136.643 56.3792H153.662C154.149 56.3792 154.545 55.9832 154.545 55.4956V45.4275H135.76Z"
        fill="#80C2DC" />
    <path
        d="M164.706 44.6954H155.553V37.0232C155.553 36.5357 155.949 36.1396 156.436 36.1396H164.706V44.6954ZM173.454 36.1396H165.262V44.6954H174.336V37.0232C174.338 36.5357 173.942 36.1396 173.454 36.1396ZM155.553 45.4275V55.4956C155.553 55.9832 155.949 56.3792 156.436 56.3792H173.454C173.942 56.3792 174.338 55.9832 174.338 55.4956V45.4275H155.553Z"
        fill="#80C2DC" />
    <path
        d="M198.193 52.9656H204.871C205.358 52.9656 205.754 52.5696 205.754 52.0821V37.0139C205.754 36.5264 205.358 36.1304 204.871 36.1304H198.193V52.9656Z"
        fill="#80C2DC" />
    <path d="M50.3203 39.7705H31.5117V40.7289H50.3203V39.7705Z" fill="#C99617" />
    <path d="M50.3203 53.166H31.5117V54.1244H50.3203V53.166Z" fill="#C99617" />
    <path d="M154.55 53.166H135.76V54.1244H154.55V53.166Z" fill="#C99617" />
    <path d="M174.355 53.166H155.547V54.1244H174.355V53.166Z" fill="#C99617" />
    <path d="M154.542 39.7705H145.467V40.7289H154.542V39.7705Z" fill="#C99617" />
    <path d="M144.912 39.7705H135.854V40.7289H144.912V39.7705Z" fill="#C99617" />
    <path d="M174.339 39.7705H165.264V40.7289H174.339V39.7705Z" fill="#C99617" />
    <path d="M164.709 39.7705H155.566V40.7289H164.709V39.7705Z" fill="#C99617" />
    <path d="M111.954 39.7705H102.879V40.7289H111.954V39.7705Z" fill="#C99617" />
    <path d="M102.321 39.7705H93.168V40.7289H102.321V39.7705Z" fill="#C99617" />
    <path d="M111.953 53.166H93.168V54.1244H111.953V53.166Z" fill="#C99617" />
    <path d="M92.1588 39.7705H83.084V40.7289H92.1588V39.7705Z" fill="#C99617" />
    <path d="M82.5261 39.7705H73.373V40.7289H82.5261V39.7705Z" fill="#C99617" />
    <path d="M92.1583 53.166H73.373V54.1244H92.1583V53.166Z" fill="#C99617" />
    <path
        d="M48.6953 74.227V68.1688C48.6953 64.5049 45.7253 61.5332 42.0598 61.5332H39.8485C36.1846 61.5332 33.2129 64.5033 33.2129 68.1688V74.227H48.6953Z"
        fill="black" />
    <path
        d="M48.2074 70.6921C48.2074 74.7287 44.9362 77.9999 40.8996 77.9999C36.863 77.9999 33.5918 74.7287 33.5918 70.6921C33.5918 66.6555 36.863 63.3843 40.8996 63.3843C44.9362 63.3843 48.2074 66.6555 48.2074 70.6921Z"
        fill="#2A2A2B" />
    <path
        d="M46.2068 70.6923C46.2068 73.6241 43.8291 76.0017 40.8974 76.0017C37.9656 76.0017 35.5879 73.6257 35.5879 70.6923C35.5879 67.7605 37.9639 65.3828 40.8974 65.3828C43.8308 65.3828 46.2068 67.7605 46.2068 70.6923Z"
        fill="#091119" />
    <path
        d="M45.5558 70.6925C45.5558 73.2632 43.4727 75.3464 40.902 75.3464C38.3313 75.3464 36.248 73.2632 36.248 70.6925C36.248 68.1218 38.3313 66.0386 40.902 66.0386C43.4727 66.0386 45.5558 68.1218 45.5558 70.6925Z"
        fill="white" />
    <path
        d="M44.1625 70.6926C44.1625 72.4946 42.7016 73.9554 40.8996 73.9554C39.0976 73.9554 37.6367 72.4946 37.6367 70.6926C37.6367 68.8906 39.0976 67.4297 40.8996 67.4297C42.7016 67.428 44.1625 68.8889 44.1625 70.6926Z"
        fill="#DCDFE2" />
    <path
        d="M43.754 70.692C43.754 72.2677 42.4761 73.5455 40.9004 73.5455C39.3247 73.5455 38.0469 72.2677 38.0469 70.692C38.0469 69.1163 39.3247 67.8384 40.9004 67.8384C42.4761 67.8384 43.754 69.1146 43.754 70.692Z"
        fill="white" />
    <path
        d="M42.2108 70.6923C42.2108 71.4161 41.6234 72.0018 40.9013 72.0018C40.1775 72.0018 39.5918 71.4161 39.5918 70.6923C39.5918 69.9685 40.1775 69.3828 40.9013 69.3828C41.6234 69.3812 42.2108 69.9685 42.2108 70.6923Z"
        fill="#091119" />
    <path
        d="M154.488 74.2265V68.1683C154.488 64.5044 151.518 61.5327 147.853 61.5327H145.641C141.978 61.5327 139.006 64.5028 139.006 68.1683V74.2265H154.488Z"
        fill="black" />
    <path
        d="M154.008 70.6926C154.008 74.7291 150.737 78.0003 146.7 78.0003C142.664 78.0003 139.393 74.7291 139.393 70.6926C139.393 66.656 142.664 63.3848 146.7 63.3848C150.737 63.3848 154.008 66.656 154.008 70.6926Z"
        fill="#2A2A2B" />
    <path
        d="M152.008 70.6928C152.008 73.6245 149.632 76.0022 146.698 76.0022C143.766 76.0022 141.389 73.6262 141.389 70.6928C141.389 67.761 143.765 65.3833 146.698 65.3833C149.63 65.3833 152.008 67.761 152.008 70.6928Z"
        fill="#091119" />
    <path
        d="M151.357 70.693C151.357 73.2637 149.273 75.3469 146.703 75.3469C144.132 75.3469 142.049 73.2637 142.049 70.693C142.049 68.1223 144.132 66.0391 146.703 66.0391C149.273 66.0391 151.357 68.1223 151.357 70.693Z"
        fill="white" />
    <path
        d="M149.963 70.6931C149.963 72.495 148.502 73.9559 146.7 73.9559C144.898 73.9559 143.438 72.495 143.438 70.6931C143.438 68.8911 144.898 67.4302 146.7 67.4302C148.502 67.4285 149.963 68.8894 149.963 70.6931Z"
        fill="#DCDFE2" />
    <path
        d="M149.555 70.6925C149.555 72.2682 148.277 73.546 146.701 73.546C145.126 73.546 143.848 72.2682 143.848 70.6925C143.848 69.1168 145.126 67.8389 146.701 67.8389C148.277 67.8389 149.555 69.1151 149.555 70.6925Z"
        fill="white" />
    <path
        d="M148.013 70.6928C148.013 71.4166 147.428 72.0022 146.704 72.0022C145.98 72.0022 145.395 71.4166 145.395 70.6928C145.395 69.969 145.982 69.3833 146.704 69.3833C147.428 69.3816 148.013 69.969 148.013 70.6928Z"
        fill="#091119" />
    <path
        d="M171.488 74.2265V68.1683C171.488 64.5044 168.518 61.5327 164.853 61.5327H162.641C158.978 61.5327 156.006 64.5028 156.006 68.1683V74.2265H171.488Z"
        fill="black" />
    <path
        d="M171.004 70.6926C171.004 74.7291 167.733 78.0003 163.696 78.0003C159.66 78.0003 156.389 74.7291 156.389 70.6926C156.389 66.656 159.66 63.3848 163.696 63.3848C167.733 63.3848 171.004 66.656 171.004 70.6926Z"
        fill="#2A2A2B" />
    <path
        d="M169.004 70.6928C169.004 73.6245 166.628 76.0022 163.694 76.0022C160.762 76.0022 158.385 73.6262 158.385 70.6928C158.385 67.761 160.761 65.3833 163.694 65.3833C166.626 65.3833 169.004 67.761 169.004 70.6928Z"
        fill="#091119" />
    <path
        d="M168.353 70.693C168.353 73.2637 166.27 75.3469 163.699 75.3469C161.128 75.3469 159.045 73.2637 159.045 70.693C159.045 68.1223 161.128 66.0391 163.699 66.0391C166.27 66.0391 168.353 68.1223 168.353 70.693Z"
        fill="white" />
    <path
        d="M166.959 70.6931C166.959 72.495 165.498 73.9559 163.696 73.9559C161.894 73.9559 160.434 72.495 160.434 70.6931C160.434 68.8911 161.894 67.4302 163.696 67.4302C165.498 67.4285 166.959 68.8894 166.959 70.6931Z"
        fill="#DCDFE2" />
    <path
        d="M166.551 70.6925C166.551 72.2682 165.273 73.546 163.697 73.546C162.122 73.546 160.844 72.2682 160.844 70.6925C160.844 69.1168 162.122 67.8389 163.697 67.8389C165.273 67.8389 166.551 69.1151 166.551 70.6925Z"
        fill="white" />
    <path
        d="M165.01 70.6923C165.01 71.4161 164.422 72.0018 163.7 72.0018C162.976 72.0018 162.391 71.4161 162.391 70.6923C162.391 69.9685 162.978 69.3828 163.7 69.3828C164.424 69.3812 165.01 69.9685 165.01 70.6923Z"
        fill="#091119" />
    <path
        d="M207.735 66.5754V56.7285H207.199C206.274 56.7285 205.523 57.4789 205.523 58.404V64.8982C205.523 65.8233 206.274 66.5737 207.199 66.5737H207.735V66.5754Z"
        fill="#4F170F" />
    <path
        d="M207.733 65.9106V57.3232H207.504C206.697 57.3232 206.041 57.9772 206.041 58.7841V64.448C206.041 65.255 206.695 65.9089 207.504 65.9089L207.733 65.9106Z"
        fill="#DB3535" />
    <path d="M207.733 62.1948H206.041V63.9985H207.733V62.1948Z" fill="#C99617" />
    <path opacity="0.7"
        d="M20.6645 50.8142V41.2934L24.5663 37.3916H30.2651V41.2135L20.6645 50.8142ZM30.2634 48.1969V44.8225C27.0638 48.0222 23.8641 51.2218 20.6628 54.4231V57.7975C23.8641 54.5962 27.0638 51.3965 30.2634 48.1969ZM30.2634 55.4598V54.32L20.6628 63.919V65.0587C23.8641 61.8591 27.0638 58.6594 30.2634 55.4598ZM30.2634 68.8673V59.0687C27.0638 62.2684 23.8641 65.468 20.6628 68.6677V71.5096H27.6212C28.503 70.6294 29.3832 69.7492 30.2634 68.8673ZM7.54474 42.9823V40.4448C5.45822 42.5313 3.37004 44.6195 1.28353 46.706C1.22862 47.6478 1.18036 48.543 1.13876 49.3865L7.54474 42.9823ZM7.54474 50.8042V46.5912C5.35506 48.7809 3.16539 50.9706 0.975712 53.1603C0.904165 55.117 0.880859 56.3033 0.880859 56.3033H2.04725C3.87919 54.4697 5.7128 52.6378 7.54474 50.8042ZM5.65456 56.3033H6.92078C7.2652 56.3033 7.54474 56.0238 7.54474 55.6794V54.4131L5.65456 56.3033ZM19.2868 39.0621V37.3916H16.7444C14.3916 39.7443 12.0389 42.0971 9.68616 44.4498V48.6628C12.8858 45.4631 16.0871 42.2634 19.2868 39.0621ZM19.2868 52.1919V42.6711C16.0871 45.8708 12.8875 49.0704 9.68781 52.2701V61.7908C12.8858 58.5912 16.0871 55.3915 19.2868 52.1919ZM19.2868 59.1752V55.8008C16.0871 59.0005 12.8875 62.2002 9.68781 65.3998V68.7742C12.8858 65.5745 16.0871 62.3748 19.2868 59.1752ZM19.2868 66.4381V65.2983L13.0738 71.5112H14.2136C15.9041 69.8191 17.5963 68.1286 19.2868 66.4381ZM13.1354 37.3916H10.598L9.68616 38.3034V40.8408L13.1354 37.3916ZM61.2001 37.9323V37.3933H51.9406L51.6011 37.7327V47.533L61.2001 37.9323ZM61.2001 46.3117V43.4964C58.0004 46.6961 54.8008 49.8957 51.5995 53.0954V55.9123L61.2001 46.3117ZM61.2001 56.0887V49.9207C58.0004 53.1203 54.8008 56.32 51.5995 59.5196V65.6876C54.8008 62.488 58.0004 59.2883 61.2001 56.0887ZM61.2001 62.513V59.696C58.0004 62.8956 54.8008 66.0953 51.5995 69.2949V71.5079H52.2018C55.2018 68.5113 58.2018 65.513 61.2001 62.513ZM49.5729 36.152C49.5346 36.147 49.498 36.1403 49.4597 36.1403H48.4431L41.2667 43.3167V44.4565L49.5729 36.152ZM44.6361 44.6961H50.3416V38.9906L44.6361 44.6961ZM40.295 45.4282H39.1553L31.5563 53.0271V54.1669L40.295 45.4282ZM50.3416 48.7909V45.4298H43.904L32.9539 56.3799H42.7542L50.3416 48.7909ZM48.3166 56.3782H49.4581C49.9456 56.3782 50.3416 55.9822 50.3416 55.4947V54.3533L48.3166 56.3782ZM155.554 39.0871V41.345L160.759 36.1403H158.501L155.554 39.0871ZM164.707 40.5713V36.1403H164.366L155.81 44.6961H160.582L164.707 40.5713ZM70.1202 37.3916H67.3032L62.5778 42.117V44.934L70.1202 37.3916ZM72.1784 45.1104V38.9423L62.5795 48.5413V54.7093C65.7791 51.5113 68.9788 48.31 72.1784 45.1104ZM72.1784 51.5363V48.7193L62.5795 58.32V61.1353L72.1784 51.5363ZM66.4264 71.5096H72.1784V65.7575L66.4264 71.5096ZM141.484 36.1403H136.641C136.153 36.1403 135.757 36.5364 135.757 37.0239V41.8674C137.667 39.959 139.576 38.0505 141.484 36.1403ZM144.912 39.9773V36.3234L136.538 44.6977H140.191L144.912 39.9773ZM81.1484 36.1403H74.9804L73.3731 37.7477V43.9157L81.1484 36.1403ZM82.5261 41.1869V38.3716L76.2 44.6977H79.0153L82.5261 41.1869ZM35.3366 36.1403H32.4398C31.9523 36.1403 31.5563 36.5364 31.5563 37.0239V39.9207L35.3366 36.1403ZM40.711 37.751V36.1403H38.9456C36.483 38.6029 34.0205 41.0655 31.5579 43.528V44.6961H33.7659L40.711 37.751ZM102.323 42.0621V36.142H101.796L93.2399 44.6977H99.6875L102.323 42.0621ZM7.54141 36.8409C7.53309 36.5031 7.26021 36.2319 6.92078 36.2319H2.10882C1.87754 38.4798 1.6895 40.721 1.53643 42.8475L7.54141 36.8409ZM169.138 36.1403H165.263V40.0155L169.138 36.1403ZM173.987 36.3217C173.839 36.2102 173.657 36.1403 173.458 36.1403H172.749C170.255 38.6345 167.76 41.1287 165.266 43.6245V44.6961H165.614L173.987 36.3217ZM172.293 44.6961H174.339V42.6495L172.293 44.6961ZM149.945 44.6961H152.203L154.542 42.3566V40.0987L149.945 44.6961ZM148.747 36.1403H145.468V39.4199L148.747 36.1403ZM184.09 37.3916H179.597L176.058 40.9307V45.4232L184.09 37.3916ZM185.657 41.132V39.4332L176.058 49.0321V50.731L185.657 41.132ZM185.657 54.2601V50.6062C182.458 53.8058 179.258 57.0055 176.058 60.2068V63.8607L185.657 54.2601ZM185.657 64.3166V57.8691L176.058 67.468V71.5096H178.464L185.657 64.3166ZM159.852 45.4282H155.556V49.7243L159.852 45.4282ZM164.88 45.4282H163.461L155.556 53.3333V54.7526C158.662 51.6445 161.772 48.5363 164.88 45.4282ZM174.339 47.142V45.4282H171.561L160.611 56.3782H165.103L174.339 47.142ZM174.339 52.4498V50.7509L168.711 56.3799H170.409L174.339 52.4498ZM203.787 36.1304H200.133L198.196 38.0671V41.721L203.787 36.1304ZM205.757 44.2169V37.7693L198.196 45.33V51.7775L205.757 44.2169ZM78.2849 45.4282H75.4679L73.3714 47.5247V50.3416C75.0104 48.7027 76.6476 47.0654 78.2849 45.4282ZM92.1584 52.2268V45.7792L81.5577 56.3799H88.0053L92.1584 52.2268ZM189.396 37.3916H187.697L187.035 38.0538V39.7527L189.396 37.3916ZM196.636 43.2834V39.6295L187.035 49.2285V52.8824L196.636 43.2834ZM196.636 53.3383V46.8907L187.035 56.4897V62.9372L196.636 53.3383ZM192.408 71.5096H196.636V67.2817L192.408 71.5096ZM139.459 45.4282H135.805L135.757 45.4748V49.1286C136.992 47.8957 138.226 46.6628 139.459 45.4282ZM138.263 56.3782H140.521L151.471 45.4282H149.213C145.564 49.0787 141.914 52.7293 138.263 56.3782ZM154.542 50.736V45.9639L144.128 56.3782H148.9C150.782 54.498 152.662 52.6178 154.542 50.736ZM153.995 56.3117L154.476 55.8308C154.519 55.7276 154.542 55.6145 154.542 55.4947V54.3433L152.508 56.3765H153.659C153.779 56.3782 153.892 56.3549 153.995 56.3117ZM98.957 45.4282H93.17V51.2152C95.0985 49.2867 97.0269 47.3566 98.957 45.4282ZM103.426 45.4282H102.566L93.1717 54.8225V55.4947C93.1717 55.5529 93.1783 55.6112 93.1883 55.6661L103.426 45.4282ZM96.0835 56.3782H99.4578L110.408 45.4282H107.034C103.385 49.0787 99.734 52.7293 96.0835 56.3782ZM87.5727 36.1403H84.7557L83.0819 37.8142V40.6295L87.5727 36.1403ZM111.942 36.9124C111.912 36.6894 111.804 36.4931 111.641 36.3533C108.86 39.1337 106.078 41.9157 103.298 44.6961H104.158C106.752 42.1021 109.346 39.5064 111.942 36.9124ZM107.766 44.6961H111.14L111.954 43.8824V40.5081L107.766 44.6961ZM108.243 36.1403H102.879V41.5047L108.243 36.1403ZM113.672 38.7909V42.1653L118.446 37.3916H115.072L113.672 38.7909ZM123.271 54.3533V45.3916L113.672 54.9905V63.9522C116.872 60.7542 120.072 57.5529 123.271 54.3533ZM123.271 61.6161V57.9622C120.072 61.1619 116.872 64.3615 113.672 67.5628V71.2168C116.872 68.0154 120.072 64.8158 123.271 61.6161ZM134.25 43.3749V37.3916H131.271L124.649 44.0139V52.9755C127.85 49.7759 131.05 46.5763 134.25 43.3749ZM124.651 69.9921V71.5096H125.39L134.25 62.6494V60.3915C131.05 63.5928 127.85 66.7925 124.651 69.9921ZM134.25 71.0304V66.2584L128.999 71.5096H133.771L134.25 71.0304ZM134.25 50.6378V46.9839C131.05 50.1836 127.85 53.3832 124.649 56.5829V60.2367C127.85 57.0388 131.05 53.8391 134.25 50.6378Z"
        fill="white" />
    <path
        d="M173.051 0.15625V0.931602C173.051 1.85672 173.801 2.60714 174.726 2.60714H175.578C176.503 2.60714 177.254 1.85672 177.254 0.931602V0.15625H173.051Z"
        fill="#C99617" />
</svg>