<svg xmlns="http://www.w3.org/2000/svg" width="112" height="55" viewBox="0 0 112 55" fill="none">
    <path
        d="M77.7351 15.596C77.8121 16.762 77.0871 17.709 76.1171 17.709H5.54606C4.57606 17.709 3.78906 16.762 3.78906 15.596V2.054C3.78906 0.918001 4.56306 0 5.51806 0H74.9791C75.9341 0 76.7691 0.919001 76.8431 2.054L77.7351 15.596Z"
        fill="#DB3535" />
    <path
        d="M76.5976 1.145C76.2696 0.468004 75.6566 0 74.9796 0H5.51859C4.84159 0 4.25959 0.468004 3.97559 1.145H76.5976Z"
        fill="#EF5252" />
    <path
        d="M83.5798 6.34084L96.9158 19.3888L102.466 20.1418C102.629 20.1618 104.858 20.3258 105.015 20.3498C104.902 19.9208 102.67 19.2968 102.67 19.2968L85.3478 6.17883C84.6688 5.58283 83.7088 5.11583 82.8438 5.11583L81.4238 4.65283C82.0678 5.33883 83.0088 5.78584 83.5798 6.34084Z"
        fill="#C1C1C1" />
    <path
        d="M83.9358 5.87376L96.5338 18.3468C96.7048 18.4798 99.9457 18.7428 102.67 19.2958C102.507 19.0888 102.31 18.8728 102.075 18.6498L85.5837 6.17677C84.9137 5.58877 83.7057 5.12677 82.8438 5.11377C83.2887 5.30677 83.6878 5.57476 83.9358 5.87376Z"
        fill="#80C2DC" />
    <path
        d="M102.251 19.6019L96.701 18.8488L83.365 5.80084C82.579 5.03484 81.233 4.44385 80.323 4.44385H4.47604C3.56604 4.44385 2.77604 5.12185 2.70904 5.99385L0.40004 22.6469L0.0520382 40.6449C-0.194962 43.8659 1.08204 46.6988 2.92604 46.6988H107.745C109.665 46.6988 111.193 44.7978 111.193 42.4518V30.6128C111.192 25.5708 109.906 20.5299 102.251 19.6019Z"
        fill="white" />
    <path
        d="M109.243 42.8378H2.13769C1.28269 42.8378 0.549689 42.2378 0.0246888 41.2798C-0.0213112 44.2288 1.20569 46.6988 2.92669 46.6988H107.746C109.666 46.6988 111.194 44.7978 111.194 42.4518V42.1168C110.637 42.5718 109.968 42.8378 109.243 42.8378Z"
        fill="#C1C1C1" />
    <path
        d="M68.8204 22.4498C67.1164 22.4498 65.7304 21.1218 65.7304 19.4888V7.29184C65.7304 6.40084 66.6594 5.72885 67.8914 5.72885H79.4154C80.4394 5.72885 81.5834 6.18584 82.1364 6.81584L92.8614 19.0128C93.6144 19.9228 93.8494 20.8348 93.5214 21.5318C93.3604 21.8748 92.9224 22.4488 91.8014 22.4488H68.8204V22.4498ZM63.0964 22.5638C64.2884 22.5638 65.2574 21.5948 65.2574 20.4028V7.75084C65.2574 6.55984 64.2884 5.58984 63.0964 5.58984H39.2024C38.0104 5.58984 37.0414 6.55884 37.0414 7.75084V20.4028C37.0414 21.5938 38.0104 22.5638 39.2024 22.5638H63.0964ZM34.2864 22.5638C35.4774 22.5638 36.4474 21.5948 36.4474 20.4028V7.75084C36.4474 6.55984 35.4784 5.58984 34.2864 5.58984H10.3924C9.20144 5.58984 8.23145 6.55884 8.23145 7.75084V20.4028C8.23145 21.5938 9.20044 22.5638 10.3924 22.5638H34.2864Z"
        fill="#C1C1C1" />
    <path
        d="M92.3212 19.4902C93.3172 20.6962 93.1112 21.7302 91.8022 21.7302H68.8202C67.5112 21.7302 66.4512 20.6962 66.4512 19.4902V7.29317C66.4512 6.82017 67.0962 6.45117 67.8912 6.45117H79.4152C80.2112 6.45117 81.1802 6.82117 81.5952 7.29317L92.3212 19.4902Z"
        fill="#80C2DC" />
    <path
        d="M111.192 30.6339V30.6129C111.192 28.4699 110.948 26.3329 110.092 24.5059H0.367071L0.24707 30.6339H111.192Z"
        fill="#DB3535" />
    <path d="M0.184179 33.647L0.0341797 40.11H111.192V33.647H0.184179Z" fill="#DB3535" />
    <path
        d="M0.294071 28.272L0.24707 30.634H111.193V30.613C111.193 29.827 111.159 29.042 111.075 28.272H0.294071Z"
        fill="#EF581D" />
    <path d="M111.192 35.884V33.647H0.189344L0.152344 35.884H111.192Z" fill="#EF581D" />
    <path
        d="M105.368 46.72V39.894C105.368 35.765 102.021 32.4189 97.8928 32.4189H95.4008C91.2728 32.4189 87.9258 35.766 87.9258 39.894V46.72H105.368Z"
        fill="#172333" />
    <path
        d="M104.711 44.0642C105.441 39.5763 102.395 35.3462 97.9062 34.6158C93.4178 33.8855 89.1872 36.9316 88.457 41.4194C87.7267 45.9073 90.7733 50.1375 95.2617 50.8678C99.7501 51.5981 103.981 48.552 104.711 44.0642Z"
        fill="#2A2A2B" />
    <path
        d="M102.569 42.7378C102.569 46.0408 99.8914 48.7188 96.5884 48.7188C93.2854 48.7188 90.6074 46.0408 90.6074 42.7378C90.6074 39.4348 93.2854 36.7568 96.5884 36.7568C99.8914 36.7568 102.569 39.4348 102.569 42.7378Z"
        fill="#091119" />
    <path
        d="M101.832 42.7381C101.832 45.6341 99.4847 47.9811 96.5887 47.9811C93.6927 47.9811 91.3457 45.6331 91.3457 42.7381C91.3457 39.8431 93.6937 37.4951 96.5887 37.4951C99.4847 37.4951 101.832 39.8431 101.832 42.7381Z"
        fill="white" />
    <path
        d="M96.5891 46.415C98.6199 46.415 100.266 44.7688 100.266 42.738C100.266 40.7073 98.6199 39.061 96.5891 39.061C94.5584 39.061 92.9121 40.7073 92.9121 42.738C92.9121 44.7688 94.5584 46.415 96.5891 46.415Z"
        fill="#DCDFE2" />
    <path
        d="M96.5881 45.953C98.3636 45.953 99.803 44.5135 99.803 42.7379C99.803 40.9624 98.3636 39.5229 96.5881 39.5229C94.8125 39.5229 93.373 40.9624 93.373 42.7379C93.373 44.5135 94.8125 45.953 96.5881 45.953Z"
        fill="white" />
    <path
        d="M98.0653 42.7377C98.0653 43.5527 97.4043 44.2137 96.5893 44.2137C95.7743 44.2137 95.1133 43.5527 95.1133 42.7377C95.1133 41.9227 95.7743 41.2617 96.5893 41.2617C97.4043 41.2617 98.0653 41.9227 98.0653 42.7377Z"
        fill="#091119" />
    <path
        d="M34.3473 46.72V39.894C34.3473 35.765 31.0003 32.4189 26.8723 32.4189H24.3803C20.2523 32.4189 16.9053 35.766 16.9053 39.894V46.72H34.3473Z"
        fill="#172333" />
    <path
        d="M31.3865 48.5584C34.6017 45.3432 34.6017 40.1304 31.3865 36.9153C28.1714 33.7001 22.9586 33.7001 19.7434 36.9153C16.5283 40.1304 16.5283 45.3432 19.7434 48.5584C22.9586 51.7735 28.1714 51.7735 31.3865 48.5584Z"
        fill="#2A2A2B" />
    <path
        d="M31.5489 42.7378C31.5489 46.0408 28.8709 48.7188 25.5679 48.7188C22.2649 48.7188 19.5869 46.0408 19.5869 42.7378C19.5869 39.4348 22.2649 36.7568 25.5679 36.7568C28.8709 36.7568 31.5489 39.4348 31.5489 42.7378Z"
        fill="#091119" />
    <path
        d="M30.8112 42.7376C30.8112 45.6336 28.4642 47.9806 25.5682 47.9806C22.6722 47.9806 20.3252 45.6326 20.3252 42.7376C20.3252 39.8426 22.6722 37.4946 25.5682 37.4946C28.4632 37.4946 30.8112 39.8426 30.8112 42.7376Z"
        fill="white" />
    <path
        d="M29.2436 42.738C29.2436 44.769 27.5976 46.415 25.5666 46.415C23.5356 46.415 21.8896 44.769 21.8896 42.738C21.8896 40.707 23.5356 39.061 25.5666 39.061C27.5976 39.061 29.2436 40.708 29.2436 42.738Z"
        fill="#DCDFE2" />
    <path
        d="M28.7835 42.7379C28.7835 44.5139 27.3435 45.953 25.5685 45.953C23.7925 45.953 22.3535 44.5129 22.3535 42.7379C22.3535 40.9619 23.7925 39.5229 25.5685 39.5229C27.3435 39.5229 28.7835 40.9619 28.7835 42.7379Z"
        fill="white" />
    <path
        d="M27.0438 42.7377C27.0438 43.5527 26.3828 44.2137 25.5678 44.2137C24.7528 44.2137 24.0918 43.5527 24.0918 42.7377C24.0918 41.9227 24.7528 41.2617 25.5678 41.2617C26.3828 41.2617 27.0438 41.9227 27.0438 42.7377Z"
        fill="#091119" />
    <path
        d="M37.7617 20.403C37.7617 21.199 38.4067 21.844 39.2027 21.844H63.0967C63.8927 21.844 64.5377 21.199 64.5377 20.403V7.75102C64.5377 6.95502 63.8927 6.31104 63.0967 6.31104H39.2027C38.4067 6.31104 37.7617 6.95602 37.7617 7.75102V20.403Z"
        fill="#80C2DC" />
    <path
        d="M8.95117 20.403C8.95117 21.199 9.59617 21.844 10.3912 21.844H34.2862C35.0822 21.844 35.7262 21.199 35.7262 20.403V7.75102C35.7262 6.95502 35.0812 6.31104 34.2862 6.31104H10.3922C9.59717 6.31104 8.95217 6.95602 8.95217 7.75102L8.95117 20.403Z"
        fill="#80C2DC" />
    <path
        d="M109.825 40.4438C109.635 40.5988 109.44 40.6768 109.242 40.6768H107.529V39.8938C107.529 34.5808 103.206 30.2578 97.8933 30.2578H95.4013C90.0883 30.2578 85.7653 34.5808 85.7653 39.8938V40.6768H36.5083V39.8938C36.5083 34.5808 32.1853 30.2578 26.8723 30.2578H24.3803C19.0673 30.2578 14.7443 34.5808 14.7443 39.8938V40.6768H2.23833C2.17333 40.6198 2.05333 40.4868 1.91933 40.2418L0.103331 37.1418L0.00333096 40.5628C-0.012669 40.7688 0.0343308 41.0518 0.0313308 41.2538C0.306331 41.7318 0.347332 41.7818 0.717332 42.2108C1.13133 42.6088 1.61033 42.8378 2.13733 42.8378H16.9053V39.8938C16.9053 35.7648 20.2523 32.4188 24.3803 32.4188H26.8723C31.0003 32.4188 34.3473 35.7658 34.3473 39.8938V42.8378H87.9263V39.8938C87.9263 35.7648 91.2733 32.4188 95.4013 32.4188H97.8933C102.022 32.4188 105.368 35.7658 105.368 39.8938V42.8378H109.242C109.967 42.8378 110.635 42.5718 111.192 42.1168V39.3258L109.825 40.4438Z"
        fill="#EDEBEB" />
    <path
        d="M45.2033 23.831C45.2033 24.129 44.9613 24.371 44.6633 24.371H38.9013C38.6033 24.371 38.3613 24.129 38.3613 23.831C38.3613 23.533 38.6033 23.291 38.9013 23.291H44.6633C44.9623 23.291 45.2033 23.532 45.2033 23.831Z"
        fill="#172333" />
    <path
        d="M74.674 23.831C74.674 24.129 74.432 24.371 74.134 24.371H68.372C68.074 24.371 67.832 24.129 67.832 23.831C67.832 23.533 68.074 23.291 68.372 23.291H74.134C74.432 23.291 74.674 23.532 74.674 23.831Z"
        fill="#172333" />
    <path
        d="M109.283 23.1182H104.657C103.861 23.1182 103.217 23.7632 103.217 24.5582V27.3802C103.217 28.1762 103.862 28.8202 104.657 28.8202H111.129C110.971 26.7332 110.479 24.7322 109.283 23.1182Z"
        fill="#C1C1C1" />
    <path
        d="M106.061 23.8384H104.658C104.261 23.8384 103.938 24.1614 103.938 24.5584V27.3804C103.938 27.7774 104.261 28.1004 104.658 28.1004H106.061V23.8384Z"
        fill="#F49625" />
    <path
        d="M106.516 28.1014H111.06C110.882 26.5734 110.498 25.1114 109.757 23.8384H106.516V28.1014Z"
        fill="white" />
    <path
        d="M111.161 32.4189H109.868C109.072 32.4189 108.428 33.064 108.428 33.86V34.968C108.428 35.764 109.073 36.409 109.868 36.409H111.161V32.4189Z"
        fill="#C1C1C1" />
    <path
        d="M111.161 33.1392H109.868C109.471 33.1392 109.148 33.4622 109.148 33.8592V34.9682C109.148 35.3652 109.471 35.6882 109.868 35.6882H111.161V33.1392Z"
        fill="white" />
    <path
        d="M0.112305 33.701H5.1643C5.9603 33.701 6.6053 33.056 6.6053 32.261V29.438C6.6053 28.643 5.9603 27.998 5.1643 27.998H0.206305L0.112305 33.701Z"
        fill="#EDEBEB" />
    <path
        d="M3.76172 28.7183H5.16472C5.56172 28.7183 5.88472 29.0413 5.88472 29.4383V32.2603C5.88472 32.6573 5.56172 32.9803 5.16472 32.9803H3.76172V28.7183Z"
        fill="#F49625" />
    <path d="M0.112305 32.9803H3.3063V28.7183H0.175304L0.112305 32.9803Z" fill="#DB3535" />
    <path
        d="M2.63162 7.02982L1.80762 17.7678H3.94662C5.13762 17.7678 6.10762 16.7988 6.10762 15.6068V9.18982C6.10762 7.99882 5.13862 7.02881 3.94662 7.02881H2.63162V7.02982Z"
        fill="#C1C1C1" />
    <path
        d="M2.5753 7.75099L1.8623 17.049H3.9463C4.7413 17.049 5.3873 16.404 5.3873 15.608V9.19099C5.3873 8.39499 4.7423 7.75 3.9463 7.75L2.5753 7.75099Z"
        fill="#80C2DC" />
    <path opacity="0.7"
        d="M5.38147 9.11087C5.36847 8.89987 5.31047 8.70288 5.21747 8.52588C4.24247 9.50088 3.26747 10.4759 2.29247 11.4509L2.23047 12.2629L5.38147 9.11087Z"
        fill="white" />
    <path opacity="0.7"
        d="M2.17628 12.96L1.86328 17.048H3.94728C4.74228 17.048 5.38828 16.403 5.38828 15.607V9.74902L2.17628 12.96Z"
        fill="white" />
    <path opacity="0.7"
        d="M16.1861 6.31006H10.3921C9.59715 6.31006 8.95215 6.95506 8.95215 7.75006V13.5441C11.3631 11.1331 13.7741 8.72206 16.1861 6.31006Z"
        fill="white" />
    <path opacity="0.7"
        d="M10.3926 21.844H11.0516L26.5846 6.31104H23.6966C18.8176 11.19 13.9386 16.069 9.05957 20.948C9.27457 21.473 9.78957 21.844 10.3926 21.844Z"
        fill="white" />
    <path opacity="0.7"
        d="M31.1443 6.31006H30.5623L15.0293 21.8431H15.6113C20.7893 16.6661 25.9673 11.4881 31.1443 6.31006Z"
        fill="white" />
    <path opacity="0.7" d="M21.9717 21.8439H26.9417L35.7277 13.0579V8.08789L21.9717 21.8439Z"
        fill="white" />
    <path opacity="0.7" d="M35.7271 19.9338V17.8218L31.7051 21.8438H33.8171L35.7271 19.9338Z"
        fill="white" />
    <path opacity="0.7"
        d="M83.9346 5.87389L87.7686 9.66989L88.8156 8.62289L85.5826 6.17789C85.0646 5.72289 84.2256 5.34689 83.4726 5.19189C83.4176 5.24689 83.3616 5.30289 83.3066 5.35889C83.5576 5.51189 83.7786 5.68489 83.9346 5.87389Z"
        fill="white" />
    <path opacity="0.7"
        d="M94.8474 13.186L92.6454 11.52L91.1484 13.017L93.0924 14.941L94.8474 13.186Z" fill="white" />
    <path opacity="0.7"
        d="M67.8462 6.45312C67.0722 6.46713 66.4512 6.82912 66.4512 7.29312V7.84912L67.8462 6.45312Z"
        fill="white" />
    <path opacity="0.7"
        d="M79.0902 6.45117H75.3502L66.4512 15.3492V19.0892C70.6642 14.8762 74.8772 10.6632 79.0902 6.45117Z"
        fill="white" />
    <path opacity="0.7"
        d="M75.7104 21.7301C79.0064 18.4341 82.3014 15.1391 85.5974 11.8431L81.5954 7.29208C81.5624 7.25508 81.5214 7.22008 81.4824 7.18408C76.7874 11.8791 72.0934 16.5741 67.3984 21.2681C67.7944 21.5551 68.2864 21.7291 68.8214 21.7291L75.7104 21.7301Z"
        fill="white" />
    <path opacity="0.7"
        d="M90.5545 17.4799L88.7435 15.4219L82.4355 21.7299H86.3045L90.5545 17.4799Z" fill="white" />
    <path opacity="0.7"
        d="M42.4757 6.31006H39.2027C38.4067 6.31006 37.7617 6.95506 37.7617 7.75006V11.0231L42.4757 6.31006Z"
        fill="white" />
    <path opacity="0.7" d="M49.3517 6.31006H47.2397L37.7617 15.7881V17.9001L49.3517 6.31006Z"
        fill="white" />
    <path opacity="0.7"
        d="M64.0662 6.69206C63.8102 6.45706 63.4712 6.31006 63.0962 6.31006H59.4022L43.8682 21.8431H48.9142L64.0662 6.69206Z"
        fill="white" />
    <path opacity="0.7"
        d="M51.4668 21.8439H52.4568C56.4838 17.8169 60.5108 13.79 64.5378 9.76295V8.77295C60.1808 13.1299 55.8238 17.4869 51.4668 21.8439Z"
        fill="white" />
    <path opacity="0.7"
        d="M59.9561 21.8442H63.0961C63.8921 21.8442 64.5371 21.1992 64.5371 20.4032V17.2632C63.0101 18.7902 61.4831 20.3172 59.9561 21.8442Z"
        fill="white" />
    <path opacity="0.2"
        d="M64.537 22.0019V40.1599C64.537 40.9559 63.892 41.6009 63.096 41.6009H39.202C38.406 41.6009 37.761 40.9559 37.761 40.1599V22.0009C37.322 21.6049 37.041 21.0379 37.041 20.4019V40.1589C37.041 41.3509 38.01 42.3199 39.202 42.3199H63.096C64.288 42.3199 65.257 41.3509 65.257 40.1589V20.4019C65.257 21.0389 64.975 21.6059 64.537 22.0019Z"
        fill="#091119" />
    <path opacity="0.2"
        d="M93.6319 20.6829C93.6609 20.9859 93.6419 21.2769 93.5219 21.5329C93.4339 21.7189 93.2599 21.9709 92.9449 22.1649V29.4189C88.0119 30.2079 84.2299 34.4919 84.2299 39.6439V41.6469H67.8739C67.0779 41.6469 66.4329 41.0019 66.4329 40.2059V21.3469C65.9999 20.8379 65.7299 20.1969 65.7299 19.4899C65.7239 19.4879 65.7189 19.4869 65.7129 19.4849V40.2059C65.7129 41.3979 66.6819 42.3669 67.8739 42.3669H84.9489V39.6439C84.9489 34.9599 88.4349 30.8689 93.0569 30.1299L93.6639 30.0329V20.6819C93.6539 20.6839 93.6429 20.6829 93.6319 20.6829Z"
        fill="#091119" />
    <path
        d="M80.4592 3.89606C80.4592 4.20806 80.2062 4.46106 79.8942 4.46106H77.6802C77.3682 4.46106 77.1152 4.20806 77.1152 3.89606V0.646057C77.1152 0.334057 77.3682 0.0810547 77.6802 0.0810547H79.8942C80.2062 0.0810547 80.4592 0.334057 80.4592 0.646057V3.89606Z"
        fill="#C1C1C1" />
    <path
        d="M80.4922 3.73598C80.4922 4.01598 80.2652 4.24298 79.9852 4.24298H77.9992C77.7192 4.24298 77.4922 4.01598 77.4922 3.73598V0.819977C77.4922 0.539977 77.7192 0.312988 77.9992 0.312988H79.9852C80.2652 0.312988 80.4922 0.539977 80.4922 0.819977V3.73598Z"
        fill="#DB3535" />
    <path
        d="M79.9853 0.312988H79.6973V4.24298H79.9853C80.2653 4.24298 80.4923 4.01598 80.4923 3.73598V0.819977C80.4923 0.539977 80.2653 0.312988 79.9853 0.312988Z"
        fill="#F49625" />
</svg>